<svg width="128" height="128" viewBox="0 0 128 128" fill="none" xmlns="http://www.w3.org/2000/svg">
<path d="M116.45 64.4448C98.556 64.796 102.283 76.124 89.672 78.9888C76.8608 81.8992 74.8384 47.7 62.0304 47.7C49.2208 47.7 46.3832 80.9208 30.344 103.727L29.8864 104.373L64.2744 124.223L116.45 94.1024V64.4448Z" fill="#36A2EB"/>
<path d="M116.45 63.4136C110.46 55.7256 106.397 46.8872 97.6552 46.8872C82.1856 46.8872 86.256 72.1232 69.1592 72.1232C52.0608 72.1232 50.2632 44.9784 30.8936 70.4952C24.7216 78.6256 19.7536 87.6912 15.8512 96.2696L64.2744 124.224L116.45 94.1032V63.4136Z" fill="#FFCE56"/>
<path opacity="0.8" d="M12.0968 73.8672C17.9672 57.6104 20.5008 44.444 31.708 44.444C48.8048 44.444 52.8744 92.4752 67.5312 87.5888C82.1856 82.7048 80.5568 56.6536 103.354 56.6536C107.694 56.6536 112.124 59.312 116.451 63.612V94.1024L64.2752 124.223L12.0976 94.1024L12.0968 73.8672Z" fill="#FE6184"/>
<path d="M64.2336 128L8.79999 96.0008V32L64.2336 0L119.667 32V96L64.2336 128ZM15.3128 92.2408L64.2336 120.482L113.154 92.2408V35.76L64.2336 7.5192L15.3128 35.76V92.2408Z" fill="#E7E9ED"/>
</svg>
