<svg width="128" height="19" viewBox="0 0 128 19" fill="none" xmlns="http://www.w3.org/2000/svg">
<path d="M0 9.03491C0 4.06981 4.05873 0.0819978 9.13352 0.0819978C10.6594 0.071303 12.1639 0.440436 13.5115 1.15613C14.8592 1.87183 16.0076 2.91159 16.8532 4.18172L13.0482 6.38892C12.6079 5.75978 12.0219 5.24655 11.3402 4.89307C10.6585 4.53958 9.90141 4.35634 9.13352 4.35901C6.5241 4.35901 4.3856 6.53408 4.3856 9.03491C4.3856 11.5357 6.5241 13.7108 9.13352 13.7108C9.93762 13.716 10.7296 13.5151 11.434 13.1271C12.1383 12.7392 12.7315 12.1772 13.1568 11.4947L16.9241 13.7418C16.0888 15.0491 14.9361 16.1237 13.5735 16.8653C12.2109 17.607 10.6827 17.9916 9.1313 17.9834C4.05873 17.9878 0 13.9236 0 9.03491Z" fill="white"/>
<path d="M17.7008 9.0349C17.7008 4.10526 21.7596 0.118561 26.8344 0.118561C31.9446 0.118561 36.0044 4.10748 36.0044 9.0349C36.0044 13.928 31.9446 17.9878 26.8344 17.9878C21.7596 17.9878 17.7008 13.9235 17.7008 9.0349ZM31.6188 9.0349C31.6188 6.57064 29.4803 4.39557 26.8344 4.39557C24.2249 4.39557 22.0864 6.57064 22.0864 9.0349C22.0864 11.5357 24.2249 13.7108 26.8344 13.7108C29.4848 13.7108 31.6188 11.5357 31.6188 9.0349Z" fill="white"/>
<path d="M109.805 9.18006C109.805 3.7795 114.191 0.118561 118.178 0.118561C120.896 0.118561 122.455 0.951802 123.506 2.54737L123.924 0.442106H128V17.6609H123.924L123.397 15.8881C122.202 17.1934 120.715 17.9934 118.178 17.9934C114.264 17.9878 109.805 14.544 109.805 9.18006ZM123.723 9.14349C123.718 7.87986 123.212 6.6699 122.315 5.77981C121.418 4.88971 120.204 4.39238 118.94 4.39723C117.677 4.40208 116.467 4.90871 115.576 5.80566C114.686 6.70262 114.189 7.91642 114.194 9.18006C114.194 11.5723 116.332 13.7108 118.943 13.7108C121.586 13.7108 123.723 11.5723 123.723 9.14349Z" fill="white"/>
<path d="M104.796 2.43768V0.443217H100.338V17.6609H104.796V8.38338C104.796 5.59225 106.174 4.14294 108.563 4.14294C108.721 4.14294 108.872 4.15402 109.019 4.16843L109.846 0.0121918C107.522 0.0243801 105.838 0.821056 104.796 2.43768Z" fill="white"/>
<path d="M60.0011 2.43878V0.444322L55.5435 0.454294L55.5812 17.6698L60.0388 17.6598L60.0144 8.38338C60.0078 5.59335 61.3828 4.14072 63.774 4.13518C63.9265 4.13563 64.0789 4.14413 64.2305 4.16067L65.0526 0C62.7258 0.0188366 61.0393 0.818838 60.0011 2.43878Z" fill="white"/>
<path d="M37.549 10.9917V0.444321H42.0056V10.4488C42.0056 12.6593 43.2377 13.9645 45.3762 13.9645C47.7684 13.9645 49.1435 12.5141 49.1435 9.72299V0.444321H53.6022V17.6609H49.1468V15.6665C48.0964 17.2975 46.3923 18.0953 44.0366 18.0953C40.0499 18.0964 37.549 15.1967 37.549 10.9917Z" fill="white"/>
<path d="M80.9551 9.05485C80.9651 4.2338 84.4155 0.108591 89.8881 0.118564C94.9629 0.128536 98.5429 4.19391 98.5307 8.98283C98.5316 9.45631 98.4946 9.92911 98.4199 10.3967L85.2997 10.3723C85.8028 12.4388 87.5036 13.928 90.0776 13.9335C91.6355 13.9335 93.3042 13.3596 94.3213 12.0565L97.3618 14.4942C95.7983 16.7025 93.0404 18.0022 90.1064 17.9967C84.9263 17.979 80.9463 14.0931 80.9551 9.05485ZM94.0432 7.26649C93.7928 5.52687 91.9834 4.18172 89.8449 4.1784C87.7784 4.1784 86.1097 5.40388 85.4537 7.25097L94.0432 7.26649Z" fill="white"/>
<path d="M65.0792 13.908L69.0416 11.8338C69.6964 13.2532 71.0061 14.0898 72.862 14.0898C74.5717 14.0898 75.2266 13.5446 75.2266 12.7801C75.2266 10.01 65.8404 11.6886 65.8404 5.35623C65.8404 1.86371 68.8964 0.00886536 72.6792 0.00886536C75.5535 0.00886536 78.0997 1.282 79.4825 3.64654L75.5557 5.7241C74.974 4.55956 73.8826 3.90471 72.4997 3.90471C71.1546 3.90471 70.4986 4.37784 70.4986 5.17784C70.4986 7.87036 79.8848 6.16067 79.8848 12.6017C79.8848 15.949 77.1568 17.9856 72.7546 17.9856C69.0072 17.9823 66.3878 16.7457 65.0792 13.908Z" fill="white"/>
<path d="M0 9.03491C0 4.06981 4.05873 0.0819978 9.13352 0.0819978C10.6594 0.071303 12.1639 0.440436 13.5115 1.15613C14.8592 1.87183 16.0076 2.91159 16.8532 4.18172L13.0482 6.38892C12.6079 5.75978 12.0219 5.24655 11.3402 4.89307C10.6585 4.53958 9.90141 4.35634 9.13352 4.35901C6.5241 4.35901 4.3856 6.53408 4.3856 9.03491C4.3856 11.5357 6.5241 13.7108 9.13352 13.7108C9.93762 13.716 10.7296 13.5151 11.434 13.1271C12.1383 12.7392 12.7315 12.1772 13.1568 11.4947L16.9241 13.7418C16.0888 15.0491 14.9361 16.1237 13.5735 16.8653C12.2109 17.607 10.6827 17.9916 9.1313 17.9834C4.05873 17.9878 0 13.9236 0 9.03491Z" fill="white"/>
</svg>
