<svg width="64" height="11" viewBox="0 0 64 11" fill="none" xmlns="http://www.w3.org/2000/svg">
<path d="M3.45212 3.15399C4.33539 3.15399 5.03464 3.45404 5.54989 4.05412V0H7.46364V10.2062H5.58669V9.44781C5.06163 10.0715 4.35011 10.3834 3.45212 10.3834C2.47071 10.3834 1.64877 10.0384 0.986319 9.34858C0.328773 8.65872 0 7.79875 0 6.76869C0 5.73862 0.328773 4.87865 0.986319 4.18879C1.64877 3.49893 2.47071 3.15399 3.45212 3.15399ZM3.80543 4.87629C3.25584 4.87629 2.81175 5.0582 2.47316 5.42204C2.13457 5.78114 1.96528 6.23003 1.96528 6.76869C1.96528 7.30735 2.13457 7.75859 2.47316 8.12242C2.81175 8.48153 3.25584 8.66108 3.80543 8.66108C4.35011 8.66108 4.79175 8.48389 5.13033 8.12951C5.47383 7.7704 5.64557 7.3168 5.64557 6.76869C5.64557 6.22058 5.47383 5.76933 5.13033 5.41495C4.79175 5.05584 4.35011 4.87629 3.80543 4.87629Z" fill="#F97316"/>
<path d="M16.1382 3.33827V10.2062H14.2613V9.44781C13.7362 10.0715 13.0247 10.3834 12.1267 10.3834C11.1453 10.3834 10.3233 10.0384 9.66089 9.34858C9.00334 8.65872 8.67457 7.79875 8.67457 6.76869C8.67457 5.73862 9.00334 4.87865 9.66089 4.18879C10.3233 3.49893 11.1453 3.15399 12.1267 3.15399C13.0198 3.15399 13.7313 3.46821 14.2613 4.09665V3.33827H16.1382ZM12.48 4.87629C11.9304 4.87629 11.4863 5.0582 11.1477 5.42204C10.8091 5.78114 10.6398 6.23003 10.6398 6.76869C10.6398 7.30735 10.8091 7.75859 11.1477 8.12242C11.4863 8.48153 11.9304 8.66108 12.48 8.66108C13.0247 8.66108 13.4663 8.48389 13.8049 8.12951C14.1484 7.7704 14.3201 7.3168 14.3201 6.76869C14.3201 6.22058 14.1484 5.76933 13.8049 5.41495C13.4663 5.05584 13.0247 4.87629 12.48 4.87629Z" fill="#F97316"/>
<path d="M19.7119 0V10.2062H17.7908V0H19.7119Z" fill="#F97316"/>
<path d="M28.3102 3.33827L25.5206 10.2062H23.305L20.4859 3.33827H22.5763L24.4238 8.25709L26.2861 3.33827H28.3102Z" fill="#F97316"/>
<path d="M35.9083 3.33827C35.9083 6.02036 35.9083 7.5241 35.9083 10.2062H34.0313V9.44781C33.5063 10.0715 32.7948 10.3834 31.8968 10.3834C30.9154 10.3834 30.0934 10.0384 29.431 9.34858C28.7734 8.65872 28.4447 7.79875 28.4447 6.76869C28.4447 5.73862 28.7734 4.87865 29.431 4.18879C30.0934 3.49893 30.9154 3.15399 31.8968 3.15399C32.7899 3.15399 33.5014 3.46821 34.0313 4.09665V3.33827H35.9083ZM32.2501 4.87629C31.7005 4.87629 31.2564 5.0582 30.9178 5.42204C30.5792 5.78114 30.4099 6.23003 30.4099 6.76869C30.4099 7.30735 30.5792 7.75859 30.9178 8.12242C31.2564 8.48153 31.7005 8.66108 32.2501 8.66108C32.7948 8.66108 33.2364 8.48389 33.575 8.12951C33.9185 7.7704 34.0902 7.3168 34.0902 6.76869C34.0902 6.22058 33.9185 5.76933 33.575 5.41495C33.2364 5.05584 32.7948 4.87629 32.2501 4.87629Z" fill="#F97316"/>
<path d="M41.5282 3.15399C42.3428 3.15399 43.0077 3.40206 43.5229 3.8982C44.0431 4.39433 44.3032 5.0393 44.3032 5.83312V10.2062H42.3821C42.3821 8.7309 42.3821 7.90376 42.3821 6.42848C42.3821 5.93707 42.2594 5.55906 42.014 5.29446C41.7736 5.02513 41.4325 4.89046 40.9909 4.89046C40.5542 4.89046 40.1935 5.02513 39.9089 5.29446C39.6243 5.56379 39.482 5.94652 39.482 6.44265V10.2062H37.5609V3.33827H39.4305V4.14626C39.8917 3.48475 40.591 3.15399 41.5282 3.15399Z" fill="#F97316"/>
<path d="M52.884 3.15399C53.4778 3.15399 54.02 3.2674 54.5107 3.4942C55.0014 3.71628 55.4111 4.03522 55.7399 4.45103L54.3561 5.56379C53.9096 5.10546 53.4017 4.87629 52.8325 4.87629C52.3271 4.87629 51.9026 5.05112 51.5591 5.40077C51.2156 5.75043 51.0439 6.2064 51.0439 6.76869C51.0439 7.33097 51.2132 7.78694 51.5517 8.1366C51.8952 8.48625 52.3197 8.66108 52.8251 8.66108C53.4189 8.66108 53.9366 8.42955 54.3782 7.96649L55.7473 9.09343C55.0505 9.95339 54.0961 10.3834 52.884 10.3834C51.7554 10.3834 50.8402 10.0455 50.1385 9.36984C49.4368 8.68943 49.0859 7.82238 49.0859 6.76869C49.0859 5.71972 49.4368 4.85503 50.1385 4.17461C50.8402 3.4942 51.7554 3.15399 52.884 3.15399Z" fill="#F97316"/>
<path d="M56.6394 9.27062H64V11H56.6394V9.27062Z" fill="#E5E7EB"/>
</svg>
