<svg width="128" height="128" viewBox="0 0 128 128" fill="none" xmlns="http://www.w3.org/2000/svg">
<path d="M58.0387 80.6906V96.7636H6V30.1888H58.0387V46.2619H24.0756V55.0593H55.6603V71.1323H24.0756V80.6906H58.0387Z" fill="#080808"/>
<path d="M122.096 35.9903L114.295 50.7795C109.919 48.3067 103.307 45.2157 95.078 45.2157C90.2261 45.2157 86.5159 46.5472 86.5159 49.5431C86.5159 53.2998 93.318 53.6802 100.12 55.0117L102.261 55.4397C116.008 58.1027 123 64.7126 123 74.9366C123 91.7705 108.777 98 94.6023 98C82.6629 98 71.8176 95.1468 64.2068 89.7257L73.0543 74.9841C78.3343 78.1702 84.7083 81.8318 94.8402 81.8318C99.692 81.8318 103.26 80.5003 103.26 77.2192C103.26 73.7478 99.1212 73.1296 90.8445 71.703L88.3234 71.275C73.0067 68.6595 66.6327 62.0496 66.9657 50.2564C67.2987 37.5121 78.0013 29 93.9839 29C102.689 29 110.537 29.9035 122.096 35.9903Z" fill="#080808"/>
</svg>
