<svg width="128" height="128" viewBox="0 0 128 128" fill="none" xmlns="http://www.w3.org/2000/svg">
<path d="M42.6834 128C54.4594 128 64.0168 118.443 64.0168 106.667V85.3333H42.6834C30.9074 85.3333 21.3501 94.8906 21.3501 106.667C21.3501 118.443 30.9074 128 42.6834 128Z" fill="#0ACF83"/>
<path d="M21.3501 64C21.3501 52.224 30.9074 42.6667 42.6834 42.6667H64.0168V85.3334H42.6834C30.9074 85.3334 21.3501 75.776 21.3501 64Z" fill="#A259FF"/>
<path d="M21.3503 21.3333C21.3503 9.55733 30.9077 0 42.6837 0H64.017V42.6667H42.6837C30.9077 42.6667 21.3503 33.1093 21.3503 21.3333Z" fill="#F24E1E"/>
<path d="M64.0168 0H85.3502C97.1262 0 106.684 9.55733 106.684 21.3333C106.684 33.1093 97.1262 42.6667 85.3502 42.6667H64.0168V0Z" fill="#FF7262"/>
<path d="M106.684 64C106.684 75.776 97.1262 85.3334 85.3502 85.3334C73.5742 85.3334 64.0168 75.776 64.0168 64C64.0168 52.224 73.5742 42.6667 85.3502 42.6667C97.1262 42.6667 106.684 52.224 106.684 64Z" fill="#1ABCFE"/>
</svg>
