<svg width="128" height="128" viewBox="0 0 128 128" fill="none" xmlns="http://www.w3.org/2000/svg">
<path d="M42.8129 102.49C42.8129 103.006 42.2194 103.419 41.471 103.419C40.6194 103.497 40.0258 103.084 40.0258 102.49C40.0258 101.974 40.6194 101.561 41.3677 101.561C42.1419 101.484 42.8129 101.897 42.8129 102.49ZM34.7871 101.329C34.6065 101.845 35.1226 102.439 35.8968 102.594C36.5677 102.852 37.3419 102.594 37.4968 102.077C37.6516 101.561 37.1613 100.968 36.3871 100.735C35.7161 100.555 34.9677 100.813 34.7871 101.329ZM46.1935 100.89C45.4452 101.071 44.929 101.561 45.0064 102.155C45.0839 102.671 45.7548 103.006 46.529 102.826C47.2774 102.645 47.7935 102.155 47.7161 101.639C47.6387 101.148 46.9419 100.813 46.1935 100.89ZM63.1742 2C27.3806 2 0 29.1742 0 64.9677C0 93.5871 18.0129 118.077 43.7419 126.697C47.0452 127.29 48.2065 125.252 48.2065 123.574C48.2065 121.974 48.129 113.148 48.129 107.729C48.129 107.729 30.0645 111.6 26.271 100.039C26.271 100.039 23.329 92.529 19.0968 90.5935C19.0968 90.5935 13.1871 86.5419 19.5097 86.6194C19.5097 86.6194 25.9355 87.1355 29.471 93.2774C35.1226 103.239 44.5935 100.374 48.2839 98.671C48.8774 94.5419 50.5548 91.6774 52.4129 89.9742C37.9871 88.3742 23.4323 86.2839 23.4323 61.4581C23.4323 54.3613 25.3935 50.8 29.5226 46.2581C28.8516 44.5806 26.6581 37.6645 30.1935 28.7355C35.5871 27.0581 48 35.7032 48 35.7032C53.1613 34.2581 58.7097 33.5097 64.2065 33.5097C69.7032 33.5097 75.2516 34.2581 80.4129 35.7032C80.4129 35.7032 92.8258 27.0323 98.2194 28.7355C101.755 37.6903 99.5613 44.5806 98.8903 46.2581C103.019 50.8258 105.548 54.3871 105.548 61.4581C105.548 86.3613 90.3484 88.3484 75.9226 89.9742C78.2968 92.0129 80.3097 95.8839 80.3097 101.948C80.3097 110.645 80.2323 121.406 80.2323 123.523C80.2323 125.2 81.4194 127.239 84.6968 126.645C110.503 118.077 128 93.5871 128 64.9677C128 29.1742 98.9677 2 63.1742 2ZM25.0839 91.0064C24.7484 91.2645 24.8258 91.8581 25.2645 92.3484C25.6774 92.7613 26.271 92.9419 26.6065 92.6065C26.9419 92.3484 26.8645 91.7548 26.4258 91.2645C26.0129 90.8516 25.4194 90.671 25.0839 91.0064ZM22.2968 88.9161C22.1161 89.2516 22.3742 89.6645 22.8903 89.9226C23.3032 90.1806 23.8194 90.1032 24 89.7419C24.1806 89.4064 23.9226 88.9935 23.4065 88.7355C22.8903 88.5806 22.4774 88.6581 22.2968 88.9161ZM30.6581 98.1032C30.2452 98.4387 30.4 99.2129 30.9935 99.7032C31.5871 100.297 32.3355 100.374 32.671 99.9613C33.0065 99.6258 32.8516 98.8516 32.3355 98.3613C31.7677 97.7677 30.9935 97.6903 30.6581 98.1032ZM27.7161 94.3097C27.3032 94.5677 27.3032 95.2387 27.7161 95.8323C28.129 96.4258 28.8258 96.6839 29.1613 96.4258C29.5742 96.0903 29.5742 95.4194 29.1613 94.8258C28.8 94.2323 28.129 93.9742 27.7161 94.3097Z" fill="#1F2328"/>
</svg>
