<svg width="128" height="65" viewBox="0 0 128 65" fill="none" xmlns="http://www.w3.org/2000/svg">
<path d="M54.7764 22.1736C54.7764 28.2356 50.0341 32.7026 44.2142 32.7026C38.3943 32.7026 33.652 28.2356 33.652 22.1736C33.652 16.0688 38.3943 11.6446 44.2142 11.6446C50.0341 11.6446 54.7764 16.0688 54.7764 22.1736ZM50.1528 22.1736C50.1528 18.3854 47.4042 15.7935 44.2142 15.7935C41.0242 15.7935 38.2756 18.3854 38.2756 22.1736C38.2756 25.9237 41.0242 28.5536 44.2142 28.5536C47.4042 28.5536 50.1528 25.919 50.1528 22.1736Z" fill="#EA4335"/>
<path d="M77.5624 22.1736C77.5624 28.2356 72.8201 32.7026 67.0002 32.7026C61.1803 32.7026 56.4379 28.2356 56.4379 22.1736C56.4379 16.0736 61.1803 11.6446 67.0002 11.6446C72.8201 11.6446 77.5624 16.0688 77.5624 22.1736ZM72.9387 22.1736C72.9387 18.3854 70.1902 15.7935 67.0002 15.7935C63.8101 15.7935 61.0616 18.3854 61.0616 22.1736C61.0616 25.9237 63.8101 28.5536 67.0002 28.5536C70.1902 28.5536 72.9387 25.919 72.9387 22.1736Z" fill="#FBBC05"/>
<path d="M99.3989 12.2807V31.1835C99.3989 38.9592 94.8132 42.135 89.3921 42.135C84.289 42.135 81.2176 38.7219 80.0593 35.9306L84.0849 34.2549C84.8017 35.9685 86.5581 37.9908 89.3873 37.9908C92.8574 37.9908 95.0079 35.8499 95.0079 31.8196V30.3053H94.8465C93.8116 31.5823 91.8178 32.6978 89.3019 32.6978C84.0374 32.6978 79.2144 28.1121 79.2144 22.2115C79.2144 16.2682 84.0374 11.6446 89.3019 11.6446C91.8131 11.6446 93.8069 12.7601 94.8465 13.9991H95.0079V12.2854H99.3989V12.2807ZM95.3354 22.2115C95.3354 18.5041 92.8622 15.7935 89.7149 15.7935C86.5248 15.7935 83.8522 18.5041 83.8522 22.2115C83.8522 25.881 86.5248 28.5536 89.7149 28.5536C92.8622 28.5536 95.3354 25.881 95.3354 22.2115Z" fill="#4285F4"/>
<path d="M106.638 1.20102V32.057H102.128V1.20102H106.638Z" fill="#34A853"/>
<path d="M124.212 25.6389L127.801 28.0314C126.642 29.7451 123.851 32.6978 119.028 32.6978C113.047 32.6978 108.58 28.0742 108.58 22.1688C108.58 15.9074 113.085 11.6398 118.511 11.6398C123.974 11.6398 126.647 15.9881 127.521 18.3379L128 19.5342L113.925 25.3636C115.003 27.476 116.678 28.5536 119.028 28.5536C121.383 28.5536 123.016 27.3953 124.212 25.6389ZM113.165 21.8507L122.574 17.9439C122.057 16.629 120.5 15.7128 118.667 15.7128C116.317 15.7128 113.047 17.7873 113.165 21.8507Z" fill="#EA4335"/>
<path d="M16.5815 19.4345V14.9675H31.6345C31.7816 15.746 31.8576 16.667 31.8576 17.6638C31.8576 21.0153 30.9414 25.1595 27.9887 28.1121C25.1167 31.1028 21.4473 32.6978 16.5863 32.6978C7.57632 32.6978 0 25.3588 0 16.3489C0 7.33897 7.57632 0 16.5863 0C21.5707 0 25.1215 1.95579 27.7894 4.50497L24.6373 7.65703C22.7242 5.86263 20.1323 4.46699 16.5815 4.46699C10.0021 4.46699 4.85625 9.76947 4.85625 16.3489C4.85625 22.9283 10.0021 28.2308 16.5815 28.2308C20.8491 28.2308 23.2796 26.5171 24.8367 24.9601C26.0994 23.6974 26.9301 21.8935 27.2577 19.4298L16.5815 19.4345Z" fill="#4285F4"/>
<path d="M28 59.1527C28 56.3211 30.3147 54.0468 33.209 54.0468C34.0792 54.0407 34.9372 54.2512 35.7058 54.6594C36.4744 55.0675 37.1293 55.6605 37.6116 56.3849L35.4416 57.6437C35.1905 57.2849 34.8563 56.9922 34.4675 56.7906C34.0787 56.589 33.6469 56.4845 33.209 56.486C31.7208 56.486 30.5012 57.7265 30.5012 59.1527C30.5012 60.579 31.7208 61.8194 33.209 61.8194C33.6675 61.8224 34.1192 61.7078 34.5209 61.4866C34.9226 61.2653 35.2609 60.9448 35.5035 60.5556L37.652 61.8371C37.1756 62.5827 36.5182 63.1955 35.7411 63.6185C34.964 64.0415 34.0925 64.2608 33.2077 64.2561C30.3147 64.2587 28 61.9408 28 59.1527Z" fill="#2668B8"/>
<path d="M38.095 59.1527C38.095 56.3413 40.4098 54.0676 43.304 54.0676C46.2184 54.0676 48.5338 56.3426 48.5338 59.1527C48.5338 61.9433 46.2184 64.2587 43.304 64.2587C40.4098 64.2587 38.095 61.9408 38.095 59.1527ZM46.0327 59.1527C46.0327 57.7473 44.813 56.5069 43.304 56.5069C41.8158 56.5069 40.5962 57.7473 40.5962 59.1527C40.5962 60.579 41.8158 61.8195 43.304 61.8195C44.8156 61.8195 46.0327 60.579 46.0327 59.1527Z" fill="#0056D2"/>
<path d="M90.6231 59.2355C90.6231 56.1555 93.1243 54.0676 95.3986 54.0676C96.9487 54.0676 97.8378 54.5428 98.4369 55.4528L98.6751 54.2521H101V64.0723H98.6751L98.375 63.0612C97.6931 63.8056 96.8451 64.2618 95.3986 64.2618C93.166 64.2587 90.6231 62.2947 90.6231 59.2355ZM98.5608 59.2147C98.558 58.494 98.2691 57.8039 97.7575 57.2963C97.246 56.7887 96.5537 56.505 95.8331 56.5078C95.1124 56.5106 94.4223 56.7995 93.9147 57.3111C93.4071 57.8226 93.1234 58.5148 93.1262 59.2355C93.1262 60.5998 94.3458 61.8195 95.8346 61.8195C97.3418 61.8195 98.5608 60.5998 98.5608 59.2147Z" fill="#0056D2"/>
<path d="M87.7662 55.3902V54.2528H85.224V64.0723H87.7662V58.7812C87.7662 57.1893 88.5523 56.3628 89.9147 56.3628C90.0051 56.3628 90.091 56.3691 90.1751 56.3773L90.6465 54.007C89.3214 54.0139 88.3608 54.4683 87.7662 55.3902Z" fill="#0056D2"/>
<path d="M62.2194 55.3909V54.2534L59.6772 54.2591L59.6987 64.0773L62.2409 64.0716L62.227 58.7811C62.2232 57.19 63.0074 56.3615 64.3711 56.3583C64.4581 56.3586 64.545 56.3635 64.6315 56.3729L65.1004 54C63.7733 54.0107 62.8115 54.467 62.2194 55.3909Z" fill="#0056D2"/>
<path d="M49.4146 60.2687V54.2534H51.9562V59.9591C51.9562 61.2198 52.6589 61.9642 53.8786 61.9642C55.2429 61.9642 56.0271 61.137 56.0271 59.5452V54.2534H58.57V64.0723H56.029V62.9348C55.4299 63.865 54.458 64.32 53.1146 64.32C50.8409 64.3206 49.4146 62.6669 49.4146 60.2687Z" fill="#0056D2"/>
<path d="M74.1697 59.1641C74.1754 56.4146 76.1432 54.0619 79.2643 54.0676C82.1585 54.0733 84.2003 56.3918 84.1933 59.123C84.1938 59.393 84.1727 59.6627 84.1301 59.9293L76.6475 59.9154C76.9344 61.094 77.9044 61.9433 79.3723 61.9464C80.2608 61.9464 81.2125 61.6191 81.7926 60.876L83.5266 62.2662C82.635 63.5256 81.0621 64.2669 79.3888 64.2637C76.4345 64.2536 74.1646 62.0374 74.1697 59.1641ZM81.634 58.1442C81.4912 57.152 80.4593 56.3849 79.2396 56.383C78.0611 56.383 77.1094 57.0819 76.7353 58.1353L81.634 58.1442Z" fill="#0056D2"/>
<path d="M65.1155 61.9319L67.3753 60.749C67.7487 61.5585 68.4957 62.0356 69.5542 62.0356C70.5292 62.0356 70.9027 61.7246 70.9027 61.2886C70.9027 59.7088 65.5496 60.6662 65.5496 57.0547C65.5496 55.0629 67.2925 54.0051 69.4499 54.0051C71.0891 54.0051 72.5413 54.7311 73.3299 56.0797L71.0904 57.2645C70.7586 56.6004 70.1362 56.2269 69.3475 56.2269C68.5804 56.2269 68.2063 56.4967 68.2063 56.953C68.2063 58.4886 73.5593 57.5135 73.5593 61.1869C73.5593 63.0959 72.0035 64.2574 69.4929 64.2574C67.3557 64.2555 65.8618 63.5503 65.1155 61.9319Z" fill="#0056D2"/>
<path d="M28 59.1527C28 56.3211 30.3147 54.0468 33.209 54.0468C34.0792 54.0407 34.9372 54.2512 35.7058 54.6594C36.4744 55.0675 37.1293 55.6605 37.6116 56.3849L35.4416 57.6437C35.1905 57.2849 34.8563 56.9922 34.4675 56.7906C34.0787 56.589 33.6469 56.4845 33.209 56.486C31.7208 56.486 30.5012 57.7265 30.5012 59.1527C30.5012 60.579 31.7208 61.8194 33.209 61.8194C33.6675 61.8224 34.1192 61.7078 34.5209 61.4866C34.9226 61.2653 35.2609 60.9448 35.5035 60.5556L37.652 61.8371C37.1756 62.5827 36.5182 63.1955 35.7411 63.6185C34.964 64.0415 34.0925 64.2608 33.2077 64.2561C30.3147 64.2587 28 61.9408 28 59.1527Z" fill="#0056D2"/>
</svg>
