<svg width="128" height="85" viewBox="0 0 128 85" fill="none" xmlns="http://www.w3.org/2000/svg">
<path d="M54.7764 22.1736C54.7764 28.2356 50.0341 32.7026 44.2142 32.7026C38.3943 32.7026 33.652 28.2356 33.652 22.1736C33.652 16.0688 38.3943 11.6446 44.2142 11.6446C50.0341 11.6446 54.7764 16.0688 54.7764 22.1736ZM50.1528 22.1736C50.1528 18.3854 47.4042 15.7935 44.2142 15.7935C41.0242 15.7935 38.2756 18.3854 38.2756 22.1736C38.2756 25.9237 41.0242 28.5536 44.2142 28.5536C47.4042 28.5536 50.1528 25.919 50.1528 22.1736Z" fill="#EA4335"/>
<path d="M77.5624 22.1736C77.5624 28.2356 72.8201 32.7026 67.0002 32.7026C61.1803 32.7026 56.4379 28.2356 56.4379 22.1736C56.4379 16.0736 61.1803 11.6446 67.0002 11.6446C72.8201 11.6446 77.5624 16.0688 77.5624 22.1736ZM72.9387 22.1736C72.9387 18.3854 70.1902 15.7935 67.0002 15.7935C63.8101 15.7935 61.0616 18.3854 61.0616 22.1736C61.0616 25.9237 63.8101 28.5536 67.0002 28.5536C70.1902 28.5536 72.9387 25.919 72.9387 22.1736Z" fill="#FBBC05"/>
<path d="M99.3989 12.2807V31.1835C99.3989 38.9592 94.8132 42.135 89.3921 42.135C84.289 42.135 81.2176 38.7219 80.0593 35.9306L84.0849 34.2549C84.8017 35.9685 86.5581 37.9908 89.3873 37.9908C92.8574 37.9908 95.0079 35.8499 95.0079 31.8196V30.3053H94.8465C93.8116 31.5823 91.8178 32.6978 89.3019 32.6978C84.0374 32.6978 79.2144 28.1121 79.2144 22.2115C79.2144 16.2682 84.0374 11.6446 89.3019 11.6446C91.8131 11.6446 93.8069 12.7601 94.8465 13.9991H95.0079V12.2854H99.3989V12.2807ZM95.3354 22.2115C95.3354 18.5041 92.8622 15.7935 89.7149 15.7935C86.5248 15.7935 83.8522 18.5041 83.8522 22.2115C83.8522 25.881 86.5248 28.5536 89.7149 28.5536C92.8622 28.5536 95.3354 25.881 95.3354 22.2115Z" fill="#4285F4"/>
<path d="M106.638 1.20102V32.057H102.128V1.20102H106.638Z" fill="#34A853"/>
<path d="M124.212 25.6389L127.801 28.0314C126.642 29.7451 123.851 32.6978 119.028 32.6978C113.047 32.6978 108.58 28.0742 108.58 22.1688C108.58 15.9074 113.085 11.6398 118.511 11.6398C123.974 11.6398 126.647 15.9881 127.521 18.3379L128 19.5342L113.925 25.3636C115.003 27.476 116.678 28.5536 119.028 28.5536C121.383 28.5536 123.016 27.3953 124.212 25.6389ZM113.165 21.8507L122.574 17.9439C122.057 16.629 120.5 15.7128 118.667 15.7128C116.317 15.7128 113.047 17.7873 113.165 21.8507Z" fill="#EA4335"/>
<path d="M16.5815 19.4345V14.9675H31.6345C31.7816 15.746 31.8576 16.667 31.8576 17.6638C31.8576 21.0153 30.9414 25.1595 27.9887 28.1121C25.1167 31.1028 21.4473 32.6978 16.5863 32.6978C7.57632 32.6978 0 25.3588 0 16.3489C0 7.33897 7.57632 0 16.5863 0C21.5707 0 25.1215 1.95579 27.7894 4.50497L24.6373 7.65703C22.7242 5.86263 20.1323 4.46699 16.5815 4.46699C10.0021 4.46699 4.85625 9.76947 4.85625 16.3489C4.85625 22.9283 10.0021 28.2308 16.5815 28.2308C20.8491 28.2308 23.2796 26.5171 24.8367 24.9601C26.0994 23.6974 26.9301 21.8935 27.2577 19.4298L16.5815 19.4345Z" fill="#4285F4"/>
<path d="M0 75.0349C0 70.0698 4.05873 66.082 9.13352 66.082C10.6594 66.0713 12.1639 66.4404 13.5115 67.1561C14.8592 67.8718 16.0076 68.9116 16.8532 70.1817L13.0482 72.3889C12.6079 71.7598 12.0219 71.2466 11.3402 70.8931C10.6585 70.5396 9.90141 70.3563 9.13352 70.359C6.5241 70.359 4.3856 72.5341 4.3856 75.0349C4.3856 77.5357 6.5241 79.7108 9.13352 79.7108C9.93762 79.716 10.7296 79.5151 11.434 79.1271C12.1383 78.7392 12.7315 78.1772 13.1568 77.4947L16.9241 79.7418C16.0888 81.0491 14.9361 82.1237 13.5735 82.8653C12.2109 83.607 10.6827 83.9916 9.1313 83.9834C4.05873 83.9878 0 79.9236 0 75.0349Z" fill="#2668B8"/>
<path d="M17.7008 75.0349C17.7008 70.1053 21.7596 66.1186 26.8344 66.1186C31.9446 66.1186 36.0044 70.1075 36.0044 75.0349C36.0044 79.928 31.9446 83.9878 26.8344 83.9878C21.7596 83.9878 17.7008 79.9235 17.7008 75.0349ZM31.6188 75.0349C31.6188 72.5706 29.4803 70.3956 26.8344 70.3956C24.2249 70.3956 22.0864 72.5706 22.0864 75.0349C22.0864 77.5357 24.2249 79.7108 26.8344 79.7108C29.4848 79.7108 31.6188 77.5357 31.6188 75.0349Z" fill="#0056D2"/>
<path d="M109.805 75.1801C109.805 69.7795 114.191 66.1186 118.178 66.1186C120.896 66.1186 122.455 66.9518 123.506 68.5474L123.924 66.4421H128V83.6609H123.924L123.397 81.8881C122.202 83.1934 120.715 83.9934 118.178 83.9934C114.264 83.9878 109.805 80.544 109.805 75.1801ZM123.723 75.1435C123.718 73.8799 123.212 72.6699 122.315 71.7798C121.418 70.8897 120.204 70.3924 118.94 70.3972C117.677 70.4021 116.467 70.9087 115.576 71.8057C114.686 72.7026 114.189 73.9164 114.194 75.1801C114.194 77.5723 116.332 79.7108 118.943 79.7108C121.586 79.7108 123.723 77.5723 123.723 75.1435Z" fill="#0056D2"/>
<path d="M104.796 68.4377V66.4432H100.338V83.6609H104.796V74.3834C104.796 71.5922 106.174 70.1429 108.563 70.1429C108.721 70.1429 108.872 70.154 109.019 70.1684L109.846 66.0122C107.522 66.0244 105.838 66.8211 104.796 68.4377Z" fill="#0056D2"/>
<path d="M60.0011 68.4388V66.4443L55.5435 66.4543L55.5812 83.6698L60.0388 83.6598L60.0144 74.3834C60.0078 71.5934 61.3828 70.1407 63.774 70.1352C63.9265 70.1356 64.0789 70.1441 64.2305 70.1607L65.0526 66C62.7258 66.0188 61.0393 66.8188 60.0011 68.4388Z" fill="#0056D2"/>
<path d="M37.549 76.9917V66.4443H42.0056V76.4488C42.0056 78.6593 43.2377 79.9645 45.3762 79.9645C47.7684 79.9645 49.1435 78.5141 49.1435 75.723V66.4443H53.6022V83.6609H49.1468V81.6665C48.0964 83.2975 46.3923 84.0953 44.0366 84.0953C40.0499 84.0964 37.549 81.1967 37.549 76.9917Z" fill="#0056D2"/>
<path d="M80.9551 75.0548C80.9651 70.2338 84.4155 66.1086 89.8881 66.1186C94.9629 66.1285 98.5429 70.1939 98.5307 74.9828C98.5316 75.4563 98.4946 75.9291 98.4199 76.3967L85.2997 76.3723C85.8028 78.4388 87.5036 79.928 90.0776 79.9335C91.6355 79.9335 93.3042 79.3596 94.3213 78.0565L97.3618 80.4942C95.7983 82.7025 93.0404 84.0022 90.1064 83.9967C84.9263 83.9789 80.9463 80.0931 80.9551 75.0548ZM94.0432 73.2665C93.7928 71.5269 91.9834 70.1817 89.8449 70.1784C87.7784 70.1784 86.1097 71.4039 85.4537 73.251L94.0432 73.2665Z" fill="#0056D2"/>
<path d="M65.0792 79.908L69.0416 77.8338C69.6964 79.2532 71.0061 80.0898 72.862 80.0898C74.5717 80.0898 75.2266 79.5446 75.2266 78.7801C75.2266 76.01 65.8404 77.6886 65.8404 71.3562C65.8404 67.8637 68.8964 66.0089 72.6792 66.0089C75.5535 66.0089 78.0997 67.282 79.4825 69.6465L75.5557 71.7241C74.974 70.5596 73.8826 69.9047 72.4997 69.9047C71.1546 69.9047 70.4986 70.3778 70.4986 71.1778C70.4986 73.8704 79.8848 72.1607 79.8848 78.6017C79.8848 81.949 77.1568 83.9856 72.7546 83.9856C69.0072 83.9823 66.3878 82.7457 65.0792 79.908Z" fill="#0056D2"/>
<path d="M0 75.0349C0 70.0698 4.05873 66.082 9.13352 66.082C10.6594 66.0713 12.1639 66.4404 13.5115 67.1561C14.8592 67.8718 16.0076 68.9116 16.8532 70.1817L13.0482 72.3889C12.6079 71.7598 12.0219 71.2465 11.3402 70.8931C10.6585 70.5396 9.90141 70.3563 9.13352 70.359C6.5241 70.359 4.3856 72.5341 4.3856 75.0349C4.3856 77.5357 6.5241 79.7108 9.13352 79.7108C9.93762 79.716 10.7296 79.5151 11.434 79.1271C12.1383 78.7392 12.7315 78.1772 13.1568 77.4947L16.9241 79.7418C16.0888 81.0491 14.9361 82.1237 13.5735 82.8653C12.2109 83.607 10.6827 83.9916 9.1313 83.9834C4.05873 83.9878 0 79.9235 0 75.0349Z" fill="#0056D2"/>
<line x1="16" y1="53.75" x2="112" y2="53.75" stroke="url(#paint0_linear_228_22)" stroke-width="0.5"/>
<defs>
<linearGradient id="paint0_linear_228_22" x1="16" y1="54.5" x2="112" y2="54.5" gradientUnits="userSpaceOnUse">
<stop stop-color="#C8C8C8" stop-opacity="0.5"/>
<stop offset="0.495" stop-color="#A2A2A2"/>
<stop offset="1" stop-color="#C8C8C8" stop-opacity="0.5"/>
</linearGradient>
</defs>
</svg>
