<svg width="128" height="43" viewBox="0 0 128 43" fill="none" xmlns="http://www.w3.org/2000/svg">
<path d="M54.7764 22.1736C54.7764 28.2356 50.0341 32.7026 44.2142 32.7026C38.3943 32.7026 33.652 28.2356 33.652 22.1736C33.652 16.0688 38.3943 11.6446 44.2142 11.6446C50.0341 11.6446 54.7764 16.0688 54.7764 22.1736ZM50.1528 22.1736C50.1528 18.3854 47.4042 15.7935 44.2142 15.7935C41.0242 15.7935 38.2756 18.3854 38.2756 22.1736C38.2756 25.9237 41.0242 28.5536 44.2142 28.5536C47.4042 28.5536 50.1528 25.919 50.1528 22.1736Z" fill="#EA4335"/>
<path d="M77.5624 22.1736C77.5624 28.2356 72.8201 32.7026 67.0002 32.7026C61.1803 32.7026 56.4379 28.2356 56.4379 22.1736C56.4379 16.0736 61.1803 11.6446 67.0002 11.6446C72.8201 11.6446 77.5624 16.0688 77.5624 22.1736ZM72.9387 22.1736C72.9387 18.3854 70.1902 15.7935 67.0002 15.7935C63.8101 15.7935 61.0616 18.3854 61.0616 22.1736C61.0616 25.9237 63.8101 28.5536 67.0002 28.5536C70.1902 28.5536 72.9387 25.919 72.9387 22.1736Z" fill="#FBBC05"/>
<path d="M99.3989 12.2807V31.1835C99.3989 38.9592 94.8132 42.135 89.3921 42.135C84.289 42.135 81.2176 38.7219 80.0593 35.9306L84.0849 34.2549C84.8017 35.9685 86.5581 37.9908 89.3873 37.9908C92.8574 37.9908 95.0079 35.8499 95.0079 31.8196V30.3053H94.8465C93.8116 31.5823 91.8178 32.6978 89.3019 32.6978C84.0374 32.6978 79.2144 28.1121 79.2144 22.2115C79.2144 16.2682 84.0374 11.6446 89.3019 11.6446C91.8131 11.6446 93.8069 12.7601 94.8465 13.9991H95.0079V12.2854H99.3989V12.2807ZM95.3354 22.2115C95.3354 18.5041 92.8622 15.7935 89.7149 15.7935C86.5248 15.7935 83.8522 18.5041 83.8522 22.2115C83.8522 25.881 86.5248 28.5536 89.7149 28.5536C92.8622 28.5536 95.3354 25.881 95.3354 22.2115Z" fill="#4285F4"/>
<path d="M106.638 1.20102V32.057H102.128V1.20102H106.638Z" fill="#34A853"/>
<path d="M124.212 25.6389L127.801 28.0314C126.642 29.7451 123.851 32.6978 119.028 32.6978C113.047 32.6978 108.58 28.0742 108.58 22.1688C108.58 15.9074 113.085 11.6398 118.511 11.6398C123.974 11.6398 126.647 15.9881 127.521 18.3379L128 19.5342L113.925 25.3636C115.003 27.476 116.678 28.5536 119.028 28.5536C121.383 28.5536 123.016 27.3953 124.212 25.6389ZM113.165 21.8507L122.574 17.9439C122.057 16.629 120.5 15.7128 118.667 15.7128C116.317 15.7128 113.047 17.7873 113.165 21.8507Z" fill="#EA4335"/>
<path d="M16.5815 19.4345V14.9675H31.6345C31.7816 15.746 31.8576 16.667 31.8576 17.6638C31.8576 21.0153 30.9414 25.1595 27.9887 28.1121C25.1167 31.1028 21.4473 32.6978 16.5863 32.6978C7.57632 32.6978 0 25.3588 0 16.3489C0 7.33897 7.57632 0 16.5863 0C21.5707 0 25.1215 1.95579 27.7894 4.50497L24.6373 7.65703C22.7242 5.86263 20.1323 4.46699 16.5815 4.46699C10.0021 4.46699 4.85625 9.76947 4.85625 16.3489C4.85625 22.9283 10.0021 28.2308 16.5815 28.2308C20.8491 28.2308 23.2796 26.5171 24.8367 24.9601C26.0994 23.6974 26.9301 21.8935 27.2577 19.4298L16.5815 19.4345Z" fill="#4285F4"/>
</svg>
