<svg width="128" height="128" viewBox="0 0 128 128" fill="none" xmlns="http://www.w3.org/2000/svg">
<path d="M65.343 54.5139C65.3357 54.7361 65.2423 54.9467 65.0826 55.1012C64.9228 55.2557 64.7092 55.3421 64.4869 55.342H55.6661C55.0881 55.342 54.6053 54.8733 54.6053 54.303C54.6053 51.7299 53.7148 50.4769 51.8932 50.4769C50.0715 50.4769 48.8967 51.5956 48.8623 53.55C48.8232 55.7294 50.0559 57.7104 53.5648 61.1131C58.1846 65.4469 60.0359 69.2855 59.9468 74.3599C59.8015 82.5651 54.2225 87.8691 45.733 87.8691C41.3976 87.8691 38.0855 86.7099 35.8827 84.4227C33.647 82.0996 32.6221 78.6906 32.8362 74.2912C32.8435 74.0687 32.9371 73.8579 33.0972 73.7033C33.2573 73.5488 33.4713 73.4626 33.6939 73.4631H42.8177C42.9448 73.4652 43.0699 73.4954 43.1839 73.5516C43.2979 73.6077 43.398 73.6885 43.477 73.7881C43.546 73.8704 43.5964 73.9666 43.625 74.0701C43.6536 74.1736 43.6596 74.282 43.6426 74.388C43.5411 75.9753 43.8176 77.1611 44.4425 77.8173C44.8425 78.2422 45.4002 78.4578 46.0954 78.4578C47.7812 78.4578 48.7685 77.2673 48.806 75.1926C48.8373 73.3991 48.2702 71.8274 45.1799 68.6481C41.1882 64.7486 37.609 60.7194 37.7199 54.3843C37.7855 50.7097 39.2447 47.3492 41.8303 44.9214C44.5644 42.3561 48.303 41 52.6431 41C56.991 41.0312 60.2859 42.2717 62.4372 44.687C64.4744 46.9758 65.454 50.2817 65.3462 54.5139H65.343Z" fill="#0FE247"/>
<path d="M92.6834 86.3256L92.7412 42.6857C92.7428 42.5765 92.7227 42.4679 92.6818 42.3666C92.6409 42.2652 92.5802 42.173 92.5032 42.0954C92.4262 42.0179 92.3345 41.9564 92.2334 41.9148C92.1324 41.8732 92.024 41.8522 91.9147 41.853H78.2633C77.804 41.853 77.6024 42.2483 77.4712 42.5092L57.7049 86.0584V86.0662L57.6971 86.0772C57.4784 86.6131 57.894 87.1864 58.4736 87.1864H68.0161C68.5317 87.1864 68.8738 87.0302 69.041 86.7052L70.9361 82.1511C71.1689 81.5434 71.2126 81.4871 71.875 81.4871H80.9926C81.6269 81.4871 81.6394 81.4996 81.6301 82.1199L81.4254 86.3537C81.4237 86.4629 81.4439 86.5713 81.4846 86.6725C81.5254 86.7738 81.586 86.8659 81.6628 86.9435C81.7396 87.021 81.8312 87.0825 81.9321 87.1242C82.0329 87.1659 82.1411 87.1871 82.2503 87.1864H91.8913C92.0106 87.1879 92.1288 87.1632 92.2376 87.1141C92.3464 87.0649 92.4431 86.9926 92.5209 86.9021C92.588 86.8234 92.6373 86.7312 92.6653 86.6317C92.6934 86.5321 92.6996 86.4277 92.6834 86.3256ZM75.7949 71.7555C75.7229 71.7559 75.651 71.7533 75.5793 71.7477C75.5458 71.745 75.5134 71.7349 75.4843 71.7182C75.4551 71.7016 75.43 71.6788 75.4107 71.6514C75.3913 71.624 75.3782 71.5927 75.3722 71.5596C75.3663 71.5266 75.3676 71.4927 75.3762 71.4603C75.3949 71.3978 75.4215 71.3118 75.4605 71.2072L82.2972 54.2905C82.3586 54.1236 82.4296 53.9604 82.5096 53.8015C82.6206 53.5734 82.7549 53.5578 82.7971 53.7265C82.833 53.8672 82.0128 71.0962 82.0128 71.0962C81.9488 71.7415 81.9191 71.768 81.2832 71.8212L75.8011 71.7587H75.7886L75.7949 71.7555Z" fill="#0FE247"/>
<path d="M112.131 41.853H104.883C104.501 41.853 104.071 42.0561 103.971 42.5123L93.8847 86.3037C93.8627 86.4025 93.8637 86.5049 93.8875 86.6033C93.9113 86.7016 93.9574 86.7931 94.0222 86.8708C94.1063 86.9698 94.2109 87.0493 94.3288 87.1038C94.4467 87.1583 94.5751 87.1865 94.705 87.1864H103.763C104.251 87.1864 104.583 86.9474 104.674 86.5334L105.774 81.5699C105.852 81.1825 105.718 80.8825 105.371 80.7013C105.208 80.6175 105.046 80.5331 104.883 80.4482L103.313 79.6311L101.751 78.8156L101.146 78.5016C101.097 78.477 101.056 78.4391 101.027 78.3921C100.999 78.345 100.984 78.2909 100.985 78.236C100.987 78.1546 101.021 78.0773 101.08 78.0206C101.138 77.9639 101.216 77.9324 101.298 77.9329L106.261 77.9548C107.746 77.9626 109.231 77.8579 110.692 77.5892C120.972 75.691 127.799 67.4576 127.996 56.2543C128.165 46.693 122.828 41.8483 112.139 41.8483L112.131 41.853ZM109.664 67.9123H109.47C109.034 67.9123 108.958 67.8654 108.945 67.8498C108.938 67.8388 111.807 55.2373 111.809 55.2201C111.882 54.8561 111.879 54.6467 111.654 54.5233C111.367 54.3639 107.177 52.1549 107.177 52.1549C107.128 52.1292 107.087 52.0905 107.06 52.043C107.032 51.9955 107.018 51.9412 107.019 51.8861C107.021 51.8059 107.054 51.7296 107.112 51.6735C107.169 51.6175 107.247 51.5861 107.327 51.5862H113.953C116.015 51.6487 117.165 53.4937 117.11 56.6449C117.015 62.0989 114.421 67.7201 109.664 67.9123Z" fill="#0FE247"/>
<path d="M37.199 62.7433V62.7636L35.5195 70.0533C35.4289 70.4658 35.0165 70.7673 34.5415 70.7673H32.5121C32.4389 70.7676 32.3678 70.7915 32.3093 70.8354C32.2508 70.8793 32.208 70.9409 32.1871 71.011C30.3155 77.3602 27.7814 81.7237 24.435 84.3437C21.5885 86.5747 18.0795 87.6152 13.3911 87.6152C9.17909 87.6152 6.33882 86.2607 3.92974 83.586C0.745767 80.0521 -0.569694 74.2653 0.227082 67.2943C1.6644 54.2069 8.45261 41.0007 21.5229 41.0007C25.4989 40.9663 28.6204 42.1927 30.792 44.6409C33.0886 47.2312 34.2541 51.1307 34.2603 56.2363C34.2546 56.4601 34.1618 56.6729 34.0016 56.8293C33.8414 56.9857 33.6265 57.0734 33.4026 57.0737H23.8257C23.6579 57.0685 23.4984 56.9993 23.3801 56.8801C23.2619 56.761 23.1938 56.601 23.1898 56.4331C23.1117 52.9023 22.065 51.1838 19.984 51.1838C16.3126 51.1838 14.1472 56.1676 12.9989 58.9297C11.3944 62.7886 10.5773 66.9803 10.7383 71.1547C10.8148 73.0983 11.1273 75.8307 12.9724 76.9634C14.6081 77.9664 16.9422 77.3009 18.3561 76.1901C19.7684 75.0777 20.9057 73.1545 21.3838 71.4C21.451 71.1563 21.4557 70.9673 21.3916 70.8829C21.3244 70.7954 21.1385 70.7751 20.9964 70.7751H18.5373C18.4071 70.7755 18.2785 70.7475 18.1603 70.693C18.0421 70.6385 17.9372 70.5588 17.853 70.4595C17.7884 70.382 17.7425 70.2907 17.719 70.1926C17.6954 70.0945 17.6947 69.9923 17.7171 69.894L19.3981 62.5918C19.4809 62.2184 19.8199 61.9356 20.2371 61.8856V61.8668H36.3757C36.4132 61.8668 36.4522 61.8668 36.4882 61.8747C36.9069 61.9293 37.2021 62.3184 37.1943 62.7433H37.199Z" fill="#0FE247"/>
</svg>
