<svg width="128" height="128" viewBox="0 0 128 128" fill="none" xmlns="http://www.w3.org/2000/svg">
<path d="M79.6735 13.264V37.3538L106.744 106.882C106.744 106.882 115.008 123.862 91.3714 128H37.4481C37.4481 128 15.417 125.701 20.6986 108.257L49.147 37.3547V13.264H79.6735Z" fill="#009688"/>
<path d="M80.2448 10.4631H47.771C45.1408 10.4631 43.0015 8.12333 43.0015 5.23248C43.0015 2.33977 45.1399 0 47.771 0H80.2448C82.8871 0 85.0227 2.33977 85.0227 5.23248C85.0227 8.12333 82.8861 10.4631 80.2448 10.4631Z" fill="#004D40"/>
<path d="M71.6783 52.5975C75.1629 52.5975 78.0046 56.0024 78.0046 60.219C78.0046 64.417 75.1611 67.8302 71.6783 67.8302C68.1854 67.8302 65.3521 64.417 65.3521 60.219C65.3521 56.0005 68.1854 52.5975 71.6783 52.5975Z" fill="white"/>
<path d="M52.2575 72.3687C55.2026 72.3687 57.5902 69.491 57.5902 65.9413C57.5902 62.3915 55.2026 59.5139 52.2575 59.5139C49.3123 59.5139 46.9248 62.3915 46.9248 65.9413C46.9248 69.491 49.3123 72.3687 52.2575 72.3687Z" fill="white"/>
<path d="M82.0811 35.7571V24.2995C82.0811 24.2995 96.6105 21.096 103.872 37.9957C103.872 37.9957 92.5553 46.2406 82.0811 35.7571Z" fill="#004D40"/>
<path d="M46.4946 35.7571V24.2995C46.4946 24.2995 31.9633 21.096 24.7056 37.9957C24.7056 37.9957 36.0111 46.2406 46.4946 35.7571Z" fill="#004D40"/>
<path d="M90.8165 83.1723C67.1896 75.8431 47.3257 79.7777 37.6169 82.752L27.8264 106.318C23.4187 120.386 41.8232 122.235 41.8232 122.235H86.8606C106.602 118.9 99.7025 105.214 99.7025 105.214L90.8165 83.1723Z" fill="white"/>
<path d="M56.7663 91.9283C56.7663 94.4694 53.3513 96.5364 49.1449 96.5364C44.9385 96.5364 41.5337 94.4685 41.5337 91.9283C41.5337 89.377 44.9385 87.3174 49.1449 87.3174C53.3532 87.3193 56.7663 89.377 56.7663 91.9283Z" fill="#004D40"/>
<path d="M83.8698 91.9283C83.8698 94.4694 80.4548 96.5364 76.2586 96.5364C72.0402 96.5364 68.6372 94.4685 68.6372 91.9283C68.6372 89.377 72.0402 87.3174 76.2586 87.3174C80.4567 87.3193 83.8698 89.377 83.8698 91.9283Z" fill="#004D40"/>
</svg>
