<svg width="129" height="129" viewBox="0 0 129 129" fill="none" xmlns="http://www.w3.org/2000/svg">
<path fill-rule="evenodd" clip-rule="evenodd" d="M51.7507 59.5937C53.7725 54.2219 58.9156 50.6578 64.6602 50.6578C72.2789 50.6578 78.4514 56.8377 78.4514 64.4454C78.4514 72.0642 72.2789 78.244 64.6602 78.244C57.0451 78.244 50.8689 72.0642 50.8689 64.4454C50.8689 62.7925 51.1677 61.147 51.7507 59.5937Z" fill="#7492C1"/>
<path fill-rule="evenodd" clip-rule="evenodd" d="M121.331 66.9822L108.551 101.955C107.676 104.371 106.61 104.482 104.548 104.482H52.7659C52.7659 104.482 50.958 104.475 52.7659 101.955C68.8926 79.519 88.4468 63.6764 120.497 64.4881C120.497 64.4881 122.246 64.4696 121.331 66.9822Z" fill="#7492C1"/>
<path fill-rule="evenodd" clip-rule="evenodd" d="M7.91969 62.0248L20.6963 27.0449C21.5781 24.6356 22.6444 24.5176 24.6994 24.5176L76.7026 24.5323C76.7026 24.5323 78.4957 24.5397 76.7026 27.0449C60.587 49.5064 40.8003 65.3306 8.74983 64.5189C8.74983 64.5189 7.0047 64.5299 7.91969 62.0248Z" fill="#7492C1"/>
<path fill-rule="evenodd" clip-rule="evenodd" d="M4.80285 99.4497C0.799767 94.4283 -0.823602 86.8796 2.67033 76.966L5.30831 69.469C5.8027 68.0707 6.21223 66.9749 8.79855 66.9749H20.7192C36.7906 66.9749 44.7746 66.9749 48.8478 71.9668C52.9173 76.966 55.024 84.1826 51.2976 94.4504L48.5748 101.947C48.132 103.187 47.7963 104.475 44.6971 104.475H32.7174C19.653 104.475 8.79855 104.475 4.80285 99.4497Z" fill="#7492C1"/>
<path fill-rule="evenodd" clip-rule="evenodd" d="M124.705 29.4692C128.708 34.4905 130.331 42.0281 126.837 51.9528L124.199 59.4461C123.705 60.8408 123.295 61.9439 120.709 61.9439H108.788C92.7171 61.9439 84.7257 61.9439 80.6599 56.9447C76.583 51.9528 74.4874 44.7288 78.2101 34.4573L80.9329 26.9714C81.3757 25.7317 81.7114 24.4367 84.8106 24.4367H96.7903C109.855 24.4367 120.709 24.4367 124.705 29.4692Z" fill="#7492C1"/>
</svg>
