<svg width="720" height="321" viewBox="0 0 720 321" fill="none" xmlns="http://www.w3.org/2000/svg">
<path d="M182.925 45.9421C205.159 39.6314 227.265 32.8126 249.666 27.1616C269.643 22.1219 289.873 17.9889 310.127 14.1722C327.408 10.9158 344.832 8.29119 362.282 6.09679C379.998 3.869 397.823 2.51025 415.8 0.385452C437.354 0 458.708 -2.98023e-08 480.731 0.384938C493 1.84441 504.668 2.44884 516.183 4.11216C530.661 6.20353 545.069 8.89022 559.408 11.8088C580.957 16.1947 601.619 23.535 621.652 32.4525C630.801 36.5254 639.302 42.0551 647.624 46.9488C640.758 46.9673 634.365 46.961 627.683 46.6583C612.926 46.2507 598.458 46.1395 583.522 46.0216C572.313 46.0494 561.573 46.0838 550.832 46.1182C547.546 46.1182 544.259 46.1182 540.381 46.1182C552.058 69.0252 539.162 87.9367 532.219 108.346C515.261 93.1878 496.391 82.584 475.401 74.9995C475.045 74.9891 475.037 75.0512 474.953 74.7454C474.274 74.3105 473.679 74.1813 472.776 73.9102C469.585 71.286 466.871 68.5701 463.793 66.361C447.975 55.007 430.63 47.9437 410.83 47.9927C401.533 48.0157 392.237 47.9653 382.649 47.6596C373.252 47.2526 364.147 47.1342 354.57 47.0105C347.057 46.9933 340.015 46.9815 332.686 46.6712C320.833 46.2968 309.268 46.2208 297.702 46.1448C294.437 46.1448 291.172 46.1448 287.671 46.1448C289.825 49.9833 291.785 53.4777 294.248 57.8677C288.224 58.6763 283.299 59.305 278.383 60.0035C264.559 61.9678 250.741 63.9736 236.914 65.9218C235.611 66.1053 234.267 65.9978 232.62 65.7504C238.726 59.0101 245.154 52.5448 251.611 46.0505C248.762 46.0505 245.38 46.0505 241.529 46.0325C221.683 45.9904 202.304 45.9662 182.925 45.9421Z" fill="#1A93A0"/>
<path d="M705.824 100.96C712.847 112.617 717.649 125.065 719.631 138.826C720 146.021 720 153.042 720 160.531C718.348 167.353 716.906 173.77 715.001 180.047C710.523 194.809 702.377 207.646 692.278 219.006C679.771 233.075 665.826 245.77 649.703 255.68C638.475 262.581 626.802 268.758 614.744 275.615C607.944 275.97 601.729 275.97 595.159 275.97C596.462 282.228 592.671 285.135 588.522 288.034C583.822 289.557 579.507 291.104 575.196 292.649C575.196 289.025 575.01 285.859 575.253 282.726C575.462 280.024 574.382 279.488 572.065 279.7C571.164 277.863 570.357 275.287 569.404 275.231C562.989 274.856 556.533 274.771 550.11 275.05C530.497 275.9 514.772 288.508 520.014 310.839C516.898 311.566 513.781 312.293 509.373 313.321C514.309 302.455 514.322 290.654 522.303 281.575C522.191 281.085 521.896 279.789 521.332 278.271C521.063 278.048 521.002 278.082 521.002 278.082C522.831 276.393 524.815 274.842 526.449 272.982C528.445 270.709 530.148 268.177 532.428 265.382C548.193 264.981 563.505 264.955 579.289 264.942C587.278 263.961 594.952 263.615 602.287 261.859C632.372 254.656 657.794 240.073 674.941 213.458C683.003 200.946 686.726 186.986 684.832 172.147C683.054 158.214 674.728 148.385 662.339 141.417C663.582 140.769 664.436 140.282 665.324 139.868C677.253 134.302 687.508 126.581 695.442 116.019C699.1 111.148 702.375 105.989 705.824 100.96Z" fill="#1A93A0"/>
<path d="M382.94 47.9482C392.237 47.9653 401.533 48.0157 410.83 47.9927C430.63 47.9437 447.975 55.007 463.793 66.361C466.871 68.5701 469.585 71.286 472.874 74.2635C473.866 74.8564 474.452 74.9538 475.037 75.0512C475.037 75.0512 475.045 74.9891 475.018 74.9758C476.994 78.6434 479.095 82.2752 480.985 86.0142C487.288 98.4865 488.894 111.513 487.177 125.458C484.091 150.523 473.135 171.878 458.014 191.446C438.314 216.941 413.969 236.735 384.424 249.787C372.678 254.975 360.386 259.348 347.52 259.821C322.794 260.73 298.03 260.677 273.28 260.853C253.63 260.993 233.977 260.882 213.146 260.882C215.412 259.404 216.806 258.415 218.275 257.551C230.258 250.504 238.052 240.183 243.019 227.272C262.115 177.627 281.423 128.063 300.638 78.4631C301.719 75.6742 302.792 72.8733 303.672 70.0175C306.219 61.7563 304.973 54.2331 299.412 47.3652C310.844 47.0063 321.909 46.988 332.974 46.9696C340.015 46.9815 347.057 46.9933 354.86 47.304C364.727 47.7179 373.834 47.833 382.94 47.9482ZM398.948 179.442C401.115 175.701 403.435 172.041 405.421 168.206C413.76 152.099 419.962 135.348 419.77 116.872C419.581 98.6717 409.884 86.4629 393.217 83.1966C383.948 81.38 374.8 82.5169 365.769 84.7214C363.719 85.2219 360.758 86.244 360.157 87.7836C352.569 107.221 345.31 126.786 338.021 146.339C328.926 170.741 319.971 195.195 310.708 219.533C309.476 222.769 310.359 223.816 313.024 225.043C326.217 231.115 339.186 230.433 352.09 224.158C372.245 214.357 386.456 198.324 398.948 179.442Z" fill="#135DAA"/>
<path d="M705.896 100.566C702.375 105.989 699.1 111.148 695.442 116.019C687.508 126.581 677.253 134.302 665.324 139.868C664.436 140.282 663.582 140.769 662.339 141.417C674.728 148.385 683.054 158.214 684.832 172.147C686.726 186.986 683.003 200.946 674.941 213.458C657.794 240.073 632.372 254.656 602.287 261.859C594.952 263.615 587.278 263.961 579.005 264.672C545.097 264.323 511.944 264.256 478.792 264.189C474.513 264.189 470.233 264.189 465.953 264.189C484.234 253.26 493.055 236.01 500.29 217.249C517.087 173.693 534.414 130.342 551.392 86.8562C555.237 77.0069 557.747 66.8228 555.054 56.1601C554.328 53.288 552.991 50.5704 552.364 47.3994C563.202 46.9987 573.61 46.9805 584.484 46.981C599.291 46.9848 613.631 46.9698 627.971 46.9547C634.365 46.961 640.758 46.9673 647.624 46.9488C658.202 47.4694 668.443 45.7418 678.302 49.8972C687.807 53.904 697.079 57.7996 703.397 66.6938C709.728 75.6054 710.267 85.0244 707.458 95.0775C706.982 96.7814 706.466 98.4744 705.896 100.566ZM618.694 80.1902C618.488 80.4494 618.202 80.6775 618.089 80.9721C612.172 96.4452 606.241 111.913 600.447 127.432C600.128 128.285 600.969 129.57 602.123 130.722C621.347 133.004 639.627 108.36 638.867 91.6063C638.793 89.9702 638.424 88.2858 637.862 86.7442C635.338 79.824 626.011 76.3793 618.694 80.1902ZM573.188 231.862C576.483 231.719 579.871 232.023 583.059 231.363C603.117 227.209 622.154 203.016 621.803 182.399C621.617 171.465 615.693 163.505 605.586 161.369C602.25 160.664 598.66 161.16 594.292 161.042C589.029 160.094 586.475 162.15 584.536 167.397C578.261 184.374 571.261 201.085 564.508 217.885C559.892 229.369 560.05 229.685 573.188 231.862Z" fill="#135DAA"/>
<path d="M241.997 46.0505C245.38 46.0505 248.762 46.0505 251.611 46.0505C245.154 52.5448 238.726 59.0101 232.189 65.7933C218.758 84.3787 213.495 106.265 205.087 126.714C196.289 148.111 188.208 169.804 179.959 191.424C175.351 203.502 170.391 215.507 166.834 227.902C164.637 235.559 163.082 243.659 164.818 252.025C165.703 256.287 167.69 258.691 172.366 260.653C137.703 260.653 104.081 260.653 69.7881 260.653C72.2598 259.399 74.3308 258.426 76.3287 257.322C87.8122 250.973 95.0258 240.797 99.9518 229.159C108.5 208.962 116.417 188.497 124.512 168.111C136.533 137.838 148.522 107.553 160.432 77.2368C164.354 67.2527 165.681 57.2681 159.4 47.3715C185.3 47.0064 210.814 47.0222 236.329 46.9572C238.219 46.9524 240.108 46.3664 241.997 46.0505Z" fill="#135DAA"/>
<path d="M310.459 289.504C307.559 291.167 304.948 292.609 302.841 293.773C304.674 300.115 306.261 306.307 308.322 312.337C309.006 314.339 310.906 315.926 312.25 317.703C314.156 316.077 317.075 314.807 317.796 312.763C321.399 302.543 324.532 292.151 327.516 281.729C327.881 280.455 326.357 278.64 325.513 276.606C334.332 276.606 343.355 276.606 351.16 276.606C351.16 280.611 351.16 285.072 351.16 289.532C351.643 289.694 352.127 289.856 352.61 290.017C354.453 284.646 362.05 283.353 361.396 276.214C369.827 276.215 378.26 276.215 386.939 276.215C375.758 286.25 376.456 300.978 371.241 313.207C370.836 314.156 371.613 315.611 371.841 316.83C373.04 316.594 374.504 316.713 375.387 316.054C377.925 314.159 380.62 312.258 382.554 309.808C389.526 300.976 396.304 291.986 402.918 282.883C404.14 281.202 404.257 278.717 405.004 276.197C412.379 276.197 420.496 276.197 429.306 276.197C422.653 283.258 427.271 291.036 427.142 298.443C427.064 302.905 427.674 307.446 428.565 311.832C429.032 314.13 430.773 316.169 432.288 318.971C423.373 318.971 413.867 318.971 403.875 318.971C404.911 318.151 406.242 317.448 407.07 316.362C408.332 314.707 410.556 311.755 410.085 311.157C407.983 308.49 405.366 305.851 402.359 304.388C399.679 303.085 395.991 301.634 393.74 305.994C392.682 308.042 391.05 309.792 389.701 311.693C387.912 314.211 386.331 316.715 390.75 319.146C376.269 319.146 361.788 319.146 347.25 319.146C347.253 319.202 347.136 318.644 347.23 318.606C356.31 314.921 355.283 305.324 358.915 298.481C360.201 296.057 360.634 293.18 360.438 289.759C353.906 296.702 347.373 303.645 340.213 311.255C338.131 303.509 336.065 295.821 333.705 287.037C330.904 295.913 328.207 303.563 326.198 311.39C325.627 313.618 327.056 316.359 327.66 319.324C314.589 319.324 300.488 319.324 286.17 319.324C286.268 319.026 286.324 318.369 286.658 317.918C288.051 316.042 290.989 313.938 290.694 312.445C289.862 308.237 287.834 304.231 285.919 300.32C285.704 299.879 282.162 300.162 281.924 300.783C280.266 305.116 278.843 309.577 277.871 314.11C277.581 315.459 278.972 317.169 279.843 319.339C271.573 319.339 263.409 319.339 255.058 319.339C255.162 318.742 255.232 317.295 255.443 317.274C260.256 316.802 260.629 312.626 261.746 309.426C264.362 301.937 266.538 294.296 268.992 286.749C270.135 283.233 271.401 279.801 266.786 275.992C275.263 275.992 282.326 275.992 289.389 275.992C295.555 275.992 301.738 275.726 307.88 276.114C310.587 276.285 313.21 277.783 315.871 278.679C314.809 281.689 313.821 284.729 312.631 287.687C312.36 288.363 311.394 288.759 310.459 289.504ZM297.516 286.022C299.972 282.738 298.754 281.347 295.056 280.868C290.055 280.221 286.646 281.499 285.853 287.104C285.54 289.314 284.626 291.439 283.986 293.603C284.399 294.053 284.812 294.504 285.225 294.954C289.174 292.179 293.124 289.403 297.516 286.022ZM402.512 298.485C404.626 298.813 406.741 299.141 408.585 299.428C408.585 295.259 408.585 291.438 408.585 286.361C405.542 290.385 403.241 293.344 401.087 296.406C400.869 296.716 401.535 297.649 402.512 298.485Z" fill="#175FAB"/>
<path d="M81.3643 85.2622C104.885 75.2572 128.078 65.4539 151.685 55.475C154.451 66.3232 151.133 75.4895 146.366 83.7667C144.852 86.3952 139.163 86.7565 135.303 87.8729C116.437 93.3293 97.3753 98.1705 78.7009 104.213C53.8428 112.256 29.2813 121.216 4.5782 129.741C3.68236 130.05 2.63629 129.924 0.260986 130.11C26.9106 112.877 53.812 98.8827 81.3643 85.2622Z" fill="#1A93A0"/>
<path d="M222.741 320.596C216.898 319.304 210.969 318.98 206.183 316.474C196.899 311.611 196.766 305.181 199.575 297.399C204.334 284.217 215.643 276.094 230.69 275.052C234.979 274.755 239.576 274.248 243.585 275.397C257.615 279.42 261.599 289.773 254.715 302.523C249.122 312.883 239.375 317.798 228.118 319.956C226.489 320.268 224.821 320.376 222.741 320.596ZM221.987 313.963C226.469 314.684 229.813 312.949 232.912 309.696C238.116 304.233 239.578 297.435 239.782 290.46C239.866 287.601 238.238 283.061 236.157 282.172C233.398 280.994 229.38 282.421 226.011 283.196C224.746 283.486 223.591 284.944 222.714 286.115C217.925 292.511 215.817 299.801 216.965 307.663C217.284 309.848 219.718 311.725 221.987 313.963Z" fill="#155FAB"/>
<path d="M130.907 282.08C133.132 284.724 135.169 287.063 138.15 290.486C136.943 285.205 143.537 281.468 136.343 276.383C143.152 276.383 148.189 276.383 153.316 276.383C153.313 276.369 153.497 276.877 153.43 276.913C147.344 280.145 146.098 286.243 144.352 292.075C142.541 298.125 140.389 304.084 138.863 310.201C138.207 312.836 138.753 315.77 138.753 319.461C134.375 319.668 129.001 319.922 123.627 320.176C123.45 319.832 123.274 319.488 123.097 319.144C124.208 318.373 125.243 317.446 126.444 316.859C130.464 314.896 131.414 311.187 128.702 307.651C123.134 300.39 117.569 293.125 111.996 285.866C111.902 285.743 111.724 285.684 110.874 285.137C107.908 294.899 104.876 304.422 102.271 314.059C101.97 315.172 104.044 316.927 105.73 319.451C100.385 319.611 95.1703 319.791 89.9541 319.857C89.6554 319.861 89.0954 318.921 89.1109 318.435C89.1259 317.962 89.7182 317.503 90.0703 317.048C91.7383 314.894 94.0599 312.985 94.9644 310.549C98.1154 302.063 100.994 293.457 103.486 284.756C104.198 282.269 103.248 279.305 103.042 276.28C112.412 276.28 122.565 276.28 132.809 276.28C132.051 278.272 131.385 280.023 130.907 282.08Z" fill="#175FAB"/>
<path d="M588.907 288.058C592.671 285.135 596.462 282.228 595.159 275.97C601.729 275.97 607.944 275.97 614.634 275.946C616.59 275.922 618.071 275.922 621.005 275.922C612.467 281.864 617.41 289.005 617.264 295.403C617.147 300.506 617.972 305.678 618.848 310.738C619.311 313.41 620.775 315.908 622.029 319.102C613.727 319.102 604.515 319.102 594.639 319.102C595.378 318.365 595.964 317.465 596.793 317.003C602.121 314.033 602.366 309.794 597.342 306.304C589.672 300.974 579.518 305.429 578.62 314.686C578.504 315.878 580.079 317.234 581.261 319.144C575.171 319.144 569.295 319.147 563.419 319.085C563.377 319.085 563.344 318.192 563.156 317.351C563.004 316.986 562.936 317.026 563.292 317.196C568.938 316.498 571.405 312.475 574.137 308.46C578.858 301.521 583.963 294.845 588.907 288.058ZM599.066 295.28C599.066 292.731 599.066 290.182 599.066 286.283C595.698 290.751 593.181 294.089 590.286 297.929C593.601 298.534 596.207 299.009 599.013 299.52C599.013 298.136 599.013 297.145 599.066 295.28Z" fill="#1960AC"/>
<path d="M520.324 311.006C514.772 288.508 530.497 275.9 550.11 275.05C556.533 274.771 562.989 274.856 569.404 275.231C570.357 275.287 571.164 277.863 572.03 280.147C571.563 284.708 571.105 288.396 570.306 292.041C568.441 290.072 566.917 288.146 565.143 285.928C562.33 282.253 558.826 281.293 554.758 281.558C543.79 282.273 535.185 292.74 536.631 303.627C537.256 308.336 539.635 311.459 544.238 313C553.332 316.046 560.318 312.208 566.873 306.489C567.839 305.646 569.338 305.415 570.59 304.9C570.757 305.312 570.923 305.723 571.089 306.134C568.372 309.765 565.654 313.395 562.936 317.026C562.936 317.026 563.004 316.986 563.027 316.953C561.089 319.502 558.54 320.072 555.334 319.953C548.554 319.699 541.71 320.432 534.978 319.821C529.103 319.289 523.939 316.501 520.324 311.006Z" fill="#165FAB"/>
<path d="M178 275.991C186.173 275.797 193.846 275.604 201.905 275.401C201.405 279.575 202.943 285.158 199.614 290.905C195.634 282.376 190.727 279.763 182.286 280.964C178.912 281.444 177.809 283.164 176.436 291.243C181.655 289.209 186.111 287.472 191.266 285.462C190.514 291.195 189.744 297.064 188.974 302.933C188.622 302.976 188.269 303.019 187.916 303.062C187.605 302.323 187.107 301.607 187.014 300.841C186.451 296.185 183.37 295.249 179.287 294.794C175.069 294.324 173.82 296.372 172.985 299.849C172.095 303.559 170.478 307.108 169.748 310.838C169.286 313.202 169.866 315.77 170.021 319.163C162.906 319.163 154.665 319.163 146.229 319.163C146.311 319.455 146.08 318.912 146.156 318.865C154.367 313.778 153.606 304.29 156.881 296.812C158.558 292.983 159.385 288.784 160.645 284.767C161.548 281.889 163.61 278.824 157.635 277.326C158.108 276.881 158.581 276.436 159.054 275.991C165.203 275.991 171.352 275.991 178 275.991Z" fill="#1860AB"/>
<path d="M454.316 281.722C450.42 283.856 446.935 285.888 443.51 288.016C441.71 289.135 440.015 290.424 438.273 291.637C437.912 291.283 437.552 290.929 437.191 290.575C439.744 285.849 442.209 281.071 444.933 276.446C445.412 275.635 446.977 275.067 448.045 275.06C461.529 274.966 475.013 274.991 488.497 275.009C489.286 275.01 490.075 275.216 491.294 275.386C488.037 280.295 492.11 286.883 486.875 291.66C485.021 284.144 483.009 281.887 477.708 281.779C476.432 281.753 474.347 283.076 473.952 284.23C470.836 293.338 467.982 302.537 465.181 311.749C464.331 314.547 463.94 317.459 469.308 318.065C468.799 318.487 468.291 318.908 467.782 319.33C458.958 319.33 450.133 319.33 440.42 319.33C441.387 318.363 441.964 317.313 442.798 317.036C445.916 316.001 447.227 313.932 448.171 310.783C450.726 302.263 453.852 293.915 456.683 285.475C457.278 283.699 458.498 281.351 454.316 281.722Z" fill="#175FAB"/>
<path d="M521.079 278.018C517.351 278.376 515.264 280.615 514.189 284.068C511.28 293.413 508.185 302.704 505.528 312.119C504.973 314.085 505.986 316.495 506.418 319.784C497.127 319.784 487.232 319.784 477.492 319.784C478.819 318.578 480.404 316.378 482.552 315.321C490.938 311.19 490.674 302.353 493.751 295.384C495.239 292.014 495.727 288.216 497.029 284.747C498.158 281.74 498.841 279.138 494.544 277.367C496.053 276.722 496.894 276.057 497.741 276.048C505.054 275.974 512.367 275.998 519.68 276.076C520.114 276.081 520.54 276.804 520.986 277.638C521.002 278.082 521.063 278.048 521.079 278.018Z" fill="#1661AB"/>
<path d="M85.0243 274.998C89.8067 274.998 94.098 274.998 98.3893 274.998C90.6994 280.164 90.7841 288.928 88.5648 296.298C86.427 303.398 81.0123 310.219 84.935 318.637C76.668 318.637 68.5135 318.637 60.3589 318.637C66.49 316.127 66.8303 310.337 68.4282 305.375C70.721 298.256 73.1083 291.157 75.0307 283.936C75.5918 281.829 74.7076 279.336 73.7611 276.738C76.4288 273.5 80.7267 275.641 85.0243 274.998Z" fill="#145EAA"/>
<path d="M430.877 257.001C432.648 258.158 434.021 259.313 436.109 261.07C427.386 265.518 420.072 270.604 410.696 270.044C410.435 269.594 410.173 269.143 409.911 268.692C416.767 264.794 423.622 260.896 430.877 257.001Z" fill="#145EAB"/>
<path d="M479.12 264.47C511.944 264.256 545.097 264.323 578.533 264.66C563.505 264.955 548.193 264.981 532.408 265.029C514.44 264.951 496.943 264.851 479.12 264.47Z" fill="#6987C1"/>
<path d="M241.529 46.0325C240.108 46.3664 238.219 46.9524 236.329 46.9572C210.814 47.0222 185.3 47.0064 159.305 47.0226C159.738 46.6897 160.648 46.0571 161.566 46.0453C168.376 45.9579 175.187 45.9939 182.461 45.9666C202.304 45.9662 221.683 45.9904 241.529 46.0325Z" fill="#4A73B5"/>
<path d="M332.686 46.6712C321.909 46.9879 310.844 47.0063 299.298 47.0331C298.521 46.8948 298.226 46.7482 297.817 46.3732C309.268 46.2208 320.833 46.2968 332.686 46.6712Z" fill="#437CB2"/>
<path d="M584.018 46.9622C573.61 46.9805 563.202 46.9987 552.314 47.0284C551.49 47.0037 551.228 46.8384 550.94 46.331C561.573 46.0838 572.313 46.0494 583.527 46.2551C583.999 46.4951 584.018 46.9622 584.018 46.9622Z" fill="#4574B4"/>
<path d="M584.484 46.981C584.018 46.9622 583.999 46.4951 583.995 46.2617C598.458 46.1395 612.926 46.2507 627.683 46.6583C613.631 46.9698 599.291 46.9848 584.484 46.981Z" fill="#4E8AB3"/>
<path d="M382.649 47.6596C373.834 47.833 364.727 47.7179 355.331 47.3093C364.147 47.1342 373.252 47.2527 382.649 47.6596Z" fill="#3D7CB0"/>
<path d="M474.953 74.7454C474.452 74.9538 473.866 74.8564 473.183 74.4056C473.679 74.1813 474.274 74.3105 474.953 74.7454Z" fill="white"/>
<path d="M570.306 292.041C569.557 293.341 568.705 295.256 567.339 295.75C558.426 298.97 549.401 301.883 540.299 304.935C540.093 292.506 550.776 284.828 565.151 286.532C566.917 288.146 568.441 290.072 570.306 292.041Z" fill="#2094A2"/>
</svg>
