<svg width="732" height="371" viewBox="0 0 732 371" fill="none" xmlns="http://www.w3.org/2000/svg">
<g clip-path="url(#clip0_1_2)">
<path opacity="0.986" fill-rule="evenodd" clip-rule="evenodd" d="M427.5 -0.5C449.167 -0.5 470.833 -0.5 492.5 -0.5C538.647 2.09811 583.313 11.9314 626.5 29C638.164 33.8288 649.164 39.6621 659.5 46.5C627.17 45.9112 594.837 45.5778 562.5 45.5C558.818 45.3347 555.152 45.5014 551.5 46C556.24 53.822 557.74 62.322 556 71.5C552.927 83.885 548.761 95.885 543.5 107.5C526.16 92.3237 506.493 80.9904 484.5 73.5C470.013 60.2565 453.013 51.7565 433.5 48C392.164 47.2406 350.83 46.4073 309.5 45.5C305.818 45.3347 302.152 45.5014 298.5 46C302.383 49.2727 304.383 53.1061 304.5 57.5C284.148 59.9191 263.814 62.5858 243.5 65.5C248.545 58.1212 254.878 52.1212 262.5 47.5C263.289 47.2172 263.956 46.7172 264.5 46C241.169 45.5 217.836 45.3334 194.5 45.5C270.512 21.6976 348.178 6.36428 427.5 -0.5Z" fill="#1A92A0"/>
<path opacity="0.953" fill-rule="evenodd" clip-rule="evenodd" d="M169.5 45.5C169.5 46.1667 169.833 46.5 170.5 46.5C175.696 55.051 176.529 64.051 173 73.5C151.783 128.486 129.783 183.153 107 237.5C101.895 247.106 94.3954 254.106 84.5 258.5C82.847 258.66 81.5137 259.326 80.5 260.5C76.8183 260.665 73.1516 260.499 69.5 260C80.4213 255.749 88.9213 248.582 95 238.5C97.6667 233.167 100.333 227.833 103 222.5C120.905 176.362 139.072 130.362 157.5 84.5C162.787 75.8988 164.954 66.5655 164 56.5C163.617 55.944 163.117 55.6107 162.5 55.5C161.992 52.1485 160.658 49.1485 158.5 46.5C162.107 45.5108 165.774 45.1774 169.5 45.5Z" fill="#FDFDFE"/>
<path fill-rule="evenodd" clip-rule="evenodd" d="M169.5 45.5C177.833 45.5 186.167 45.5 194.5 45.5C217.836 45.3334 241.169 45.5 264.5 46C263.956 46.7172 263.289 47.2172 262.5 47.5C232.005 46.5019 201.338 46.1685 170.5 46.5C169.833 46.5 169.5 46.1667 169.5 45.5Z" fill="#4472B3"/>
<path opacity="0.993" fill-rule="evenodd" clip-rule="evenodd" d="M170.5 46.5C201.338 46.1685 232.005 46.5019 262.5 47.5C254.878 52.1212 248.545 58.1212 243.5 65.5C239.759 71.3084 236.259 77.3084 233 83.5C215 130.167 197 176.833 179 223.5C177.343 230.752 176.177 238.085 175.5 245.5C174.742 252.377 177.409 257.21 183.5 260C179.514 260.499 175.514 260.666 171.5 260.5C142.5 259.833 113.5 259.167 84.5 258.5C94.3954 254.106 101.895 247.106 107 237.5C129.783 183.153 151.783 128.486 173 73.5C176.529 64.051 175.696 55.051 170.5 46.5Z" fill="#135DAA"/>
<path opacity="0.95" fill-rule="evenodd" clip-rule="evenodd" d="M309.5 45.5C317.492 54.5844 318.658 64.5844 313 75.5C292.412 126.931 272.412 178.598 253 230.5C247.785 242.879 239.285 252.212 227.5 258.5C226.29 258.932 225.29 259.599 224.5 260.5C220.818 260.665 217.152 260.499 213.5 260C226.444 253.056 235.944 242.889 242 229.5C261.112 178.611 280.779 127.944 301 77.5C304.058 71.0561 305.225 64.3895 304.5 57.5C304.383 53.1061 302.383 49.2727 298.5 46C302.152 45.5014 305.818 45.3347 309.5 45.5Z" fill="#FDFDFE"/>
<path opacity="0.993" fill-rule="evenodd" clip-rule="evenodd" d="M309.5 45.5C350.83 46.4073 392.164 47.2406 433.5 48C453.013 51.7565 470.013 60.2565 484.5 73.5C496.46 87.9922 501.293 104.659 499 123.5C495.18 149.798 484.847 173.132 468 193.5C444.887 222.612 415.721 243.112 380.5 255C368.417 258.559 356.084 260.393 343.5 260.5C304.833 259.833 266.167 259.167 227.5 258.5C239.285 252.212 247.785 242.879 253 230.5C272.412 178.598 292.412 126.931 313 75.5C318.658 64.5844 317.492 54.5844 309.5 45.5ZM391.5 82.5C410.451 86.6281 420.118 98.4614 420.5 118C415.516 157.64 397.516 189.973 366.5 215C357.699 221.536 348.032 226.036 337.5 228.5C332.313 227.438 327.313 225.771 322.5 223.5C322.167 222.833 321.833 222.167 321.5 221.5C338.233 176.134 355.067 130.8 372 85.5C378.327 83.5847 384.827 82.5847 391.5 82.5Z" fill="#135DAA"/>
<path opacity="0.962" fill-rule="evenodd" clip-rule="evenodd" d="M562.5 45.5C568.206 56.3802 569.039 67.7136 565 79.5C545.863 129.245 526.529 178.912 507 228.5C500.866 243.793 490.7 255.459 476.5 263.5C472.486 263.666 468.486 263.499 464.5 263C477.385 255.781 487.219 245.615 494 232.5C510.516 190.808 527.016 149.141 543.5 107.5C548.761 95.885 552.927 83.885 556 71.5C557.74 62.322 556.24 53.822 551.5 46C555.152 45.5014 558.818 45.3347 562.5 45.5Z" fill="#FCFDFD"/>
<path opacity="0.999" fill-rule="evenodd" clip-rule="evenodd" d="M562.5 45.5C594.837 45.5778 627.17 45.9112 659.5 46.5C677.524 44.2558 693.858 48.4225 708.5 59C720.911 70.6809 723.911 84.5143 717.5 100.5C707.519 118.976 692.853 132.476 673.5 141C691.81 151.122 699.31 166.622 696 187.5C691.839 207.646 681.673 224.146 665.5 237C646.155 251.452 624.488 260.452 600.5 264C581.503 264.5 562.503 264.667 543.5 264.5C521.121 264.812 498.788 264.479 476.5 263.5C490.7 255.459 500.866 243.793 507 228.5C526.529 178.912 545.863 129.245 565 79.5C569.039 67.7136 568.206 56.3802 562.5 45.5Z" fill="#145DAA"/>
<path opacity="0.935" fill-rule="evenodd" clip-rule="evenodd" d="M162.5 55.5C163.117 55.6107 163.617 55.944 164 56.5C164.954 66.5655 162.787 75.8988 157.5 84.5C109.686 96.7044 62.686 111.538 16.5 129C15.1667 129.667 13.8333 129.667 12.5 129C60.01 99.4116 110.01 74.9116 162.5 55.5Z" fill="#1B93A0"/>
<path fill-rule="evenodd" clip-rule="evenodd" d="M630.5 78.5C648.592 77.9821 654.425 86.3155 648 103.5C642.394 118.951 631.561 127.951 615.5 130.5C613.955 130.489 612.622 130.156 611.5 129.5C629.945 121.619 639.111 107.619 639 87.5C637.286 83.2898 634.453 80.2898 630.5 78.5Z" fill="#F8F9FB"/>
<path fill-rule="evenodd" clip-rule="evenodd" d="M630.5 78.5C634.453 80.2898 637.286 83.2898 639 87.5C639.111 107.619 629.945 121.619 611.5 129.5C617.023 112.135 623.356 95.1353 630.5 78.5Z" fill="#1F93A1"/>
<path opacity="0.936" fill-rule="evenodd" clip-rule="evenodd" d="M391.5 82.5C416.066 80.3872 429.399 91.7206 431.5 116.5C426.67 159.34 407.003 193.507 372.5 219C361.782 225.762 350.115 228.929 337.5 228.5C348.032 226.036 357.699 221.536 366.5 215C397.516 189.973 415.516 157.64 420.5 118C420.118 98.4614 410.451 86.6281 391.5 82.5Z" fill="#FCFCFD"/>
<path opacity="0.979" fill-rule="evenodd" clip-rule="evenodd" d="M717.5 100.5C724.362 112.425 729.029 125.092 731.5 138.5C731.5 145.833 731.5 153.167 731.5 160.5C727.967 181.92 719.133 200.92 705 217.5C682.309 241.712 656.143 261.045 626.5 275.5C619.833 275.5 613.167 275.5 606.5 275.5C607.365 280.117 605.699 283.784 601.5 286.5C600.833 286.5 600.5 286.833 600.5 287.5C595.688 288.77 591.022 290.437 586.5 292.5C586.5 288.167 586.5 283.833 586.5 279.5C585.5 279.5 584.5 279.5 583.5 279.5C583.785 277.712 583.452 276.045 582.5 274.5C576.72 275.222 570.887 275.222 565 274.5C540.325 274.331 529.159 286.331 531.5 310.5C528.167 311.167 524.833 311.833 521.5 312.5C523.756 302.565 526.922 292.899 531 283.5C532.205 282.929 533.372 282.262 534.5 281.5C533.398 280.824 532.398 280.158 531.5 279.5C536.253 275.083 540.253 270.083 543.5 264.5C562.503 264.667 581.503 264.5 600.5 264C624.488 260.452 646.155 251.452 665.5 237C681.673 224.146 691.839 207.646 696 187.5C699.31 166.622 691.81 151.122 673.5 141C692.853 132.476 707.519 118.976 717.5 100.5Z" fill="#1A92A0"/>
<path fill-rule="evenodd" clip-rule="evenodd" d="M603.5 160.5C605.216 160.629 606.883 160.962 608.5 161.5C619.833 166.831 624.333 175.831 622 188.5C616.618 209.706 603.784 224.039 583.5 231.5C580.432 230.978 577.432 230.145 574.5 229C573.426 228.261 572.759 227.261 572.5 226C581 204.5 589.5 183 598 161.5C599.699 160.594 601.533 160.261 603.5 160.5Z" fill="#1D93A0"/>
<path fill-rule="evenodd" clip-rule="evenodd" d="M603.5 160.5C606.833 159.167 610.167 159.167 613.5 160.5C611.585 160.216 609.919 160.549 608.5 161.5C606.883 160.962 605.216 160.629 603.5 160.5Z" fill="#A3B5D6"/>
<path fill-rule="evenodd" clip-rule="evenodd" d="M608.5 161.5C609.919 160.549 611.585 160.216 613.5 160.5C629.689 163.51 635.856 173.177 632 189.5C627.646 209.18 616.146 222.68 597.5 230C592.898 231.122 588.232 231.622 583.5 231.5C603.784 224.039 616.618 209.706 622 188.5C624.333 175.831 619.833 166.831 608.5 161.5Z" fill="#FAFBFC"/>
<path opacity="0.84" fill-rule="evenodd" clip-rule="evenodd" d="M446.5 261.5C441.445 263.634 436.445 265.967 431.5 268.5C430.508 268.328 429.842 268.662 429.5 269.5C426.813 269.664 424.146 269.497 421.5 269C427.156 264.504 433.156 260.504 439.5 257C443.798 255.488 446.131 256.988 446.5 261.5Z" fill="#145DAA"/>
<path opacity="0.937" fill-rule="evenodd" clip-rule="evenodd" d="M84.5 258.5C113.5 259.167 142.5 259.833 171.5 260.5C141.167 260.5 110.833 260.5 80.5 260.5C81.5137 259.326 82.847 258.66 84.5 258.5Z" fill="#4B71B6"/>
<path opacity="0.937" fill-rule="evenodd" clip-rule="evenodd" d="M227.5 258.5C266.167 259.167 304.833 259.833 343.5 260.5C303.833 260.5 264.167 260.5 224.5 260.5C225.29 259.599 226.29 258.932 227.5 258.5Z" fill="#4970B6"/>
<path opacity="0.838" fill-rule="evenodd" clip-rule="evenodd" d="M446.5 261.5C450.647 264.301 450.313 266.801 445.5 269C438.834 272.339 431.834 274.005 424.5 274C426.618 272.951 428.284 271.451 429.5 269.5C430.492 269.672 431.158 269.338 431.5 268.5C436.445 265.967 441.445 263.634 446.5 261.5Z" fill="#FCFCFD"/>
<path opacity="0.958" fill-rule="evenodd" clip-rule="evenodd" d="M213.5 279.5C213.664 282.187 213.497 284.854 213 287.5C212.722 288.416 212.222 289.082 211.5 289.5C210.167 289.5 209.5 288.833 209.5 287.5C208.746 284.909 207.079 283.076 204.5 282C200.259 280.543 195.926 280.209 191.5 281C189.89 283.311 188.557 285.811 187.5 288.5C189.045 289.452 190.712 289.785 192.5 289.5C193.167 289.5 193.5 289.167 193.5 288.5C196.313 288.975 198.313 287.975 199.5 285.5C200.652 284.375 201.652 284.375 202.5 285.5C202.5 286.833 202.5 288.167 202.5 289.5C201.354 293.754 200.687 298.087 200.5 302.5C199.167 302.5 198.5 301.833 198.5 300.5C198.548 297.708 197.215 295.875 194.5 295C191.518 294.502 188.518 294.335 185.5 294.5C183.92 300.987 182.253 307.487 180.5 314C181.378 315.8 182.045 317.633 182.5 319.5C176.5 319.5 170.5 319.5 164.5 319.5C162.076 319.808 159.743 319.474 157.5 318.5C159.387 316.96 161.22 315.293 163 313.5C166.5 302.333 170 291.167 173.5 280C172.491 278.832 171.491 277.665 170.5 276.5C183.154 275.667 195.82 275.167 208.5 275C212.711 272.812 214.378 274.312 213.5 279.5ZM193.5 288.5C196.313 288.975 198.313 287.975 199.5 285.5C196.687 285.025 194.687 286.025 193.5 288.5Z" fill="#1D5FAB"/>
<path opacity="0.952" fill-rule="evenodd" clip-rule="evenodd" d="M89.5 318.5C83.5 318.5 77.5 318.5 71.5 318.5C71.3284 317.508 71.6618 316.842 72.5 316.5C74.371 316.141 75.871 315.141 77 313.5C80.6074 302.179 84.1074 290.846 87.5 279.5C86.7701 278.288 85.7701 277.288 84.5 276.5C84.7093 275.914 85.0426 275.414 85.5 275C93.8333 274.333 102.167 274.333 110.5 275C106.484 277.359 103.984 280.859 103 285.5C100.066 294.803 97.2322 304.137 94.5 313.5C95.5471 315.056 96.2137 316.723 96.5 318.5C94.1667 318.5 91.8333 318.5 89.5 318.5Z" fill="#185EAA"/>
<path opacity="0.965" fill-rule="evenodd" clip-rule="evenodd" d="M268.5 285.5C270.179 296.989 266.179 306.156 256.5 313C246.273 319.072 235.273 321.072 223.5 319C220.168 318.001 217.168 316.501 214.5 314.5C208.774 307.68 208.108 300.347 212.5 292.5C214.326 290.853 215.66 288.853 216.5 286.5C229.981 273.949 245.314 271.116 262.5 278C265.118 280.106 267.118 282.606 268.5 285.5ZM251.5 286.5C251.58 293.515 250.08 300.182 247 306.5C243.291 312.615 238.125 314.615 231.5 312.5C231.307 304.938 233.14 297.938 237 291.5C240.783 286.514 245.617 284.848 251.5 286.5Z" fill="#195EAA"/>
<path opacity="0.953" fill-rule="evenodd" clip-rule="evenodd" d="M501.5 279.5C501.665 282.85 501.498 286.183 501 289.5C500.617 290.056 500.117 290.389 499.5 290.5C497.952 290.179 497.285 289.179 497.5 287.5C495.238 282.368 491.238 280.368 485.5 281.5C482.969 290.903 480.136 300.236 477 309.5C476.503 311.81 476.337 314.143 476.5 316.5C477.791 316.263 478.791 316.596 479.5 317.5C479.5 318.167 479.5 318.833 479.5 319.5C473.167 319.5 466.833 319.5 460.5 319.5C457.833 319.5 455.167 319.5 452.5 319.5C452.5 318.5 452.5 317.5 452.5 316.5C454.582 316.528 456.416 315.861 458 314.5C461.476 305.239 464.642 295.906 467.5 286.5C468.159 284.862 468.826 283.195 469.5 281.5C464.08 280.274 459.747 281.941 456.5 286.5C455.833 286.5 455.5 286.833 455.5 287.5C454.373 288.122 453.373 288.955 452.5 290C451.167 290.667 449.833 290.667 448.5 290C451.367 285.294 454.034 280.46 456.5 275.5C457.333 275.167 458.167 274.833 459 274.5C472.667 275.833 486.333 275.833 500 274.5C500.833 274.833 501.667 275.167 502.5 275.5C501.754 276.736 501.421 278.07 501.5 279.5Z" fill="#1D5FAB"/>
<path opacity="0.977" fill-rule="evenodd" clip-rule="evenodd" d="M583.5 279.5C583.665 283.182 583.499 286.848 583 290.5C582.722 291.416 582.222 292.082 581.5 292.5C579.818 291.173 578.485 289.506 577.5 287.5C576.746 284.909 575.079 283.076 572.5 282C554.872 280.63 547.039 288.796 549 306.5C549.377 307.942 550.21 308.942 551.5 309.5C558.532 314.647 565.866 314.814 573.5 310C576.144 307.051 579.144 305.551 582.5 305.5C580.78 308.202 579.113 310.868 577.5 313.5C576.833 313.5 576.5 313.833 576.5 314.5C575.833 314.5 575.5 314.833 575.5 315.5C574.188 316.145 573.188 317.145 572.5 318.5C562.841 320.668 553.174 320.834 543.5 319C540.168 318.001 537.168 316.501 534.5 314.5C533.488 313.128 532.488 311.795 531.5 310.5C529.159 286.331 540.325 274.331 565 274.5C570.887 275.222 576.72 275.222 582.5 274.5C583.452 276.045 583.785 277.712 583.5 279.5Z" fill="#1F60AB"/>
<path opacity="0.957" fill-rule="evenodd" clip-rule="evenodd" d="M142.5 279.5C142.063 281.595 143.063 283.262 145.5 284.5C146.657 286.138 147.824 287.804 149 289.5C149.732 286.471 150.565 283.471 151.5 280.5C150.453 278.944 149.786 277.277 149.5 275.5C154.844 275.334 160.177 275.501 165.5 276C164.269 277.405 162.936 278.571 161.5 279.5C160.542 279.953 159.708 280.619 159 281.5C155.601 291.93 152.434 302.43 149.5 313C150.091 315.239 150.758 317.406 151.5 319.5C148.833 319.5 146.167 319.5 143.5 319.5C140.482 319.665 137.482 319.498 134.5 319C135.669 317.164 137.336 315.998 139.5 315.5C140.624 314.086 141.624 312.586 142.5 311C140.461 309.074 138.794 306.907 137.5 304.5C137.573 302.973 136.906 301.973 135.5 301.5C131.738 298.071 128.738 294.071 126.5 289.5C125.343 287.862 124.176 286.196 123 284.5C119.251 294.082 116.084 303.916 113.5 314C114.032 316.02 115.365 316.853 117.5 316.5C117.5 317.167 117.5 317.833 117.5 318.5C114.272 319.414 110.939 319.747 107.5 319.5C105.167 319.5 102.833 319.5 100.5 319.5C100.5 318.5 100.5 317.5 100.5 316.5C102.39 316.703 103.89 316.037 105 314.5C108.913 303.007 112.747 291.507 116.5 280C115.313 278.981 114.313 277.814 113.5 276.5C123.833 275.167 134.167 275.167 144.5 276.5C143.807 277.518 143.141 278.518 142.5 279.5Z" fill="#2060AC"/>
<path opacity="0.96" fill-rule="evenodd" clip-rule="evenodd" d="M327.5 280.5C327.229 284.136 325.563 286.97 322.5 289C319.339 290.413 316.339 292.08 313.5 294C314.733 296.314 316.067 298.481 317.5 300.5C318.749 304.733 319.582 309.066 320 313.5C320.422 315.426 321.589 316.426 323.5 316.5C325.605 316.861 327.438 315.861 329 313.5C332.5 302.333 336 291.167 339.5 280C338.728 278.779 337.728 277.779 336.5 277C336.833 276.667 337.167 276.333 337.5 276C346.5 275.333 355.5 275.333 364.5 276C363.635 277.359 362.635 278.526 361.5 279.5C361.408 283.059 362.241 286.392 364 289.5C364.513 288.473 365.013 287.473 365.5 286.5C368.297 284.205 370.964 281.705 373.5 279C372.663 277.989 372.33 276.822 372.5 275.5C381.192 275.169 389.859 275.502 398.5 276.5C397.099 277.521 395.765 278.521 394.5 279.5C392.163 281.965 390.663 284.965 390 288.5C386.776 297.667 384.276 307.001 382.5 316.5C384.292 316.634 385.958 316.301 387.5 315.5C398.086 304.38 407.752 292.38 416.5 279.5C415.754 278.264 415.421 276.93 415.5 275.5C423.86 275.169 432.193 275.502 440.5 276.5C439.807 277.518 439.141 278.518 438.5 279.5C437.796 291.427 438.629 303.427 441 315.5C441.671 316.252 442.504 316.586 443.5 316.5C444.338 316.842 444.672 317.508 444.5 318.5C437.588 319.462 430.588 319.795 423.5 319.5C414.441 320.143 413.608 318.477 421 314.5C421.49 313.207 421.657 311.873 421.5 310.5C421.372 308.91 420.705 307.577 419.5 306.5C416.26 304.482 412.76 303.148 409 302.5C404.097 305.967 400.931 310.634 399.5 316.5C400.5 316.5 401.5 316.5 402.5 316.5C402.5 317.5 402.5 318.5 402.5 319.5C398.833 319.5 395.167 319.5 391.5 319.5C389.833 319.5 388.167 319.5 386.5 319.5C379.833 319.5 373.167 319.5 366.5 319.5C363.753 319.813 361.086 319.48 358.5 318.5C360.797 317.102 362.963 315.436 365 313.5C366.274 309.846 367.44 306.18 368.5 302.5C370.526 297.595 372.026 292.595 373 287.5C368.367 293.135 363.367 298.468 358 303.5C356.25 305.734 354.75 308.068 353.5 310.5C352.25 310.423 351.417 309.756 351 308.5C350.096 304.628 348.93 300.961 347.5 297.5C347.737 293.59 346.904 289.923 345 286.5C342.186 295.104 339.686 303.771 337.5 312.5C337.585 314.333 338.252 315.666 339.5 316.5C337.492 318.083 335.159 319.083 332.5 319.5C331.833 319.5 331.167 319.5 330.5 319.5C328.5 319.5 326.5 319.5 324.5 319.5C317.833 319.5 311.167 319.5 304.5 319.5C302.076 319.808 299.743 319.474 297.5 318.5C299.689 316.738 301.356 314.571 302.5 312C301.877 308.996 300.877 306.162 299.5 303.5C298.968 299.659 296.968 298.326 293.5 299.5C291.59 303.991 290.257 308.657 289.5 313.5C290.204 315.535 290.871 317.535 291.5 319.5C285.5 319.5 279.5 319.5 273.5 319.5C271.167 319.5 268.833 319.5 266.5 319.5C266.5 318.5 266.5 317.5 266.5 316.5C268.39 316.703 269.89 316.037 271 314.5C275.241 303.109 279.075 291.609 282.5 280C281.313 278.981 280.313 277.814 279.5 276.5C294.489 275.334 309.489 275.167 324.5 276C326.863 276.589 327.863 278.089 327.5 280.5ZM308.5 285.5C306.879 288.171 304.546 290.171 301.5 291.5C301.373 286.627 303.706 284.627 308.5 285.5ZM420.5 295.5C420.657 296.873 420.49 298.207 420 299.5C419.617 298.944 419.117 298.611 418.5 298.5C418.932 297.29 419.599 296.29 420.5 295.5Z" fill="#1C5FAB"/>
<path opacity="0.968" fill-rule="evenodd" clip-rule="evenodd" d="M528.5 279.5C527.21 280.058 526.377 281.058 526 282.5C523.002 291.822 520.002 301.155 517 310.5C516.554 313.662 517.054 316.662 518.5 319.5C512.5 319.5 506.5 319.5 500.5 319.5C498.5 319.5 496.5 319.5 494.5 319.5C497.222 317.088 499.222 314.088 500.5 310.5C501.833 305.5 503.167 300.5 504.5 295.5C506.33 290.677 507.997 285.677 509.5 280.5C508.99 278.912 507.99 277.745 506.5 277C506.833 276.667 507.167 276.333 507.5 276C515.853 275.168 524.187 275.335 532.5 276.5C531.099 277.521 529.765 278.521 528.5 279.5Z" fill="#195EAA"/>
<path opacity="0.969" fill-rule="evenodd" clip-rule="evenodd" d="M626.5 275.5C632.351 274.756 633.017 276.089 628.5 279.5C627.859 291.285 628.859 303.118 631.5 315C631.836 316.03 632.503 316.53 633.5 316.5C634.404 317.209 634.737 318.209 634.5 319.5C627.5 319.5 620.5 319.5 613.5 319.5C611.167 319.5 608.833 319.5 606.5 319.5C606.5 318.5 606.5 317.5 606.5 316.5C609.69 316.313 611.69 314.646 612.5 311.5C612.16 309.321 611.16 307.488 609.5 306C606.132 304.449 602.632 303.283 599 302.5C595.007 305.96 591.84 310.127 589.5 315C590.509 316.168 591.509 317.335 592.5 318.5C588.893 319.489 585.226 319.823 581.5 319.5C580.5 319.5 579.5 319.5 578.5 319.5C577.022 319.762 575.689 319.429 574.5 318.5C576.706 316.915 579.039 315.415 581.5 314C582.883 312.729 583.883 311.229 584.5 309.5C590.22 302.447 595.553 295.113 600.5 287.5C601.167 287.5 601.5 287.167 601.5 286.5C605.699 283.784 607.365 280.117 606.5 275.5C613.167 275.5 619.833 275.5 626.5 275.5ZM610.5 296.5C610.869 298.993 610.203 299.66 608.5 298.5C608.833 297.5 609.5 296.833 610.5 296.5Z" fill="#1F60AB"/>
<path opacity="0.837" fill-rule="evenodd" clip-rule="evenodd" d="M216.5 286.5C215.66 288.853 214.326 290.853 212.5 292.5C211.89 291.609 211.557 290.609 211.5 289.5C212.222 289.082 212.722 288.416 213 287.5C213.497 284.854 213.664 282.187 213.5 279.5C214.15 279.196 214.817 278.863 215.5 278.5C216.48 281.086 216.813 283.753 216.5 286.5Z" fill="#F8F9FC"/>
<path opacity="0.829" fill-rule="evenodd" clip-rule="evenodd" d="M87.5 279.5C84.1074 290.846 80.6074 302.179 77 313.5C75.871 315.141 74.371 316.141 72.5 316.5C75.5955 306.378 78.5955 296.212 81.5 286C80.5819 283.914 79.9153 281.747 79.5 279.5C82.1667 279.5 84.8333 279.5 87.5 279.5Z" fill="#FBFCFD"/>
<path opacity="0.595" fill-rule="evenodd" clip-rule="evenodd" d="M142.5 279.5C144.167 279.5 145.833 279.5 147.5 279.5C147.608 281.514 146.942 283.18 145.5 284.5C143.063 283.262 142.063 281.595 142.5 279.5Z" fill="#FBFCFD"/>
<path opacity="0.835" fill-rule="evenodd" clip-rule="evenodd" d="M161.5 279.5C170.205 279.136 170.705 281.136 163 285.5C159.5 296.667 156 307.833 152.5 319C152.82 320.653 153.82 321.653 155.5 322C155.043 322.414 154.709 322.914 154.5 323.5C149.208 324.495 143.875 324.828 138.5 324.5C138.5 323.5 138.5 322.5 138.5 321.5C140.553 321.598 142.22 320.931 143.5 319.5C146.167 319.5 148.833 319.5 151.5 319.5C150.758 317.406 150.091 315.239 149.5 313C152.434 302.43 155.601 291.93 159 281.5C159.708 280.619 160.542 279.953 161.5 279.5Z" fill="#FAFBFD"/>
<path opacity="0.759" fill-rule="evenodd" clip-rule="evenodd" d="M361.5 279.5C363.604 279.201 365.604 279.534 367.5 280.5C366.855 281.646 366.022 282.646 365 283.5C364.26 284.749 364.427 285.749 365.5 286.5C365.013 287.473 364.513 288.473 364 289.5C362.241 286.392 361.408 283.059 361.5 279.5Z" fill="#FAFAFC"/>
<path opacity="0.866" fill-rule="evenodd" clip-rule="evenodd" d="M394.5 279.5C396.833 279.5 399.167 279.5 401.5 279.5C401.719 280.675 401.386 281.675 400.5 282.5C398.259 283.032 396.759 284.365 396 286.5C392.854 296.102 390.02 305.769 387.5 315.5C385.958 316.301 384.292 316.634 382.5 316.5C384.276 307.001 386.776 297.667 390 288.5C390.663 284.965 392.163 281.965 394.5 279.5Z" fill="#FAFAFC"/>
<path opacity="0.818" fill-rule="evenodd" clip-rule="evenodd" d="M438.5 279.5C440.527 279.338 442.527 279.505 444.5 280C442.473 282.177 441.139 284.677 440.5 287.5C441.567 297.166 442.567 306.832 443.5 316.5C442.504 316.586 441.671 316.252 441 315.5C438.629 303.427 437.796 291.427 438.5 279.5Z" fill="#F8F9FC"/>
<path opacity="0.782" fill-rule="evenodd" clip-rule="evenodd" d="M501.5 279.5C502.833 279.5 504.167 279.5 505.5 279.5C504.806 284.805 504.472 290.138 504.5 295.5C503.167 295.5 501.833 295.5 500.5 295.5C500.634 293.708 500.301 292.042 499.5 290.5C500.117 290.389 500.617 290.056 501 289.5C501.498 286.183 501.665 282.85 501.5 279.5Z" fill="#FEFEFE"/>
<path opacity="0.961" fill-rule="evenodd" clip-rule="evenodd" d="M528.5 279.5C529.5 279.5 530.5 279.5 531.5 279.5C532.398 280.158 533.398 280.824 534.5 281.5C533.372 282.262 532.205 282.929 531 283.5C526.922 292.899 523.756 302.565 521.5 312.5C520.992 314.865 520.325 317.199 519.5 319.5C521.98 320.415 522.647 321.915 521.5 324C513.507 324.5 505.507 324.666 497.5 324.5C497.721 322.336 498.721 320.67 500.5 319.5C506.5 319.5 512.5 319.5 518.5 319.5C517.054 316.662 516.554 313.662 517 310.5C520.002 301.155 523.002 291.822 526 282.5C526.377 281.058 527.21 280.058 528.5 279.5Z" fill="#F7F9FB"/>
<path opacity="0.917" fill-rule="evenodd" clip-rule="evenodd" d="M583.5 279.5C584.5 279.5 585.5 279.5 586.5 279.5C586.5 283.833 586.5 288.167 586.5 292.5C586.318 298.003 584.651 298.67 581.5 294.5C581.5 293.833 581.5 293.167 581.5 292.5C582.222 292.082 582.722 291.416 583 290.5C583.499 286.848 583.665 283.182 583.5 279.5Z" fill="#FBFCFD"/>
<path opacity="0.813" fill-rule="evenodd" clip-rule="evenodd" d="M628.5 279.5C630.5 279.5 632.5 279.5 634.5 279.5C633.836 281.867 632.503 283.867 630.5 285.5C631.96 295.771 632.96 306.104 633.5 316.5C632.503 316.53 631.836 316.03 631.5 315C628.859 303.118 627.859 291.285 628.5 279.5Z" fill="#F5F6FB"/>
<path opacity="0.915" fill-rule="evenodd" clip-rule="evenodd" d="M209.5 287.5C207.254 286.545 204.921 285.878 202.5 285.5C201.652 284.375 200.652 284.375 199.5 285.5C196.687 285.025 194.687 286.025 193.5 288.5C192.833 288.5 192.5 288.833 192.5 289.5C190.712 289.785 189.045 289.452 187.5 288.5C188.557 285.811 189.89 283.311 191.5 281C195.926 280.209 200.259 280.543 204.5 282C207.079 283.076 208.746 284.909 209.5 287.5Z" fill="#F9FAFC"/>
<path opacity="0.897" fill-rule="evenodd" clip-rule="evenodd" d="M251.5 286.5C245.617 284.848 240.783 286.514 237 291.5C233.14 297.938 231.307 304.938 231.5 312.5C230.21 311.942 229.377 310.942 229 309.5C227.236 299.381 229.736 290.548 236.5 283C239.881 280.755 243.548 280.088 247.5 281C249.464 282.451 250.797 284.284 251.5 286.5Z" fill="#F9FAFC"/>
<path opacity="0.908" fill-rule="evenodd" clip-rule="evenodd" d="M308.5 285.5C303.706 284.627 301.373 286.627 301.5 291.5C299.862 292.159 298.195 292.826 296.5 293.5C296.2 289.356 297.2 285.356 299.5 281.5C302.784 280.343 306.118 280.176 309.5 281C310.916 282.915 310.582 284.415 308.5 285.5Z" fill="#F7F8FB"/>
<path opacity="0.879" fill-rule="evenodd" clip-rule="evenodd" d="M327.5 280.5C331.292 282.707 332.126 285.707 330 289.5C327.035 293.459 323.202 296.292 318.5 298C317.748 298.671 317.414 299.504 317.5 300.5C316.067 298.481 314.733 296.314 313.5 294C316.339 292.08 319.339 290.413 322.5 289C325.563 286.97 327.229 284.136 327.5 280.5Z" fill="#FAFBFD"/>
<path opacity="0.84" fill-rule="evenodd" clip-rule="evenodd" d="M467.5 286.5C462.566 287.922 458.566 290.756 455.5 295C454.552 295.483 453.552 295.649 452.5 295.5C452.957 292.594 453.957 289.928 455.5 287.5C456.167 287.5 456.5 287.167 456.5 286.5C459.747 281.941 464.08 280.274 469.5 281.5C468.826 283.195 468.159 284.862 467.5 286.5Z" fill="#F8F8FC"/>
<path opacity="0.888" fill-rule="evenodd" clip-rule="evenodd" d="M497.5 287.5C494.823 286.386 492.156 286.386 489.5 287.5C486.147 297.614 482.814 307.614 479.5 317.5C478.791 316.596 477.791 316.263 476.5 316.5C476.337 314.143 476.503 311.81 477 309.5C480.136 300.236 482.969 290.903 485.5 281.5C491.238 280.368 495.238 282.368 497.5 287.5Z" fill="#F9F9FC"/>
<path opacity="0.988" fill-rule="evenodd" clip-rule="evenodd" d="M577.5 287.5C562.734 283.561 554.068 289.228 551.5 304.5C551.5 306.167 551.5 307.833 551.5 309.5C550.21 308.942 549.377 307.942 549 306.5C547.039 288.796 554.872 280.63 572.5 282C575.079 283.076 576.746 284.909 577.5 287.5Z" fill="#F7F9FB"/>
<path opacity="0.907" fill-rule="evenodd" clip-rule="evenodd" d="M126.5 289.5C123.325 298.357 120.325 307.357 117.5 316.5C115.365 316.853 114.032 316.02 113.5 314C116.084 303.916 119.251 294.082 123 284.5C124.176 286.196 125.343 287.862 126.5 289.5Z" fill="#F7F8FC"/>
<path opacity="0.881" fill-rule="evenodd" clip-rule="evenodd" d="M268.5 285.5C270.136 286.749 271.303 288.416 272 290.5C272.74 308.455 264.24 319.621 246.5 324C237.119 326.374 228.119 325.374 219.5 321C217.235 319.242 215.568 317.075 214.5 314.5C217.168 316.501 220.168 318.001 223.5 319C235.273 321.072 246.273 319.072 256.5 313C266.179 306.156 270.179 296.989 268.5 285.5Z" fill="#F8F8FC"/>
<path opacity="0.945" fill-rule="evenodd" clip-rule="evenodd" d="M577.5 287.5C578.485 289.506 579.818 291.173 581.5 292.5C581.5 293.167 581.5 293.833 581.5 294.5C571.558 298.036 561.558 301.37 551.5 304.5C554.068 289.228 562.734 283.561 577.5 287.5Z" fill="#2594A1"/>
<path opacity="0.95" fill-rule="evenodd" clip-rule="evenodd" d="M610.5 296.5C609.5 296.833 608.833 297.5 608.5 298.5C606.304 298.435 604.304 297.768 602.5 296.5C604.808 293.025 607.308 289.692 610 286.5C610.498 289.817 610.665 293.15 610.5 296.5Z" fill="#F8F9FC"/>
<path opacity="0.803" fill-rule="evenodd" clip-rule="evenodd" d="M200.5 302.5C200.687 298.087 201.354 293.754 202.5 289.5C203.858 288.374 205.192 288.374 206.5 289.5C205.396 295.101 204.729 300.768 204.5 306.5C203.5 306.5 202.5 306.5 201.5 306.5C201.567 305.041 201.234 303.708 200.5 302.5Z" fill="#F8F9FC"/>
<path opacity="0.9" fill-rule="evenodd" clip-rule="evenodd" d="M347.5 297.5C344.967 303.767 342.633 310.101 340.5 316.5C340.167 316.5 339.833 316.5 339.5 316.5C338.252 315.666 337.585 314.333 337.5 312.5C339.686 303.771 342.186 295.104 345 286.5C346.904 289.923 347.737 293.59 347.5 297.5Z" fill="#F6F7FB"/>
<path opacity="0.939" fill-rule="evenodd" clip-rule="evenodd" d="M420.5 295.5C419.599 296.29 418.932 297.29 418.5 298.5C416.073 298.477 413.74 297.977 411.5 297C414.333 293.5 417.167 290 420 286.5C420.498 289.482 420.665 292.482 420.5 295.5Z" fill="#F5F6FB"/>
<path opacity="0.888" fill-rule="evenodd" clip-rule="evenodd" d="M368.5 302.5C363.827 306.506 359.494 310.839 355.5 315.5C354.438 313.978 353.771 312.312 353.5 310.5C354.75 308.068 356.25 305.734 358 303.5C363.367 298.468 368.367 293.135 373 287.5C372.026 292.595 370.526 297.595 368.5 302.5Z" fill="#FAFAFD"/>
<path opacity="0.9" fill-rule="evenodd" clip-rule="evenodd" d="M198.5 300.5C195.537 299.259 192.537 299.259 189.5 300.5C187.424 306.637 185.424 312.804 183.5 319C185.576 320.244 186.576 322.077 186.5 324.5C177.808 324.831 169.141 324.498 160.5 323.5C161.867 322.16 163.2 320.827 164.5 319.5C170.5 319.5 176.5 319.5 182.5 319.5C182.045 317.633 181.378 315.8 180.5 314C182.253 307.487 183.92 300.987 185.5 294.5C188.518 294.335 191.518 294.502 194.5 295C197.215 295.875 198.548 297.708 198.5 300.5Z" fill="#FAFBFD"/>
<path opacity="0.839" fill-rule="evenodd" clip-rule="evenodd" d="M299.5 303.5C298.504 303.414 297.671 303.748 297 304.5C295.298 309.273 293.798 314.106 292.5 319C292.82 320.653 293.82 321.653 295.5 322C295.043 322.414 294.709 322.914 294.5 323.5C286.167 324.833 277.833 324.833 269.5 323.5C270.549 321.784 271.882 320.451 273.5 319.5C279.5 319.5 285.5 319.5 291.5 319.5C290.871 317.535 290.204 315.535 289.5 313.5C290.257 308.657 291.59 303.991 293.5 299.5C296.968 298.326 298.968 299.659 299.5 303.5Z" fill="#FCFCFD"/>
<path opacity="0.703" fill-rule="evenodd" clip-rule="evenodd" d="M317.5 300.5C318.79 301.058 319.623 302.058 320 303.5C321.327 307.808 322.493 312.141 323.5 316.5C321.589 316.426 320.422 315.426 320 313.5C319.582 309.066 318.749 304.733 317.5 300.5Z" fill="#F4F5FA"/>
<path opacity="0.063" fill-rule="evenodd" clip-rule="evenodd" d="M135.5 301.5C136.906 301.973 137.573 302.973 137.5 304.5C136.094 304.027 135.427 303.027 135.5 301.5Z" fill="#DCE0F1"/>
<path opacity="0.892" fill-rule="evenodd" clip-rule="evenodd" d="M421.5 310.5C418.263 309.251 414.929 308.251 411.5 307.5C408.444 311.542 405.444 315.542 402.5 319.5C402.5 318.5 402.5 317.5 402.5 316.5C401.5 316.5 400.5 316.5 399.5 316.5C400.931 310.634 404.097 305.967 409 302.5C412.76 303.148 416.26 304.482 419.5 306.5C420.705 307.577 421.372 308.91 421.5 310.5Z" fill="#F9FAFC"/>
<path opacity="0.658" fill-rule="evenodd" clip-rule="evenodd" d="M500.5 310.5C499.222 314.088 497.222 317.088 494.5 319.5C492.401 320.231 490.401 320.231 488.5 319.5C492.202 315.995 496.202 312.995 500.5 310.5Z" fill="#1991A0"/>
<path opacity="0.829" fill-rule="evenodd" clip-rule="evenodd" d="M612.5 311.5C609.151 309.248 605.485 308.081 601.5 308C598.249 311.419 595.582 315.253 593.5 319.5C595.297 320.695 596.297 322.362 596.5 324.5C589.711 325.101 583.211 324.434 577 322.5C576.5 323 576 323.5 575.5 324C567.838 324.846 560.171 325.18 552.5 325C544.431 324.807 538.431 321.307 534.5 314.5C537.168 316.501 540.168 318.001 543.5 319C553.174 320.834 562.841 320.668 572.5 318.5C573.188 317.145 574.188 316.145 575.5 315.5C576.167 315.5 576.5 315.167 576.5 314.5C577.167 314.5 577.5 314.167 577.5 313.5C579.363 311.295 581.697 309.961 584.5 309.5C583.883 311.229 582.883 312.729 581.5 314C579.039 315.415 576.706 316.915 574.5 318.5C575.689 319.429 577.022 319.762 578.5 319.5C577.537 320.363 577.537 321.03 578.5 321.5C579.739 321.058 580.739 320.391 581.5 319.5C585.226 319.823 588.893 319.489 592.5 318.5C591.509 317.335 590.509 316.168 589.5 315C591.84 310.127 595.007 305.96 599 302.5C602.632 303.283 606.132 304.449 609.5 306C611.16 307.488 612.16 309.321 612.5 311.5ZM578.5 319.5C579.5 319.5 580.5 319.5 581.5 319.5C580.739 320.391 579.739 321.058 578.5 321.5C577.537 321.03 577.537 320.363 578.5 319.5Z" fill="#FBFBFD"/>
<path opacity="0.849" fill-rule="evenodd" clip-rule="evenodd" d="M71.4999 318.5C77.4999 318.5 83.4999 318.5 89.4999 318.5C90.6297 320.315 91.2963 322.315 91.4999 324.5C83.1666 324.5 74.8332 324.5 66.4999 324.5C66.2809 323.325 66.6142 322.325 67.4999 321.5C69.2609 320.965 70.5942 319.965 71.4999 318.5Z" fill="#FEFFFE"/>
<path fill-rule="evenodd" clip-rule="evenodd" d="M339.5 316.5C339.833 316.5 340.167 316.5 340.5 316.5C340.5 317.5 340.5 318.5 340.5 319.5C337.833 319.5 335.167 319.5 332.5 319.5C335.159 319.083 337.492 318.083 339.5 316.5Z" fill="#8397CB"/>
<path opacity="0.794" fill-rule="evenodd" clip-rule="evenodd" d="M444.5 318.5C445.794 320.328 446.794 322.328 447.5 324.5C438.167 324.5 428.833 324.5 419.5 324.5C419.281 323.325 419.614 322.325 420.5 321.5C421.739 321.058 422.739 320.391 423.5 319.5C430.588 319.795 437.588 319.462 444.5 318.5Z" fill="#FEFFFE"/>
<path opacity="0.735" fill-rule="evenodd" clip-rule="evenodd" d="M117.5 318.5C118.794 320.328 119.794 322.328 120.5 324.5C114.833 324.5 109.167 324.5 103.5 324.5C103.281 323.325 103.614 322.325 104.5 321.5C105.739 321.058 106.739 320.391 107.5 319.5C110.939 319.747 114.272 319.414 117.5 318.5Z" fill="#FEFEFE"/>
<path opacity="0.781" fill-rule="evenodd" clip-rule="evenodd" d="M304.5 319.5C311.167 319.5 317.833 319.5 324.5 319.5C326.5 322.167 328.5 322.167 330.5 319.5C331.167 319.5 331.833 319.5 332.5 319.5C335.167 319.5 337.833 319.5 340.5 319.5C341.6 320.558 342.934 321.392 344.5 322C344.043 322.414 343.709 322.914 343.5 323.5C329.178 324.666 314.845 324.833 300.5 324C301.357 321.981 302.691 320.481 304.5 319.5ZM324.5 319.5C326.5 319.5 328.5 319.5 330.5 319.5C328.5 322.167 326.5 322.167 324.5 319.5Z" fill="#FEFFFE"/>
<path opacity="0.792" fill-rule="evenodd" clip-rule="evenodd" d="M366.5 319.5C373.167 319.5 379.833 319.5 386.5 319.5C388.048 321.922 389.714 321.922 391.5 319.5C395.167 319.5 398.833 319.5 402.5 319.5C403.347 320.966 404.68 321.8 406.5 322C406.043 322.414 405.709 322.914 405.5 323.5C391.182 324.499 376.849 324.833 362.5 324.5C362.281 323.325 362.614 322.325 363.5 321.5C364.739 321.058 365.739 320.391 366.5 319.5ZM386.5 319.5C388.167 319.5 389.833 319.5 391.5 319.5C389.714 321.922 388.048 321.922 386.5 319.5Z" fill="#FEFFFE"/>
<path opacity="0.791" fill-rule="evenodd" clip-rule="evenodd" d="M460.5 319.5C466.833 319.5 473.167 319.5 479.5 319.5C480.6 320.558 481.934 321.392 483.5 322C483.043 322.414 482.709 322.914 482.5 323.5C473.525 324.498 464.525 324.832 455.5 324.5C455.5 323.5 455.5 322.5 455.5 321.5C457.553 321.598 459.22 320.931 460.5 319.5Z" fill="#FEFFFE"/>
<path opacity="0.793" fill-rule="evenodd" clip-rule="evenodd" d="M613.5 319.5C620.5 319.5 627.5 319.5 634.5 319.5C636.69 320.374 637.69 322.041 637.5 324.5C628.167 324.5 618.833 324.5 609.5 324.5C609.281 323.325 609.614 322.325 610.5 321.5C611.739 321.058 612.739 320.391 613.5 319.5Z" fill="#FEFFFE"/>
</g>
<defs>
<clipPath id="clip0_1_2">
<rect width="732" height="371" fill="white"/>
</clipPath>
</defs>
</svg>
