<svg width="128" height="122" viewBox="0 0 128 122" fill="none" xmlns="http://www.w3.org/2000/svg">
<path fill-rule="evenodd" clip-rule="evenodd" d="M120.566 103.398L112.081 104.657V118.939L87.9338 108.894L30.7267 118.929V85.4632L25.9481 79.9241L30.7267 72.4343V41.4214L120.566 25.8488V56.8289L125.345 62.6309L120.566 69.8578V103.398Z" fill="black"/>
<path fill-rule="evenodd" clip-rule="evenodd" d="M96.8187 0.0396707L6.97849 15.6117C5.70686 15.8323 4.77875 16.9314 4.77875 18.2173V48.4606L0.414302 55.302C-0.212755 56.2848 -0.1209 57.5606 0.641551 58.4444L4.77875 63.2398V95.7254C4.77875 96.4267 5.05803 97.0996 5.5566 97.5957L28.849 120.799C28.8586 120.808 28.8697 120.814 28.8788 120.823C28.925 120.868 28.9701 120.914 29.0195 120.955C29.4936 121.351 30.0867 121.564 30.6946 121.571C30.7058 121.571 30.7164 121.574 30.727 121.574C30.7483 121.574 30.7695 121.57 30.7907 121.569C30.9224 121.566 31.0546 121.557 31.1868 121.534L87.6278 111.633L111.057 121.379C111.386 121.517 111.734 121.584 112.08 121.584C112.596 121.584 113.109 121.434 113.552 121.14C114.291 120.65 114.735 119.823 114.735 118.939V106.937L120.958 106.013C122.258 105.82 123.221 104.708 123.221 103.398V70.6508L127.562 64.0861C128.202 63.1182 128.135 61.8492 127.397 60.9537L123.221 55.8833V25.8489C123.221 25.138 122.934 24.4604 122.43 23.9659L99.1506 0.774901C98.6494 0.27505 97.974 0 97.2753 0C97.1234 0 96.971 0.0132236 96.8187 0.0396707ZM33.3807 85.4628C33.3807 84.8307 33.153 84.2187 32.7399 83.739L29.2441 79.6878L32.9666 73.8531C33.2374 73.4288 33.3807 72.9364 33.3807 72.4344V43.6457L117.911 28.9935V56.829C117.911 57.441 118.124 58.0335 118.514 58.5069L122.052 62.8024L118.349 68.4034C118.064 68.835 117.911 69.3412 117.911 69.858V101.118L111.689 102.042C110.388 102.235 109.426 103.347 109.426 104.658V114.969L88.9563 106.453C88.4874 106.258 87.9714 106.201 87.4728 106.289L33.3807 115.778V85.4628Z" fill="url(#paint0_linear_213_8)"/>
<path fill-rule="evenodd" clip-rule="evenodd" d="M50.8894 61.6927C51.654 61.5689 51.9726 61.0733 51.9726 59.9625V54.8847C51.9726 54.1865 51.7177 54.0373 50.8576 54.177L49.8694 54.3367C49.6125 54.3785 49.4234 54.5996 49.4234 54.8588V61.3082C49.4234 61.634 49.7165 61.8821 50.0394 61.8302L50.8894 61.6927ZM44.518 51.8375C44.518 51.5814 44.7022 51.3619 44.9555 51.317L51.5903 50.1332C55.4455 49.509 57.0384 50.8912 57.0703 54.5039V58.1853C57.0384 63.1097 55.7009 64.6902 51.0806 65.4704L49.4234 65.7381V71.4395C49.4234 71.6961 49.2387 71.9156 48.9849 71.9605L45.1413 72.6355C44.8164 72.6926 44.518 72.4435 44.518 72.1145V51.8375Z" fill="white"/>
<path fill-rule="evenodd" clip-rule="evenodd" d="M85.2308 48.8426C85.2308 48.1121 84.9117 47.91 83.9571 48.0645C83.0008 48.2195 82.6822 48.4935 82.6822 49.2551V61.4277C82.6822 62.1888 83.0008 62.3597 83.9884 62.1994C84.9117 62.0503 85.2308 61.7451 85.2308 61.0151V48.8426ZM77.5851 49.8264C77.5851 46.6845 79.3691 45.1897 83.9571 44.4465C88.544 43.7039 90.3285 44.6216 90.3285 47.763V60.4433C90.3285 63.5847 88.544 65.0795 83.9241 65.8274C79.3362 66.5706 77.5851 65.6481 77.5851 62.5067V49.8264Z" fill="white"/>
<path fill-rule="evenodd" clip-rule="evenodd" d="M107.021 57.0128C107.021 60.8206 105.683 62.0526 100.809 62.8423C96.0299 63.6156 94.2772 62.7254 94.2772 59.5517V46.9058C94.2772 43.7644 96.0612 42.269 100.713 41.5164C105.396 40.7579 107.021 41.7644 107.021 45.4776V47.1221C107.021 47.3818 106.833 47.6029 106.575 47.6447L102.89 48.2413C102.567 48.2937 102.274 48.0451 102.274 47.7193V46.1192C102.274 45.1671 101.923 44.9381 100.713 45.1338C99.6935 45.2988 99.3749 45.668 99.3749 46.6836V58.6631C99.3749 59.2343 99.7896 59.3893 100.745 59.2343C101.797 59.064 102.274 58.7652 102.274 58.2891V54.9568L101.393 55.0996C101.07 55.1514 100.777 54.9034 100.777 54.5775V51.6821C100.777 51.4229 100.966 51.2013 101.223 51.16L106.405 50.3211C106.728 50.2688 107.021 50.5168 107.021 50.8427V57.0128Z" fill="white"/>
<path fill-rule="evenodd" clip-rule="evenodd" d="M65.7027 57.5014C65.7027 57.8272 65.9963 58.0758 66.3191 58.0234L66.6589 57.9684C68.3468 57.695 68.7291 57.284 68.7291 55.7929V52.6192C68.7291 51.5085 68.2826 51.1044 67.2 51.28L66.1487 51.4503C65.8917 51.4915 65.7027 51.7126 65.7027 51.9723V57.5014ZM60.7967 48.9574C60.7967 48.7008 60.9809 48.4819 61.2342 48.4364L66.8819 47.4303C72.2016 46.5692 73.6351 47.699 73.6351 51.6661V54.205C73.6038 57.0349 72.7755 58.2477 70.2906 59.0623V59.1258C72.9667 59.2321 73.5719 59.769 73.6351 62.0117V67.6745L68.7291 68.5039V62.52C68.7291 61.6002 68.1881 61.3701 66.5315 61.6382L66.1487 61.7001C65.8917 61.7419 65.7027 61.963 65.7027 62.2227V68.5885C65.7027 68.8467 65.5158 69.0672 65.2609 69.1101L61.4168 69.7612C61.0924 69.8162 60.7967 69.5676 60.7967 69.2397V48.9574Z" fill="white"/>
<path fill-rule="evenodd" clip-rule="evenodd" d="M65.7021 96.263C65.7021 96.5893 65.9958 96.8374 66.3186 96.785L67.1681 96.648C68.4111 96.4465 68.6654 96.0879 68.6654 94.4376V92.883C68.6654 91.3274 68.3787 90.9936 67.1681 91.1894L66.1481 91.3544C65.8912 91.3962 65.7021 91.6173 65.7021 91.8764V96.263ZM65.7021 87.3455C65.7021 87.6714 65.9958 87.92 66.318 87.8676L66.8819 87.7766C68.2513 87.5233 68.5056 87.1964 68.5056 85.6407V84.3396C68.5056 82.8485 68.2194 82.5459 66.8819 82.7628L66.1487 82.8813C65.8912 82.9225 65.7021 83.1436 65.7021 83.4033V87.3455ZM60.7967 80.5708C60.7967 80.3154 60.9798 80.0964 61.2326 80.0509L67.9783 78.8269C72.3746 78.115 73.4121 79.039 73.4121 83.3869C73.4121 86.7827 72.775 87.8062 70.1951 88.7631V88.8266C72.9029 88.7054 73.7631 89.8363 73.7631 93.3268C73.7631 97.7699 72.552 99.3938 68.8565 99.9925L61.4131 101.197C61.0897 101.25 60.7967 101.001 60.7967 100.675V80.5708Z" fill="white"/>
<path fill-rule="evenodd" clip-rule="evenodd" d="M82.491 85.9651C82.491 86.2915 82.7841 86.5396 83.1069 86.4872L83.4473 86.4322C85.1352 86.1587 85.5175 85.7477 85.5175 84.2566V81.083C85.5175 79.9722 85.0709 79.5686 83.9883 79.7437L82.937 79.914C82.6795 79.9558 82.491 80.1769 82.491 80.4361V85.9651ZM77.585 77.601C77.585 77.3471 77.7666 77.1286 78.0172 77.0815L83.6703 76.0163C88.9899 75.1551 90.4235 76.1633 90.4235 80.1304V82.6693C90.3922 85.4986 89.5639 86.7115 87.079 87.526V87.5895C89.755 87.6964 90.3603 88.2327 90.4235 90.4754V95.6913C90.4235 95.9495 90.2371 96.1695 89.9812 96.2134L86.1371 96.8629C85.8132 96.9179 85.5175 96.6688 85.5175 96.3414V90.9843C85.5175 90.0644 84.9764 89.8338 83.3198 90.1025L82.937 90.1644C82.6795 90.2062 82.491 90.4273 82.491 90.6865V97.0528C82.491 97.3109 82.3041 97.531 82.0493 97.5744L78.2052 98.225C77.8802 98.28 77.585 98.0314 77.585 97.7034V77.601Z" fill="white"/>
<mask id="mask0_213_8" style="mask-type:luminance" maskUnits="userSpaceOnUse" x="44" y="81" width="12" height="23">
<path d="M54.1469 81.2668L49.5589 82.0723C49.2839 82.121 49.054 82.3093 48.9542 82.5685L44.6964 93.5731C44.6205 93.7699 44.6263 93.9884 44.7124 94.1814L48.6154 102.926C48.7646 103.26 49.1219 103.449 49.483 103.385L54.2902 102.534C54.7994 102.445 55.0888 101.902 54.8791 101.431L51.1353 93.0447C51.0493 92.8522 51.0435 92.6332 51.1194 92.4364L55.0277 82.3336C55.2332 81.8031 54.8308 81.2541 54.2892 81.2541C54.2425 81.2541 54.1952 81.2583 54.1469 81.2668Z" fill="white"/>
</mask>
<g mask="url(#mask0_213_8)">
<path fill-rule="evenodd" clip-rule="evenodd" d="M54.1469 81.2668L49.5589 82.0723C49.2839 82.121 49.054 82.3093 48.9542 82.5685L44.6964 93.5731C44.6205 93.7699 44.6263 93.9884 44.7124 94.1814L48.6154 102.926C48.7646 103.26 49.1219 103.449 49.483 103.385L54.2902 102.534C54.7994 102.445 55.0888 101.902 54.8791 101.431L51.1353 93.0447C51.0493 92.8522 51.0435 92.6332 51.1194 92.4364L55.0277 82.3336C55.2332 81.8031 54.8308 81.2541 54.2892 81.2541C54.2425 81.2541 54.1952 81.2583 54.1469 81.2668Z" fill="url(#paint1_linear_213_8)"/>
</g>
<mask id="mask1_213_8" style="mask-type:luminance" maskUnits="userSpaceOnUse" x="96" y="72" width="11" height="24">
<path d="M102.1 72.8607L97.2896 73.706C96.7794 73.7954 96.49 74.3386 96.7002 74.8099L100.464 83.2412C100.55 83.4338 100.556 83.6522 100.48 83.849L96.5712 93.9523C96.3482 94.5289 96.842 95.126 97.4526 95.0192L102.04 94.2131C102.316 94.165 102.545 93.9767 102.645 93.7169L106.903 82.7128C106.979 82.5155 106.973 82.2971 106.887 82.1051L102.966 73.3199C102.836 73.03 102.548 72.8486 102.238 72.8486C102.192 72.8486 102.146 72.8528 102.1 72.8607Z" fill="white"/>
</mask>
<g mask="url(#mask1_213_8)">
<path fill-rule="evenodd" clip-rule="evenodd" d="M102.1 72.8607L97.2896 73.706C96.7794 73.7954 96.49 74.3386 96.7002 74.8099L100.464 83.2412C100.55 83.4338 100.556 83.6522 100.48 83.849L96.5712 93.9523C96.3482 94.5289 96.842 95.126 97.4526 95.0192L102.04 94.2131C102.316 94.165 102.545 93.9767 102.645 93.7169L106.903 82.7128C106.979 82.5155 106.973 82.2971 106.887 82.1051L102.966 73.3199C102.836 73.03 102.548 72.8486 102.238 72.8486C102.192 72.8486 102.146 72.8528 102.1 72.8607Z" fill="url(#paint2_linear_213_8)"/>
</g>
<defs>
<linearGradient id="paint0_linear_213_8" x1="2669.08" y1="11484" x2="9333.58" y2="359.412" gradientUnits="userSpaceOnUse">
<stop stop-color="#1F95FD"/>
<stop offset="1" stop-color="#4FE8E4"/>
</linearGradient>
<linearGradient id="paint1_linear_213_8" x1="533.537" y1="2167.67" x2="1130.99" y2="353.864" gradientUnits="userSpaceOnUse">
<stop stop-color="#1F95FD"/>
<stop offset="1" stop-color="#4FE8E4"/>
</linearGradient>
<linearGradient id="paint2_linear_213_8" x1="525.799" y1="2512.06" x2="900.733" y2="851.821" gradientUnits="userSpaceOnUse">
<stop stop-color="#1F95FD"/>
<stop offset="1" stop-color="#4FE8E4"/>
</linearGradient>
</defs>
</svg>
