<svg width="128" height="128" viewBox="0 0 128 128" fill="none" xmlns="http://www.w3.org/2000/svg">
<path d="M39.033 75.5324C45.4419 75.5324 50.6374 70.3369 50.6374 63.928C50.6374 57.5191 45.4419 52.3236 39.033 52.3236C32.624 52.3236 27.4286 57.5191 27.4286 63.928C27.4286 70.3369 32.624 75.5324 39.033 75.5324ZM11.6044 98.7412C18.0133 98.7412 23.2088 93.5457 23.2088 87.1368C23.2088 80.7279 18.0133 75.5324 11.6044 75.5324C5.19547 75.5324 0 80.7279 0 87.1368C0 93.5457 5.19547 98.7412 11.6044 98.7412ZM116.396 98.7412C122.805 98.7412 128 93.5457 128 87.1368C128 80.7279 122.805 75.5324 116.396 75.5324C109.987 75.5324 104.791 80.7279 104.791 87.1368C104.791 93.5457 109.987 98.7412 116.396 98.7412Z" fill="black"/>
<path d="M78.2827 64.4171C77.9117 60.5401 77.7228 57.3132 74.7527 55.0452C70.9913 52.173 66.7306 54.0367 61.4822 52.1423C56.3252 50.8947 52.5 46.3159 52.5 40.8584C52.5 34.441 57.7889 29.2386 64.3132 29.2386C69.1453 29.2386 73.2998 32.0924 75.1298 36.1799C77.9305 41.4997 76.1102 46.9137 79.6291 49.6407C83.7957 52.8697 89.4131 50.5051 95.6811 53.5645C97.6951 54.49 99.3998 55.9579 100.601 57.7771C101.802 59.5963 102.5 61.7669 102.5 64.0978C102.5 69.5554 98.6748 74.1342 93.5178 75.3817C88.2694 77.2761 84.0087 75.4124 80.2473 78.2847C76.0175 81.5145 78.2819 86.918 74.8347 92.6259C72.8781 96.3844 68.9011 98.957 64.3132 98.957C57.7889 98.957 52.5 93.7546 52.5 87.3372C52.5 82.6755 55.2909 78.6549 59.3189 76.804C65.5869 73.7445 71.2043 76.1092 75.3709 72.8801C77.7746 71.0174 78.2827 68.1438 78.2827 64.4171Z" fill="#D0021B"/>
</svg>
