<svg width="128" height="128" viewBox="0 0 128 128" fill="none" xmlns="http://www.w3.org/2000/svg">
<mask id="mask0_2_94" style="mask-type:alpha" maskUnits="userSpaceOnUse" x="0" y="0" width="128" height="128">
<g clip-path="url(#clip0_2_94)">
<path d="M64.004 25.602C46.937 25.602 36.274 34.132 32.004 51.199C38.402 42.668 45.871 39.469 54.402 41.602C59.273 42.816 62.754 46.348 66.609 50.262C72.883 56.629 80.145 64 96.004 64C113.07 64 123.734 55.469 128.004 38.398C121.605 46.934 114.137 50.133 105.605 48C100.735 46.785 97.258 43.254 93.398 39.34C87.128 32.973 79.868 25.602 64.004 25.602ZM32.004 64C14.938 64 4.27403 72.531 0.00402832 89.602C6.40203 81.066 13.87 77.867 22.402 80C27.273 81.215 30.754 84.746 34.609 88.66C40.883 95.027 48.145 102.398 64.004 102.398C81.07 102.398 91.734 93.868 96.004 76.801C89.605 85.332 82.137 88.531 73.605 86.398C68.735 85.184 65.258 81.652 61.398 77.738C55.128 71.371 47.868 64 32.004 64Z" fill="#38B2AC"/>
</g>
</mask>
<g mask="url(#mask0_2_94)">
<rect x="-36" y="-24" width="186" height="176" fill="#38BDF8"/>
</g>
<defs>
<clipPath id="clip0_2_94">
<rect width="128" height="128" fill="white"/>
</clipPath>
</defs>
</svg>
