<svg width="128" height="49" viewBox="0 0 128 49" fill="none" xmlns="http://www.w3.org/2000/svg">
<path d="M19.8848 11.4556L9.94098 5.72782L0 11.4556V5.72782L9.9424 0L19.8862 5.72782L19.8848 11.4556Z" fill="white"/>
<path d="M0 16.2655H5.20826V28.8919C5.20826 32.154 7.64963 33.7441 9.94239 33.7441C12.255 33.7441 14.6779 32.1116 14.6779 28.8481V16.2655H19.8862V29.1927C19.8862 32.1978 18.9394 34.5166 17.0457 36.1067C15.1507 37.6954 12.7843 38.4693 9.89852 38.4693C7.01558 38.4693 4.6478 37.6968 2.79802 36.1067C0.946827 34.518 0 32.2853 0 29.3212V16.2655ZM64.9136 31.9577C63.3369 33.3586 61.5409 34.0449 59.493 34.0449C55.7567 34.0449 53.2516 31.921 52.9685 28.632H69.7963C69.7963 28.632 69.9095 27.5701 69.9095 26.573C69.9095 23.4804 68.9188 20.9031 66.895 18.799C64.9164 16.6948 62.3349 15.6639 59.1916 15.6639C55.8784 15.6639 53.1653 16.6948 51.0126 18.799C48.9038 20.9031 47.8282 23.6512 47.8282 27.0885V27.258C47.8282 30.6514 48.9038 33.3572 51.0126 35.3766C53.1214 37.3946 55.9194 38.4255 59.3204 38.4255C63.2747 38.4255 66.4208 36.8693 68.7815 34.1861L64.9136 31.9577ZM55.015 21.4186C56.1756 20.5162 57.5979 20.0445 59.1901 20.0445C60.696 20.0445 61.9443 20.5162 63.0213 21.4624C64.0488 22.3238 64.6036 23.3815 64.6517 24.5974H53.1016C53.2686 23.3406 53.9055 22.2814 55.0165 21.42L55.015 21.4186ZM117.341 41.3431C115.228 46.321 113.018 48.0142 109.628 48.0142H107.279V43.4077H109.178C110.344 43.4077 111.428 42.9699 112.462 40.5918L113.495 38.2109L104.584 16.2655H109.879L116.206 32.0707L122.707 16.2655H128L117.341 41.3431ZM40.1616 7.97742V18.2256C38.4548 16.7005 35.7997 15.7924 33.2324 15.7924C30.1753 15.7924 27.5939 16.8657 25.4851 19.0546C23.4188 21.2025 22.3856 23.8645 22.3856 27.0857C22.3856 30.3083 23.4188 32.9702 25.4851 35.1605C27.5939 37.3085 30.1768 38.3831 33.2324 38.3831C36.7564 38.3831 38.9841 37.0006 40.1616 35.9175V37.9101H45.3274V7.97883L40.1616 7.97742ZM38.6119 31.8123C37.3636 33.0578 35.7714 33.7032 33.9202 33.7032C32.069 33.7032 30.5631 33.0578 29.3148 31.8123C28.1119 30.5667 27.5075 28.978 27.5075 27.0885C27.5075 25.1976 28.1104 23.6089 29.3148 22.3633C30.5631 21.1178 32.069 20.4738 33.9202 20.4738C35.7714 20.4738 37.3636 21.1178 38.6119 22.3633C39.9026 23.6089 40.5508 25.1976 40.5508 27.0885C40.5508 28.978 39.9026 30.5667 38.6119 31.8123ZM96.5537 15.8362C92.6306 15.8362 90.5911 17.4602 89.1942 19.0249C88.6352 17.9616 87.0614 15.8362 83.3845 15.8362C80.2765 15.8362 78.4451 17.4037 77.5308 18.5194V16.2683H72.4103V37.9129H77.5308V25.4574C77.5308 22.537 79.3396 20.4329 81.7484 20.4329C84.2039 20.4329 85.6235 22.28 85.6235 25.2428V37.9115H90.7454V25.456C90.7454 22.4933 92.5088 20.4315 95.0479 20.4315C97.502 20.4315 98.9215 22.2786 98.9215 25.2399V37.9101H104.087V24.5113C104.087 18.8682 101.047 15.8376 96.5537 15.8376V15.8362Z" fill="white"/>
</svg>
