<svg width="128" height="31" viewBox="0 0 128 31" fill="none" xmlns="http://www.w3.org/2000/svg">
<path fill-rule="evenodd" clip-rule="evenodd" d="M0 0.104147H7.20013V7.35671H0V0.104147ZM16.733 0.129641H23.9776V7.34433H16.733V0.129641ZM17.288 0.659125H23.4474V6.81412H17.288V0.659125ZM8.4033 0.104147H15.6034V7.35671H8.4033V0.104147ZM0 8.57737H7.20013V15.8299H0V8.57737ZM16.733 8.57737H23.9324V15.8299H16.733V8.57737ZM8.4033 8.57737H15.6034V15.8299H8.4033V8.57737ZM0 17.0506H7.20013V24.3024H0V17.0506ZM16.733 17.0506H23.9324V24.3024H16.733V17.0506ZM8.4033 17.0506H15.6034V24.3024H8.4033V17.0506ZM121.614 15.0871V15.6661C121.614 18.4417 120.074 18.7702 117.55 18.7702C114.116 18.7702 113.461 17.7104 113.461 14.2036C113.461 12.3872 113.461 10.5205 113.536 8.80533C113.536 7.99836 113.612 7.01441 114.192 6.3582C114.925 5.44999 116.136 5.44999 117.222 5.44999H118.281C120.806 5.44999 121.538 6.18121 121.538 8.72959H128V8.3261C127.924 6.43394 128 4.46603 127.091 2.85136C125.552 0.152219 122.522 0.000727916 119.569 0.000727916H117.626C109.522 0.000727916 106.822 2.19587 106.822 10.5205V13.5474C106.923 19.0214 107.553 23.5122 113.865 24.1684C115.732 24.3192 117.551 24.3192 119.418 24.3192C121.286 24.3192 123.431 24.0672 125.148 23.1087C128 21.4686 128 18.7701 128 15.7433V15.0871H121.614ZM104.837 7.66989C104.837 7.34142 104.913 7.08942 104.913 6.8367C104.913 0.0757456 100.748 0 95.1704 0C93.7823 0 92.3941 -2.71319e-06 91.0052 0.0757421C86.6878 0.378721 85.0476 2.67437 85.0476 6.76095C85.0476 14.7579 89.2128 14.1016 96.1544 14.6821C98.048 14.7579 99.1827 14.7579 99.1827 16.8022C99.1827 19.0214 97.871 19.1736 96.3307 19.1736H93.5543C91.5099 19.1736 91.1064 18.1139 91.1064 16.398H84.9726C84.9726 23.9914 88.4051 24.3185 95.0947 24.3185H96.6591C99.1827 24.3185 101.884 24.0665 103.853 22.4525C105.569 21.0658 105.569 18.4409 105.569 16.3988C105.569 8.62835 99.0313 9.78856 93.3773 9.28457C91.837 9.13308 91.4327 8.47759 91.4327 7.01441C91.4327 4.97075 93.2251 4.79377 94.8667 4.79377H95.4982C97.871 4.79377 98.7785 5.12224 98.7785 7.66989H104.837ZM83.079 0.0764756H76.6166V24.0672H83.079V0.0764756ZM74.4958 0.0764756H68.1346L68.4631 18.3659H68.1346L61.4203 0.0764756H50.5407V24.0672H56.9273L56.5989 5.70198H56.9273L63.6417 24.0672H74.4958V0.0764756ZM41.9838 0.0764756V15.4148C41.9838 18.6951 40.7718 18.7702 37.7428 18.7702C35.3699 18.7702 33.9817 18.5167 33.9817 15.7433V0.0764756H27.5194V15.7433C27.5194 23.9922 31.5331 24.3192 38.399 24.3192H39.3079C43.3719 24.3192 47.4359 23.5129 48.2691 18.6944C48.2691 17.5335 48.4206 16.3988 48.4206 15.3391V0.0764756H41.9838ZM30.531 27.3861V29.5099C30.531 29.9192 30.3678 29.9192 29.9593 29.9192C29.5499 29.9192 29.3052 29.9192 29.3052 29.5922V27.3861H28.3242V29.5922C28.3242 30.6533 28.9782 30.7356 30.0408 30.7356H30.1224C30.6941 30.7356 31.4297 30.5718 31.4297 29.9192C31.5113 29.7553 31.5113 29.5922 31.5113 29.5099V27.3861H30.531ZM35.5993 27.3861H34.6183V29.9199L33.5557 27.3861H31.9213V30.6533H32.9024V28.204L33.965 30.6533H35.6001L35.5993 27.3861ZM36.989 27.3861H36.0079V30.6533H36.989V27.3861ZM39.8491 27.3861L39.0319 29.9199L38.2963 27.3861H37.2337L38.2963 30.6533H39.7675L40.8301 27.3861H39.8491ZM41.9743 28.1217H43.6093V27.3861H40.994V30.6533H43.6917V29.9192H41.975V29.3475H43.5278V28.6935H41.975L41.9743 28.1217ZM44.0179 30.6533H44.999V29.8369H45.7346C46.0616 29.8369 46.1432 30.0008 46.1432 30.2455V30.6541H47.1242V30.0823C47.1242 29.6738 46.9603 29.4298 46.4709 29.4298C47.1242 29.2659 47.1242 29.0212 47.1242 28.531C47.1242 27.6337 46.7972 27.3876 45.8977 27.3876H44.0179V30.6533ZM44.999 29.0205V28.204H45.7346C46.1432 28.204 46.1432 28.3679 46.1432 28.6126C46.1432 28.8573 46.1432 29.0212 45.8161 29.0212L44.999 29.0205ZM50.4752 28.4487V28.3679C50.4752 27.3861 49.7396 27.3861 49.004 27.3861H48.3507C47.6967 27.4684 47.4519 27.7131 47.4519 28.3679C47.4519 29.429 48.1052 29.3482 49.0863 29.429C49.4133 29.429 49.5772 29.4291 49.5772 29.7561C49.5772 30.0008 49.3317 30.0008 49.0863 30.0008H48.7593C48.433 30.0008 48.3507 29.9199 48.3507 29.5922H47.3696C47.3696 30.6533 47.9421 30.7356 48.9224 30.7356H49.1679C49.5772 30.7356 49.985 30.6533 50.2305 30.4086C50.4752 30.2448 50.4752 29.9192 50.4752 29.5922C50.4752 28.5296 49.4941 28.6935 48.677 28.6935C48.4323 28.6935 48.35 28.5296 48.35 28.3679C48.35 28.0409 48.677 28.0409 48.9217 28.0409H49.0033C49.3303 28.0409 49.4934 28.1217 49.4934 28.4495L50.4752 28.4487ZM51.8648 27.3861H50.8838V30.6533H51.8648V27.3861ZM52.355 30.6533H54.4802C55.7067 30.6533 55.7067 29.9192 55.7067 29.0205V28.6119C55.7067 27.7954 55.2158 27.3854 54.2347 27.3854H52.355V30.6533ZM53.336 29.9192V28.204H54.1532C54.317 28.204 54.4802 28.204 54.6433 28.3679C54.7249 28.4487 54.7249 28.6935 54.7249 28.8573V29.429C54.7249 29.7561 54.4802 29.9199 54.1524 29.9199L53.336 29.9192ZM58.2398 30.0816L58.4036 30.6533H59.3847L58.3221 27.3861H56.8501L55.7067 30.6533H56.6877L56.8509 30.0816H58.2398ZM57.9943 29.5099H57.0956L57.5857 28.0402L57.9943 29.5099ZM59.4662 30.6533H61.5915C62.8172 30.6533 62.8172 29.9192 62.8172 29.0205V28.6119C62.8172 27.7954 62.3271 27.3854 61.4276 27.3854H59.4662V30.6533ZM60.4473 29.9192V28.204H61.2644C61.4283 28.204 61.6738 28.204 61.7546 28.3679C61.8362 28.4487 61.8362 28.6935 61.8362 28.8573V29.429C61.8362 29.7561 61.673 29.9199 61.2637 29.9199L60.4473 29.9192ZM64.1253 28.1217H65.7603V27.3861H63.1442V30.6533H65.8412V29.9192H64.1253V29.3475H65.678V28.6935H64.1253V28.1217ZM67.6394 30.6533H69.6838C70.9103 30.6533 70.9103 29.9192 70.9103 29.0205V28.6119C70.9103 27.7954 70.4194 27.3854 69.5206 27.3854H67.6401L67.6394 30.6533ZM68.6212 29.9192V28.204H69.4376C69.6015 28.204 69.7646 28.204 69.9285 28.3679V29.429C69.9285 29.7561 69.7646 29.9199 69.4376 29.9199L68.6212 29.9192ZM72.2992 28.1217H73.9335V27.3861H71.3174V30.6533H74.0143V29.9192H72.2992V29.3475H73.8512V28.6935H72.2992V28.1217ZM78.7564 28.4487V28.3679C78.7564 27.3861 78.0208 27.3861 77.2852 27.3861H76.6312C75.9772 27.4684 75.7324 27.7131 75.7324 28.3679C75.7324 29.429 76.385 29.3482 77.3668 29.429C77.6938 29.429 77.8577 29.4291 77.8577 29.7561C77.8577 30.0008 77.6115 30.0008 77.3668 30.0008H77.0398C76.7127 30.0008 76.6312 29.9199 76.6312 29.5922H75.6494C75.6494 30.6533 76.2226 30.7356 77.2029 30.7356H77.4476C77.8569 30.7356 78.2655 30.6533 78.5102 30.4086C78.7564 30.2448 78.7564 29.9192 78.7564 29.5922C78.7564 28.5296 77.7746 28.6935 76.9582 28.6935C76.712 28.6935 76.6312 28.5296 76.6312 28.3679C76.6312 28.0409 76.9582 28.0409 77.2029 28.0409H77.3668C77.6115 28.0409 77.7754 28.1217 77.7754 28.4495L78.7564 28.4487ZM81.3718 30.0816L81.5357 30.6533H82.516L81.3725 27.3861H79.9829L78.838 30.6533H79.8197L79.9836 30.0816H81.3718ZM81.1263 29.5099H80.2276L80.6362 28.0402L81.1263 29.5099ZM86.2755 27.3861H85.2952V29.9199L84.2326 27.3861H82.5968V30.6533H83.5786L83.4963 28.204H83.5786L84.6412 30.6533H86.2755V27.3861ZM88.3199 28.204H89.3002V27.3861H86.4394V28.204H87.3381V30.6533H88.3199V28.204ZM91.507 30.0816L91.6709 30.6533H92.6512L91.5886 27.3861H90.1174L88.9725 30.6533H89.9543L90.199 30.0816H91.507ZM91.2616 29.5099H90.4451L90.8537 28.0402L91.2616 29.5099ZM96.3299 29.429V29.5099C96.3299 29.9192 96.0838 29.9192 95.7582 29.9192C95.185 29.9192 95.185 29.8369 95.185 29.3475V28.6119C95.185 28.448 95.185 28.3672 95.2673 28.2849C95.3482 28.121 95.512 28.121 95.6759 28.121H95.9206C96.2476 28.121 96.3299 28.2033 96.3299 28.5296H97.3102C97.3102 28.2849 97.3102 28.0402 97.1464 27.7954C96.9825 27.3861 96.4938 27.3861 96.0838 27.3861H95.7582C94.5317 27.3861 94.1224 27.7131 94.1224 28.8573V29.2659C94.2047 30.0015 94.2047 30.5732 95.185 30.7371H96.0029C96.3299 30.7371 96.5746 30.6548 96.8208 30.5732C97.3102 30.3285 97.3102 29.9207 97.3102 29.5929V29.429H96.3299ZM97.5557 30.6533H98.536V29.8369H99.2716C99.5986 29.8369 99.6809 30.0008 99.6809 30.2455V30.6541H100.661V30.0823C100.661 29.6738 100.497 29.4298 100.009 29.4298C100.661 29.2659 100.661 29.0212 100.661 28.531C100.661 27.6337 100.334 27.3876 99.4347 27.3876H97.5557V30.6533ZM98.536 29.0205V28.204H99.2716C99.6809 28.204 99.6809 28.3679 99.6809 28.6126C99.6809 28.8573 99.6809 29.0212 99.3539 29.0212L98.536 29.0205ZM103.277 27.3861V29.5099C103.277 29.9192 103.031 29.9192 102.623 29.9192C102.296 29.9192 102.052 29.9192 102.052 29.5922V27.3861H101.07V29.5922C101.07 30.6533 101.643 30.7356 102.706 30.7356H102.786C103.44 30.7356 104.094 30.5718 104.176 29.9192V27.3861H103.277ZM107.445 27.3861H104.584V28.1217H106.137V28.204L104.421 29.9192V30.6533H107.445V29.9192H105.647L107.445 28.121V27.3861ZM109.162 30.6533H111.287C112.514 30.6533 112.514 29.9192 112.514 29.0205V28.6119C112.514 27.7954 112.023 27.3854 111.124 27.3854H109.163V30.6533H109.162ZM110.142 29.9192V28.204H110.96C111.123 28.204 111.368 28.204 111.45 28.3679C111.531 28.4487 111.531 28.6935 111.531 28.8573V29.429C111.531 29.7561 111.367 29.9199 110.96 29.9199L110.142 29.9192ZM112.758 29.0205V29.3475C112.758 29.5922 112.758 29.7561 112.84 30C113.004 30.6526 113.82 30.7356 114.392 30.7356C116.109 30.7356 116.109 30.0816 116.109 28.8566C116.109 27.7131 115.618 27.3854 114.392 27.3854C113.74 27.3854 113.004 27.5493 112.758 28.2841V29.0205ZM113.74 29.0205C113.74 28.204 113.74 28.1217 114.556 28.1217C115.047 28.1217 115.129 28.3679 115.129 28.7758V29.2652C115.129 29.8369 115.047 29.9192 114.392 29.9192C113.74 29.9192 113.74 29.7553 113.74 29.2652V29.0205ZM120.851 28.4487V28.3679C120.851 27.3861 120.115 27.3861 119.379 27.3861H118.726C118.072 27.4684 117.828 27.7131 117.828 28.3679C117.828 29.429 118.48 29.3482 119.462 29.429C119.789 29.429 119.953 29.4291 119.953 29.7561C119.953 30.0008 119.707 30.0008 119.462 30.0008H119.135C118.808 30.0008 118.726 29.9199 118.726 29.5922H117.745C117.745 30.6533 118.318 30.7356 119.298 30.7356H119.543C119.952 30.7356 120.361 30.6533 120.605 30.4086C120.852 30.2448 120.852 29.9192 120.852 29.5922C120.852 28.5296 119.87 28.6935 119.053 28.6935C118.807 28.6935 118.726 28.5296 118.726 28.3679C118.726 28.0409 119.053 28.0409 119.298 28.0409H119.462C119.707 28.0409 119.871 28.1217 119.871 28.4495L120.851 28.4487ZM123.465 27.3861V29.5099C123.465 29.9192 123.22 29.9192 122.812 29.9192C122.485 29.9192 122.24 29.9192 122.24 29.5922V27.3861H121.259V29.5922C121.259 30.6533 121.83 30.7356 122.893 30.7356H122.975C123.628 30.7356 124.283 30.5718 124.365 29.9192C124.446 29.7553 124.446 29.5922 124.446 29.5099V27.3861H123.465ZM125.836 27.3861H124.854V30.6533H127.307V29.9192H125.835V27.3861H125.836Z" fill="#295BA7"/>
</svg>
