<svg width="192" height="47" viewBox="0 0 192 47" fill="none" xmlns="http://www.w3.org/2000/svg">
<path fill-rule="evenodd" clip-rule="evenodd" d="M0 0.156221H10.8002V11.0351H0V0.156221ZM25.0996 0.194462H35.9664V11.0165H25.0996V0.194462ZM25.932 0.988687H35.1711V10.2212H25.932V0.988687ZM12.605 0.156221H23.4051V11.0351H12.605V0.156221ZM0 12.8661H10.8002V23.7449H0V12.8661ZM25.0996 12.8661H35.8987V23.7449H25.0996V12.8661ZM12.605 12.8661H23.4051V23.7449H12.605V12.8661ZM0 25.5759H10.8002V36.4536H0V25.5759ZM25.0996 25.5759H35.8987V36.4536H25.0996V25.5759ZM12.605 25.5759H23.4051V36.4536H12.605V25.5759ZM182.421 22.6306V23.4991C182.421 27.6625 180.111 28.1552 176.325 28.1552C171.174 28.1552 170.191 26.5657 170.191 21.3054C170.191 18.5808 170.191 15.7808 170.305 13.208C170.305 11.9975 170.418 10.5216 171.288 9.5373C172.387 8.17498 174.205 8.17498 175.832 8.17498H177.422C181.21 8.17498 182.306 9.27182 182.306 13.0944H192V12.4892C191.886 9.65091 192 6.69905 190.637 4.27703C188.328 0.228328 183.783 0.00109187 179.354 0.00109187H176.439C164.283 0.00109187 160.233 3.29381 160.233 15.7808V20.3211C160.385 28.5321 161.33 35.2683 170.797 36.2526C173.598 36.4788 176.326 36.4788 179.127 36.4788C181.928 36.4788 185.147 36.1008 187.722 34.6631C192 32.2028 192 28.1552 192 23.6149V22.6306H182.421ZM157.256 11.5048C157.256 11.0121 157.37 10.6341 157.37 10.255C157.37 0.113618 151.122 0 142.756 0C140.673 0 138.591 -4.06978e-06 136.508 0.113613C130.032 0.568082 127.571 4.01156 127.571 10.1414C127.571 22.1368 133.819 21.1525 144.232 22.0232C147.072 22.1368 148.774 22.1368 148.774 25.2034C148.774 28.5321 146.807 28.7605 144.496 28.7605H140.331C137.265 28.7605 136.66 27.1709 136.66 24.597H127.459C127.459 35.9872 132.608 36.4777 142.642 36.4777H144.989C148.774 36.4777 152.826 36.0997 155.779 33.6788C158.354 31.5987 158.354 27.6614 158.354 24.5981C158.354 12.9425 148.547 14.6828 140.066 13.9269C137.755 13.6996 137.149 12.7164 137.149 10.5216C137.149 7.45613 139.838 7.19066 142.3 7.19066H143.247C146.807 7.19066 148.168 7.68336 148.168 11.5048H157.256ZM124.618 0.114713H114.925V36.1008H124.618V0.114713ZM111.744 0.114713H102.202L102.695 27.5489H102.202L92.1305 0.114713H75.8111V36.1008H85.391L84.8983 8.55298H85.391L95.4625 36.1008H111.744V0.114713ZM62.9756 0.114713V23.1222C62.9756 28.0427 61.1577 28.1552 56.6141 28.1552C53.0549 28.1552 50.9726 27.775 50.9726 23.6149V0.114713H41.2791V23.6149C41.2791 35.9883 47.2997 36.4788 57.5985 36.4788H58.9619C65.0579 36.4788 71.1539 35.2694 72.4037 28.0416C72.4037 26.3002 72.6309 24.5981 72.6309 23.0086V0.114713H62.9756ZM45.7965 41.0792V44.2648C45.7965 44.8788 45.5518 44.8788 44.9389 44.8788C44.3249 44.8788 43.9578 44.8788 43.9578 44.3883V41.0792H42.4863V44.3883C42.4863 45.98 43.4673 46.1035 45.0612 46.1035H45.1836C46.0412 46.1035 47.1446 45.8577 47.1446 44.8788C47.2669 44.633 47.2669 44.3883 47.2669 44.2648V41.0792H45.7965ZM53.399 41.0792H51.9274V44.8799L50.3335 41.0792H47.882V45.98H49.3536V42.306L50.9475 45.98H53.4001L53.399 41.0792ZM55.4834 41.0792H54.0119V45.98H55.4834V41.0792ZM59.7736 41.0792L58.5478 44.8799L57.4444 41.0792H55.8505L57.4444 45.98H59.6512L61.2451 41.0792H59.7736ZM62.9614 42.1826H65.414V41.0792H61.491V45.98H65.5375V44.8788H62.9625V44.0212H65.2917V43.0402H62.9625L62.9614 42.1826ZM66.0269 45.98H67.4985V44.7554H68.6019C69.0924 44.7554 69.2147 45.0012 69.2147 45.3682V45.9811H70.6863V45.1235C70.6863 44.5106 70.4405 44.1447 69.7063 44.1447C70.6863 43.8989 70.6863 43.5318 70.6863 42.7965C70.6863 41.4506 70.1958 41.0814 68.8466 41.0814H66.0269V45.98ZM67.4985 43.5307V42.306H68.6019C69.2147 42.306 69.2147 42.5518 69.2147 42.9189C69.2147 43.286 69.2147 43.5318 68.7242 43.5318L67.4985 43.5307ZM75.7128 42.6731V42.5518C75.7128 41.0792 74.6094 41.0792 73.506 41.0792H72.526C71.545 41.2026 71.1779 41.5697 71.1779 42.5518C71.1779 44.1436 72.1579 44.0223 73.6294 44.1436C74.1199 44.1436 74.3657 44.1436 74.3657 44.6341C74.3657 45.0012 73.9976 45.0012 73.6294 45.0012H73.1389C72.6495 45.0012 72.526 44.8799 72.526 44.3883H71.0545C71.0545 45.98 71.9132 46.1035 73.3836 46.1035H73.7518C74.3658 46.1035 74.9775 45.98 75.3457 45.6129C75.7128 45.3671 75.7128 44.8788 75.7128 44.3883C75.7128 42.7944 74.2412 43.0402 73.0154 43.0402C72.6484 43.0402 72.5249 42.7944 72.5249 42.5518C72.5249 42.0613 73.0155 42.0613 73.3825 42.0613H73.5049C73.9954 42.0613 74.2401 42.1826 74.2401 42.6742L75.7128 42.6731ZM77.7972 41.0792H76.3257V45.98H77.7972V41.0792ZM78.5324 45.98H81.7203C83.56 45.98 83.56 44.8788 83.56 43.5307V42.9178C83.56 41.6931 82.8237 41.0781 81.3521 41.0781H78.5324V45.98ZM80.004 44.8788V42.306H81.2298C81.4756 42.306 81.7203 42.306 81.965 42.5518C82.0873 42.6731 82.0873 43.0402 82.0873 43.286V44.1436C82.0873 44.6341 81.7203 44.8799 81.2287 44.8799L80.004 44.8788ZM87.3596 45.1224L87.6054 45.98H89.077L87.4831 41.0792H85.2752L83.56 45.98H85.0316L85.2763 45.1224H87.3596ZM86.9915 44.2648H85.6434L86.3786 42.0602L86.9915 44.2648ZM89.1994 45.98H92.3872C94.2258 45.98 94.2258 44.8788 94.2258 43.5307V42.9178C94.2258 41.6931 93.4906 41.0781 92.1414 41.0781H89.1994V45.98ZM90.6709 44.8788V42.306H91.8967C92.1425 42.306 92.5106 42.306 92.6319 42.5518C92.7543 42.6731 92.7543 43.0402 92.7543 43.286V44.1436C92.7543 44.6341 92.5095 44.8799 91.8956 44.8799L90.6709 44.8788ZM96.1879 42.1826H98.6405V41.0792H94.7163V45.98H98.7618V44.8788H96.1879V44.0212H98.5171V43.0402H96.1879V42.1826ZM101.459 45.98H104.526C106.365 45.98 106.365 44.8788 106.365 43.5307V42.9178C106.365 41.6931 105.629 41.0781 104.281 41.0781H101.46L101.459 45.98ZM102.932 44.8788V42.306H104.156C104.402 42.306 104.647 42.306 104.893 42.5518V44.1436C104.893 44.6341 104.647 44.8799 104.156 44.8799L102.932 44.8788ZM108.449 42.1826H110.9V41.0792H106.976V45.98H111.022V44.8788H108.449V44.0212H110.777V43.0402H108.449V42.1826ZM118.135 42.6731V42.5518C118.135 41.0792 117.031 41.0792 115.928 41.0792H114.947C113.966 41.2026 113.599 41.5697 113.599 42.5518C113.599 44.1436 114.578 44.0223 116.05 44.1436C116.541 44.1436 116.786 44.1436 116.786 44.6341C116.786 45.0012 116.417 45.0012 116.05 45.0012H115.56C115.069 45.0012 114.947 44.8799 114.947 44.3883H113.474C113.474 45.98 114.334 46.1035 115.804 46.1035H116.171C116.785 46.1035 117.398 45.98 117.765 45.6129C118.135 45.3671 118.135 44.8788 118.135 44.3883C118.135 42.7944 116.662 43.0402 115.437 43.0402C115.068 43.0402 114.947 42.7944 114.947 42.5518C114.947 42.0613 115.437 42.0613 115.804 42.0613H116.05C116.417 42.0613 116.663 42.1826 116.663 42.6742L118.135 42.6731ZM122.058 45.1224L122.303 45.98H123.774L122.059 41.0792H119.974L118.257 45.98H119.73L119.975 45.1224H122.058ZM121.69 44.2648H120.341L120.954 42.0602L121.69 44.2648ZM129.413 41.0792H127.943V44.8799L126.349 41.0792H123.895V45.98H125.368L125.244 42.306H125.368L126.962 45.98H129.413V41.0792ZM132.48 42.306H133.95V41.0792H129.659V42.306H131.007V45.98H132.48V42.306ZM137.261 45.1224L137.506 45.98H138.977L137.383 41.0792H135.176L133.459 45.98H134.931L135.298 45.1224H137.261ZM136.892 44.2648H135.668L136.281 42.0602L136.892 44.2648ZM144.495 44.1436V44.2648C144.495 44.8788 144.126 44.8788 143.637 44.8788C142.778 44.8788 142.778 44.7554 142.778 44.0212V42.9178C142.778 42.672 142.778 42.5507 142.901 42.4273C143.022 42.1815 143.268 42.1815 143.514 42.1815H143.881C144.371 42.1815 144.495 42.3049 144.495 42.7944H145.965C145.965 42.4273 145.965 42.0602 145.72 41.6932C145.474 41.0792 144.741 41.0792 144.126 41.0792H143.637C141.798 41.0792 141.184 41.5697 141.184 43.286V43.8989C141.307 45.0023 141.307 45.8599 142.778 46.1057H144.004C144.495 46.1057 144.862 45.9822 145.231 45.8598C145.965 45.4928 145.965 44.881 145.965 44.3894V44.1436H144.495ZM146.334 45.98H147.804V44.7554H148.907C149.398 44.7554 149.521 45.0012 149.521 45.3682V45.9811H150.992V45.1235C150.992 44.5106 150.746 44.1447 150.013 44.1447C150.992 43.8989 150.992 43.5318 150.992 42.7965C150.992 41.4506 150.501 41.0814 149.152 41.0814H146.334V45.98ZM147.804 43.5307V42.306H148.907C149.521 42.306 149.521 42.5518 149.521 42.9189C149.521 43.286 149.521 43.5318 149.031 43.5318L147.804 43.5307ZM154.916 41.0792V44.2648C154.916 44.8788 154.547 44.8788 153.935 44.8788C153.444 44.8788 153.077 44.8788 153.077 44.3883V41.0792H151.605V44.3883C151.605 45.98 152.464 46.1035 154.058 46.1035H154.18C155.161 46.1035 156.141 45.8577 156.264 44.8788V41.0792H154.916ZM161.167 41.0792H156.876V42.1826H159.206V42.306L156.631 44.8788V45.98H161.167V44.8788H158.47L161.167 42.1815V41.0792ZM163.743 45.98H166.931C168.771 45.98 168.771 44.8788 168.771 43.5307V42.9178C168.771 41.6931 168.034 41.0781 166.686 41.0781H163.744V45.98H163.743ZM165.213 44.8788V42.306H166.439C166.685 42.306 167.052 42.306 167.176 42.5518C167.297 42.6731 167.297 43.0402 167.297 43.286V44.1436C167.297 44.6341 167.051 44.8799 166.439 44.8799L165.213 44.8788ZM169.137 43.5307V44.0212C169.137 44.3883 169.137 44.6341 169.26 45.0001C169.506 45.9789 170.731 46.1035 171.588 46.1035C174.163 46.1035 174.163 45.1224 174.163 43.2849C174.163 41.5697 173.427 41.0781 171.588 41.0781C170.609 41.0781 169.506 41.3239 169.137 42.4262V43.5307ZM170.609 43.5307C170.609 42.306 170.609 42.1826 171.834 42.1826C172.57 42.1826 172.694 42.5518 172.694 43.1636V43.8978C172.694 44.7554 172.57 44.8788 171.588 44.8788C170.609 44.8788 170.609 44.633 170.609 43.8978V43.5307ZM181.276 42.6731V42.5518C181.276 41.0792 180.173 41.0792 179.068 41.0792H178.09C177.108 41.2026 176.741 41.5697 176.741 42.5518C176.741 44.1436 177.72 44.0223 179.193 44.1436C179.683 44.1436 179.929 44.1436 179.929 44.6341C179.929 45.0012 179.56 45.0012 179.193 45.0012H178.702C178.212 45.0012 178.09 44.8799 178.09 44.3883H176.617C176.617 45.98 177.477 46.1035 178.947 46.1035H179.314C179.928 46.1035 180.541 45.98 180.908 45.6129C181.277 45.3671 181.277 44.8788 181.277 44.3883C181.277 42.7944 179.805 43.0402 178.58 43.0402C178.211 43.0402 178.09 42.7944 178.09 42.5518C178.09 42.0613 178.58 42.0613 178.947 42.0613H179.193C179.56 42.0613 179.806 42.1826 179.806 42.6742L181.276 42.6731ZM185.197 41.0792V44.2648C185.197 44.8788 184.83 44.8788 184.218 44.8788C183.728 44.8788 183.361 44.8788 183.361 44.3883V41.0792H181.888V44.3883C181.888 45.98 182.746 46.1035 184.34 46.1035H184.463C185.442 46.1035 186.424 45.8577 186.547 44.8788C186.669 44.633 186.669 44.3883 186.669 44.2648V41.0792H185.197ZM188.754 41.0792H187.282V45.98H190.96V44.8788H188.753V41.0792H188.754Z" fill="white"/>
</svg>
