<svg width="128" height="128" viewBox="0 0 128 128" fill="none" xmlns="http://www.w3.org/2000/svg">
<path d="M127.331 18.9324L67.3187 126.245C66.0797 128.461 62.8964 128.474 61.6387 126.269L0.436375 18.9428C-0.933758 16.5401 1.12082 13.6297 3.84355 14.1164L63.9202 24.8547C64.3034 24.9232 64.6958 24.9226 65.079 24.8527L123.899 14.1318C126.613 13.6372 128.677 16.525 127.331 18.9324Z" fill="url(#paint0_linear_249_49)"/>
<path d="M92.5378 0.0314913L48.1269 8.73364C47.3969 8.87666 46.8565 9.49526 46.8125 10.2376L44.0806 56.3771C44.0163 57.4638 45.0144 58.3073 46.075 58.0627L58.4397 55.2091C59.5966 54.9423 60.6419 55.9612 60.4041 57.1246L56.7306 75.1132C56.4834 76.3239 57.62 77.3592 58.8024 77.0001L66.4394 74.6798C67.6233 74.3203 68.7609 75.3585 68.5105 76.5702L62.6726 104.826C62.3073 106.594 64.6582 107.557 65.6386 106.042L66.2936 105.03L102.482 32.8096C103.088 31.6003 102.043 30.2215 100.715 30.4778L87.9876 32.9342C86.7916 33.1648 85.774 32.0509 86.1116 30.8808L94.4185 2.08384C94.7564 0.911707 93.7352 -0.203088 92.5378 0.0314913Z" fill="url(#paint1_linear_249_49)"/>
<defs>
<linearGradient id="paint0_linear_249_49" x1="-1.05792" y1="10.2812" x2="73.6322" y2="111.716" gradientUnits="userSpaceOnUse">
<stop stop-color="#41D1FF" stop-opacity="0.7"/>
<stop offset="1" stop-color="#BD34FE" stop-opacity="0.7"/>
</linearGradient>
<linearGradient id="paint1_linear_249_49" x1="60.472" y1="2.39411" x2="73.9831" y2="95.0787" gradientUnits="userSpaceOnUse">
<stop stop-color="#FFEA83"/>
<stop offset="0.0833333" stop-color="#FFDD35"/>
<stop offset="1" stop-color="#FFA800"/>
</linearGradient>
</defs>
</svg>
