<?xml version="1.0" standalone="no"?>
<!DOCTYPE svg PUBLIC "-//W3C//DTD SVG 20010904//EN"
 "http://www.w3.org/TR/2001/REC-SVG-20010904/DTD/svg10.dtd">
<svg version="1.0" xmlns="http://www.w3.org/2000/svg"
 width="700.000000pt" height="700.000000pt" viewBox="0 0 700.000000 700.000000"
 preserveAspectRatio="xMidYMid meet">
<metadata>
Created by potrace 1.14, written by Peter Selinger 2001-2017
</metadata>
<g transform="translate(0.000000,700.000000) scale(0.100000,-0.100000)"
fill="#000000" stroke="none">
<path d="M4290 4900 c0 -489 -1 -890 -3 -890 -1 0 -34 31 -72 68 -165 160
-363 261 -595 303 -109 20 -401 17 -515 -4 -220 -43 -426 -131 -585 -251 -107
-80 -268 -246 -342 -351 -206 -296 -299 -636 -285 -1044 10 -294 63 -502 188
-740 72 -137 150 -242 274 -366 199 -200 419 -322 695 -387 127 -29 423 -36
560 -13 250 41 443 139 614 311 l76 77 0 -167 0 -166 405 0 405 0 0 2255 0
2255 -410 0 -410 0 0 -890z m-610 -1271 c152 -24 271 -84 387 -193 123 -116
207 -265 244 -431 20 -91 18 -323 -4 -418 -40 -171 -106 -289 -231 -412 -66
-65 -99 -90 -176 -127 -128 -63 -222 -83 -380 -81 -92 1 -146 7 -204 22 -295
78 -502 310 -566 635 -17 86 -14 286 5 381 56 269 241 494 481 585 125 47 301
62 444 39z"/>
</g>
</svg>
