<svg width="128" height="128" viewBox="0 0 128 128" fill="none" xmlns="http://www.w3.org/2000/svg">
<path d="M116.65 64.4448C98.756 64.796 102.483 76.124 89.872 78.9888C77.0608 81.8992 75.0384 47.7 62.2304 47.7C49.4208 47.7 46.5832 80.9208 30.544 103.727L30.0864 104.373L64.4744 124.223L116.65 94.1024V64.4448Z" fill="#D5D5D5"/>
<path d="M116.65 63.4136C110.66 55.7256 106.597 46.8872 97.8551 46.8872C82.3855 46.8872 86.4559 72.1232 69.3591 72.1232C52.2607 72.1232 50.4631 44.9784 31.0935 70.4952C24.9215 78.6256 19.9535 87.6912 16.0511 96.2696L64.4743 124.224L116.65 94.1032V63.4136Z" fill="#C7C7C7"/>
<path opacity="0.8" d="M12.2968 73.8672C18.1672 57.6104 20.7008 44.444 31.908 44.444C49.0048 44.444 53.0744 92.4752 67.7312 87.5888C82.3856 82.7048 80.7568 56.6536 103.554 56.6536C107.894 56.6536 112.324 59.312 116.651 63.612V94.1024L64.4752 124.223L12.2976 94.1024L12.2968 73.8672Z" fill="#A8A8A8"/>
<path d="M64.4336 128L9 96.0008V32L64.4336 0L119.867 32V96L64.4336 128ZM15.5128 92.2408L64.4336 120.482L113.354 92.2408V35.76L64.4336 7.5192L15.5128 35.76V92.2408Z" fill="#A8A8A8"/>
</svg>
