<svg width="95" height="91" viewBox="0 0 95 91" fill="none" xmlns="http://www.w3.org/2000/svg">
<path fill-rule="evenodd" clip-rule="evenodd" d="M89.4069 76.6752L83.1142 77.6095V88.2001L65.208 80.751L22.7856 88.193V63.3759L19.242 59.2684L22.7856 53.7142V30.7163L89.4069 19.1683V42.1419L92.9505 46.4444L89.4069 51.8036V76.6752Z" fill="black"/>
<path fill-rule="evenodd" clip-rule="evenodd" d="M71.7966 0.0294181L5.17496 11.577C4.23196 11.7406 3.54372 12.5556 3.54372 13.5092V35.9364L0.307229 41.0096C-0.15777 41.7384 -0.0896541 42.6845 0.475747 43.3399L3.54372 46.896V70.9859C3.54372 71.506 3.75082 72.0049 4.12054 72.3728L21.3932 89.5797C21.4003 89.5864 21.4086 89.5907 21.4153 89.5973C21.4495 89.6307 21.483 89.6644 21.5196 89.6954C21.8712 89.9884 22.311 90.1465 22.7618 90.1516C22.7701 90.1516 22.778 90.1543 22.7859 90.1543C22.8016 90.1543 22.8174 90.1512 22.8331 90.1508C22.9308 90.1484 23.0288 90.1418 23.1268 90.1245L64.9811 82.7821L82.3554 90.0096C82.5991 90.1116 82.8574 90.1614 83.1141 90.1614C83.4968 90.1614 83.8772 90.05 84.2051 89.8323C84.7536 89.4691 85.0828 88.856 85.0828 88.2002V79.3002L89.6973 78.615C90.6612 78.4718 91.3754 77.6469 91.3754 76.6753V52.3917L94.5946 47.5236C95.069 46.8058 95.0198 45.8648 94.4725 45.2007L91.3754 41.4407V19.1684C91.3754 18.6413 91.1628 18.1388 90.7887 17.7721L73.5259 0.574634C73.1542 0.203966 72.6534 0 72.1352 0C72.0226 0 71.9096 0.00980604 71.7966 0.0294181ZM24.7537 63.3756C24.7537 62.9069 24.5848 62.4531 24.2785 62.0973L21.6862 59.0931L24.4466 54.7663C24.6474 54.4517 24.7537 54.0866 24.7537 53.7143V32.3658L87.4381 21.5003V42.142C87.4381 42.5958 87.596 43.0352 87.885 43.3862L90.5088 46.5716L87.7625 50.725C87.5511 51.0451 87.4381 51.4205 87.4381 51.8037V74.9848L82.8235 75.67C81.8593 75.8132 81.1454 76.6381 81.1454 77.6097V85.256L65.9662 78.9413C65.6185 78.7966 65.2358 78.7542 64.8661 78.8193L24.7537 85.8561V63.3756Z" fill="url(#paint0_linear_213_8)"/>
<path fill-rule="evenodd" clip-rule="evenodd" d="M37.7374 45.7487C38.3044 45.6569 38.5407 45.2894 38.5407 44.4657V40.7002C38.5407 40.1824 38.3517 40.0718 37.7138 40.1753L36.9811 40.2938C36.7905 40.3248 36.6503 40.4887 36.6503 40.6809V45.4635C36.6503 45.7052 36.8677 45.8891 37.1071 45.8507L37.7374 45.7487ZM33.0126 38.4405C33.0126 38.2506 33.1493 38.0878 33.3371 38.0545L38.2572 37.1767C41.1161 36.7138 42.2973 37.7387 42.3209 40.4177V43.1477C42.2973 46.7995 41.3054 47.9715 37.8792 48.5501L36.6503 48.7486V52.9765C36.6503 53.1668 36.5133 53.3295 36.3251 53.3629L33.4749 53.8634C33.2339 53.9057 33.0126 53.721 33.0126 53.477V38.4405Z" fill="white"/>
<path fill-rule="evenodd" clip-rule="evenodd" d="M63.2036 36.2196C63.2036 35.6779 62.9669 35.5281 62.259 35.6426C61.5499 35.7575 61.3137 35.9607 61.3137 36.5255V45.5522C61.3137 46.1166 61.5499 46.2433 62.2822 46.1245C62.9669 46.0139 63.2036 45.7875 63.2036 45.2462V36.2196ZM57.5338 36.9492C57.5338 34.6192 58.8568 33.5108 62.259 32.9597C65.6605 32.409 66.9838 33.0895 66.9838 35.419V44.8222C66.9838 47.1517 65.6605 48.2602 62.2346 48.8149C58.8323 49.366 57.5338 48.6819 57.5338 46.3524V36.9492Z" fill="white"/>
<path fill-rule="evenodd" clip-rule="evenodd" d="M79.3624 42.2783C79.3624 45.102 78.3702 46.0155 74.7557 46.6012C71.2117 47.1746 69.912 46.5145 69.912 44.161V34.7833C69.912 32.4538 71.2349 31.3449 74.6848 30.7868C78.1576 30.2243 79.3624 30.9707 79.3624 33.7243V34.9437C79.3624 35.1363 79.2226 35.3003 79.0316 35.3313L76.2991 35.7737C76.0593 35.8126 75.8424 35.6282 75.8424 35.3866V34.2001C75.8424 33.494 75.5821 33.3242 74.6848 33.4693C73.9285 33.5917 73.6922 33.8655 73.6922 34.6186V43.5021C73.6922 43.9257 73.9997 44.0406 74.7084 43.9257C75.488 43.7994 75.8424 43.5778 75.8424 43.2247V40.7536L75.1888 40.8595C74.9494 40.898 74.7321 40.714 74.7321 40.4724V38.3253C74.7321 38.1331 74.8722 37.9687 75.0628 37.9381L78.9057 37.316C79.145 37.2772 79.3624 37.4611 79.3624 37.7028V42.2783Z" fill="white"/>
<path fill-rule="evenodd" clip-rule="evenodd" d="M48.7223 42.6406C48.7223 42.8822 48.9401 43.0666 49.1794 43.0277L49.4314 42.987C50.6831 42.7842 50.9666 42.4794 50.9666 41.3737V39.0202C50.9666 38.1965 50.6355 37.8968 49.8327 38.0271L49.0531 38.1534C48.8625 38.184 48.7223 38.3479 48.7223 38.5405V42.6406ZM45.0842 36.3047C45.0842 36.1145 45.2209 35.9521 45.4087 35.9184L49.5968 35.1723C53.5416 34.5338 54.6047 35.3716 54.6047 38.3134V40.1962C54.5815 42.2946 53.9672 43.1941 52.1246 43.7981V43.8452C54.109 43.924 54.5578 44.3221 54.6047 45.9852V50.1846L50.9666 50.7996V46.3622C50.9666 45.6801 50.5654 45.5095 49.3369 45.7083L49.0531 45.7542C48.8625 45.7852 48.7223 45.9492 48.7223 46.1418V50.8624C48.7223 51.0538 48.5837 51.2174 48.3947 51.2491L45.5441 51.732C45.3035 51.7728 45.0842 51.5884 45.0842 51.3452V36.3047Z" fill="white"/>
<path fill-rule="evenodd" clip-rule="evenodd" d="M48.7219 71.3845C48.7219 71.6266 48.9397 71.8105 49.1791 71.7717L49.809 71.6701C50.7308 71.5207 50.9194 71.2547 50.9194 70.0309V68.8781C50.9194 67.7245 50.7067 67.477 49.809 67.6222L49.0527 67.7445C48.8621 67.7755 48.7219 67.9395 48.7219 68.1317V71.3845ZM48.7219 64.7718C48.7219 65.0134 48.9397 65.1977 49.1787 65.1589L49.5968 65.0914C50.6122 64.9035 50.8008 64.6611 50.8008 63.5076V62.5426C50.8008 61.4369 50.5886 61.2126 49.5968 61.3734L49.0531 61.4612C48.8621 61.4918 48.7219 61.6558 48.7219 61.8484V64.7718ZM45.0842 59.7479C45.0842 59.5585 45.2201 59.3961 45.4075 59.3624L50.4099 58.4547C53.67 57.9267 54.4393 58.612 54.4393 61.8362C54.4393 64.3544 53.9669 65.1134 52.0537 65.823V65.87C54.0617 65.7802 54.6996 66.6188 54.6996 69.2072C54.6996 72.502 53.8015 73.7062 51.0611 74.1502L45.5414 75.0438C45.3016 75.0826 45.0842 74.8982 45.0842 74.6566V59.7479Z" fill="white"/>
<path fill-rule="evenodd" clip-rule="evenodd" d="M61.1719 63.7481C61.1719 63.9901 61.3892 64.1741 61.6286 64.1353L61.881 64.0945C63.1326 63.8917 63.4161 63.5869 63.4161 62.4812V60.1277C63.4161 59.304 63.085 59.0047 62.2822 59.1346L61.5026 59.2609C61.3116 59.2919 61.1719 59.4558 61.1719 59.648V63.7481ZM57.5338 57.5456C57.5338 57.3573 57.6684 57.1953 57.8543 57.1604L62.0463 56.3704C65.9912 55.7319 67.0542 56.4795 67.0542 59.4213V61.3041C67.031 63.4022 66.4168 64.3016 64.5741 64.9056V64.9527C66.5585 65.0319 67.0074 65.4296 67.0542 67.0928V70.9606C67.0542 71.1521 66.916 71.3152 66.7263 71.3478L63.8756 71.8295C63.6354 71.8703 63.4161 71.6855 63.4161 71.4427V67.4701C63.4161 66.788 63.0149 66.617 61.7865 66.8162L61.5026 66.8621C61.3116 66.8931 61.1719 67.0571 61.1719 67.2493V71.9703C61.1719 72.1617 61.0333 72.3249 60.8443 72.357L57.9936 72.8395C57.7527 72.8803 57.5338 72.6959 57.5338 72.4527V57.5456Z" fill="white"/>
<mask id="mask0_213_8" style="mask-type:luminance" maskUnits="userSpaceOnUse" x="33" y="60" width="8" height="17">
<path d="M40.153 60.264L36.7508 60.8614C36.5468 60.8975 36.3764 61.0371 36.3023 61.2293L33.145 69.3899C33.0887 69.5358 33.093 69.6978 33.1568 69.841L36.0511 76.3259C36.1618 76.573 36.4268 76.7134 36.6945 76.666L40.2594 76.0352C40.6369 75.9685 40.8515 75.5661 40.696 75.217L37.9198 68.998C37.856 68.8552 37.8517 68.6929 37.908 68.5469L40.8062 61.0551C40.9586 60.6617 40.6602 60.2546 40.2586 60.2546C40.2239 60.2546 40.1889 60.2577 40.153 60.264Z" fill="white"/>
</mask>
<g mask="url(#mask0_213_8)">
<path fill-rule="evenodd" clip-rule="evenodd" d="M40.153 60.264L36.7508 60.8614C36.5468 60.8975 36.3764 61.0371 36.3023 61.2293L33.145 69.3899C33.0887 69.5358 33.093 69.6978 33.1568 69.841L36.0511 76.3259C36.1618 76.573 36.4268 76.7134 36.6945 76.666L40.2594 76.0352C40.6369 75.9685 40.8515 75.5661 40.696 75.217L37.9198 68.998C37.856 68.8552 37.8517 68.6929 37.908 68.5469L40.8062 61.0551C40.9586 60.6617 40.6602 60.2546 40.2586 60.2546C40.2239 60.2546 40.1889 60.2577 40.153 60.264Z" fill="url(#paint1_linear_213_8)"/>
</g>
<mask id="mask1_213_8" style="mask-type:luminance" maskUnits="userSpaceOnUse" x="71" y="54" width="9" height="17">
<path d="M75.7127 54.0304L72.1459 54.6572C71.7675 54.7235 71.5529 55.1264 71.7088 55.4759L74.5 61.7282C74.5638 61.871 74.5677 62.033 74.5114 62.1789L71.6131 69.6711C71.4478 70.0986 71.8139 70.5415 72.2667 70.4622L75.6686 69.8644C75.8729 69.8287 76.043 69.6891 76.1174 69.4965L79.2744 61.3363C79.3311 61.19 79.3268 61.028 79.263 60.8856L76.3549 54.3709C76.2592 54.156 76.0454 54.0214 75.8155 54.0214C75.7816 54.0214 75.7469 54.0246 75.7127 54.0304Z" fill="white"/>
</mask>
<g mask="url(#mask1_213_8)">
<path fill-rule="evenodd" clip-rule="evenodd" d="M75.7127 54.0304L72.1459 54.6572C71.7675 54.7235 71.5529 55.1264 71.7088 55.4759L74.5 61.7282C74.5638 61.871 74.5677 62.033 74.5114 62.1789L71.6131 69.6711C71.4478 70.0986 71.8139 70.5415 72.2667 70.4622L75.6686 69.8644C75.8729 69.8287 76.043 69.6891 76.1174 69.4965L79.2744 61.3363C79.3311 61.19 79.3268 61.028 79.263 60.8856L76.3549 54.3709C76.2592 54.156 76.0454 54.0214 75.8155 54.0214C75.7816 54.0214 75.7469 54.0246 75.7127 54.0304Z" fill="url(#paint2_linear_213_8)"/>
</g>
<defs>
<linearGradient id="paint0_linear_213_8" x1="1979.28" y1="8516.06" x2="6921.39" y2="266.525" gradientUnits="userSpaceOnUse">
<stop stop-color="#1F95FD"/>
<stop offset="1" stop-color="#4FE8E4"/>
</linearGradient>
<linearGradient id="paint1_linear_213_8" x1="395.648" y1="1607.45" x2="838.693" y2="262.411" gradientUnits="userSpaceOnUse">
<stop stop-color="#1F95FD"/>
<stop offset="1" stop-color="#4FE8E4"/>
</linearGradient>
<linearGradient id="paint2_linear_213_8" x1="389.91" y1="1862.84" x2="667.945" y2="631.674" gradientUnits="userSpaceOnUse">
<stop stop-color="#1F95FD"/>
<stop offset="1" stop-color="#4FE8E4"/>
</linearGradient>
</defs>
</svg>
