<svg width="320" height="424" viewBox="0 0 320 424" fill="none" xmlns="http://www.w3.org/2000/svg">
<rect width="320" height="423.717" fill="white"/>
<rect x="99.2935" y="11.7974" width="208.909" height="344.086" rx="8" fill="#F9F9F9"/>
<rect x="11.7971" y="364.731" width="296.406" height="47.1889" rx="8" fill="#F9F9F9"/>
<rect x="107.158" y="18.6792" width="54.0707" height="5.40707" fill="#70ABE1"/>
<rect x="107.158" y="29.9849" width="64.8848" height="5.40707" fill="#999999"/>
<rect x="107.158" y="105.683" width="34.4086" height="5.40707" fill="#999999"/>
<rect x="107" y="193" width="49" height="6" fill="#999999"/>
<rect x="107.158" y="276.252" width="35.3917" height="5.40707" fill="#999999"/>
<rect x="107.158" y="284.117" width="71.7665" height="4.91551" fill="#C8C8C8"/>
<rect x="107.158" y="37.8494" width="39.8157" height="4.91551" fill="#C8C8C8"/>
<rect x="107.158" y="113.548" width="89.9539" height="4.91551" fill="#C8C8C8"/>
<rect x="109.616" y="49.1553" width="183.349" height="3.93241" fill="#C8C8C8"/>
<rect x="109.616" y="55.5454" width="173.026" height="3.93241" fill="#C8C8C8"/>
<rect x="109.616" y="61.9353" width="69.8003" height="3.93241" fill="#C8C8C8"/>
<rect x="109.616" y="70.7834" width="185.806" height="3.93241" fill="#C8C8C8"/>
<rect x="109.616" y="77.1736" width="170.077" height="3.93241" fill="#C8C8C8"/>
<rect x="109.616" y="86.0212" width="193.18" height="3.93241" fill="#C8C8C8"/>
<rect x="109.616" y="92.4111" width="183.349" height="3.93241" fill="#C8C8C8"/>
<rect x="109.616" y="124.854" width="191.214" height="3.93241" fill="#C8C8C8"/>
<rect x="109.616" y="131.245" width="189.739" height="3.93241" fill="#C8C8C8"/>
<rect x="109.616" y="137.635" width="152.381" height="3.93241" fill="#C8C8C8"/>
<rect x="109.616" y="146.974" width="192.197" height="3.93241" fill="#C8C8C8"/>
<rect x="109.616" y="153.364" width="180.891" height="3.93241" fill="#C8C8C8"/>
<rect x="109.616" y="159.754" width="25.0691" height="3.93241" fill="#C8C8C8"/>
<rect x="109.616" y="169.094" width="187.281" height="3.93241" fill="#C8C8C8"/>
<rect x="109.616" y="175.484" width="172.043" height="3.93241" fill="#C8C8C8"/>
<rect x="109.616" y="181.874" width="149.432" height="3.93241" fill="#C8C8C8"/>
<rect x="109.616" y="205.469" width="174.501" height="3.93241" fill="#C8C8C8"/>
<rect x="109.616" y="211.859" width="193.18" height="3.93241" fill="#C8C8C8"/>
<rect x="109.616" y="218.249" width="112.565" height="3.93241" fill="#C8C8C8"/>
<rect x="109.616" y="227.589" width="164.178" height="3.93241" fill="#C8C8C8"/>
<rect x="109.616" y="233.979" width="185.315" height="3.93241" fill="#C8C8C8"/>
<rect x="109.616" y="240.369" width="162.704" height="3.93241" fill="#C8C8C8"/>
<rect x="109.616" y="249.708" width="193.18" height="3.93241" fill="#C8C8C8"/>
<rect x="109.616" y="256.098" width="191.705" height="3.93241" fill="#C8C8C8"/>
<rect x="109.616" y="262.488" width="49.6467" height="3.93241" fill="#C8C8C8"/>
<rect x="109.616" y="294.931" width="182.857" height="3.93241" fill="#C8C8C8"/>
<rect x="109.616" y="301.321" width="181.382" height="3.93241" fill="#C8C8C8"/>
<rect x="109.616" y="307.711" width="181.382" height="3.93241" fill="#C8C8C8"/>
<rect x="109.616" y="314.102" width="46.6974" height="3.93241" fill="#C8C8C8"/>
<rect x="109.616" y="323.932" width="181.382" height="3.93241" fill="#C8C8C8"/>
<rect x="109.616" y="330.323" width="189.247" height="3.93241" fill="#C8C8C8"/>
<rect x="109.616" y="336.713" width="194.654" height="3.93241" fill="#C8C8C8"/>
<rect x="109.616" y="343.103" width="160.246" height="3.93241" fill="#C8C8C8"/>
<rect x="19.662" y="371.613" width="23.1029" height="5.40707" fill="#70ABE1"/>
<rect x="19.662" y="397.173" width="23.1029" height="4.42396" fill="#C8C8C8"/>
<rect x="19.662" y="390.292" width="85.53" height="4.91551" fill="#A6CAEC"/>
<rect x="183.84" y="371.613" width="23.1029" height="5.40707" fill="#70ABE1"/>
<rect x="251.183" y="371.613" width="25.5607" height="5.40707" fill="#70ABE1"/>
<rect x="19.662" y="382.427" width="84.0553" height="5.40707" fill="#999999"/>
<rect x="111.091" y="382.427" width="47.6805" height="4.42396" fill="#C8C8C8"/>
<rect x="111.091" y="388.817" width="65.3763" height="4.42396" fill="#C8C8C8"/>
<rect x="111.091" y="395.207" width="56.0369" height="4.42396" fill="#C8C8C8"/>
<rect x="183.84" y="385.868" width="14.255" height="4.42396" fill="#C8C8C8"/>
<rect x="183.84" y="400.123" width="59.4777" height="4.42396" fill="#C8C8C8"/>
<rect x="183.84" y="378.986" width="21.6283" height="4.91551" fill="#999999"/>
<rect x="183.84" y="393.241" width="12.7803" height="4.91551" fill="#999999"/>
<rect x="251.183" y="378.986" width="26.0522" height="4.42396" fill="#C8C8C8"/>
<rect x="282.642" y="378.986" width="19.6621" height="4.42396" fill="#C8C8C8"/>
<rect x="251.183" y="385.868" width="26.0522" height="4.42396" fill="#C8C8C8"/>
<rect x="282.642" y="385.868" width="18.679" height="4.42396" fill="#C8C8C8"/>
<rect x="251.183" y="392.75" width="24.5776" height="4.42396" fill="#C8C8C8"/>
<rect x="251.183" y="399.631" width="21.1367" height="4.42396" fill="#C8C8C8"/>
<rect x="11.7971" y="60.9526" width="78.1567" height="3.93241" fill="#C8C8C8"/>
<rect x="11.7971" y="66.8511" width="74.7158" height="3.93241" fill="#C8C8C8"/>
<rect x="11.7971" y="72.7495" width="69.3088" height="3.93241" fill="#C8C8C8"/>
<rect x="11.7971" y="78.6484" width="78.1567" height="3.93241" fill="#C8C8C8"/>
<rect x="11.7971" y="84.5469" width="77.1736" height="3.93241" fill="#C8C8C8"/>
<rect x="11.7971" y="90.4453" width="60.9524" height="3.93241" fill="#C8C8C8"/>
<rect x="11.7971" y="96.3442" width="74.7158" height="3.93241" fill="#C8C8C8"/>
<rect x="11.7971" y="102.243" width="66.851" height="3.93241" fill="#C8C8C8"/>
<rect x="11.7971" y="108.141" width="64.3932" height="3.93241" fill="#C8C8C8"/>
<rect x="11.7971" y="123.379" width="18.679" height="4.91551" fill="#70ABE1"/>
<rect x="11.7971" y="47.189" width="77.1736" height="5.89862" fill="#70ABE1"/>
<rect x="11.7971" y="200.553" width="27.0353" height="4.91551" fill="#70ABE1"/>
<rect x="11.7971" y="212.842" width="59.4777" height="4.91551" fill="#999999"/>
<rect x="11.7971" y="261.505" width="50.6298" height="4.91551" fill="#999999"/>
<rect x="11.7971" y="318.034" width="70.2919" height="4.91551" fill="#999999"/>
<rect x="21.1367" y="135.668" width="46.2058" height="3.93241" fill="#C8C8C8"/>
<rect x="21.1367" y="145.499" width="33.917" height="3.93241" fill="#C8C8C8"/>
<rect x="21.1367" y="155.33" width="64.3932" height="3.93241" fill="#C8C8C8"/>
<rect x="21.1367" y="165.161" width="56.0369" height="3.93241" fill="#C8C8C8"/>
<rect x="21.1367" y="174.992" width="26.0522" height="3.93241" fill="#C8C8C8"/>
<rect x="21.1367" y="184.823" width="18.679" height="3.93241" fill="#C8C8C8"/>
<rect x="11.7971" y="135.177" width="5.89862" height="4.91551" fill="#999999"/>
<rect x="11.7971" y="145.008" width="5.89862" height="4.91551" fill="#999999"/>
<rect x="11.7971" y="154.838" width="5.89862" height="4.91551" fill="#999999"/>
<rect x="11.7971" y="164.669" width="5.89862" height="4.91551" fill="#999999"/>
<rect x="11.7971" y="174.5" width="5.89862" height="4.91551" fill="#999999"/>
<rect x="11.7971" y="184.332" width="5.89862" height="4.91551" fill="#999999"/>
<rect x="11.7971" y="222.673" width="10.3226" height="3.93241" fill="#C8C8C8"/>
<rect x="11.7971" y="229.555" width="8.35637" height="3.93241" fill="#C8C8C8"/>
<rect x="11.7971" y="236.437" width="9.33948" height="3.93241" fill="#C8C8C8"/>
<rect x="11.7971" y="243.318" width="21.1367" height="3.93241" fill="#C8C8C8"/>
<rect x="11.7971" y="250.199" width="21.1367" height="3.93241" fill="#C8C8C8"/>
<rect x="11.7971" y="271.828" width="11.7972" height="3.93241" fill="#C8C8C8"/>
<rect x="11.7971" y="278.71" width="12.7803" height="3.93241" fill="#C8C8C8"/>
<rect x="11.7971" y="285.591" width="24.5776" height="3.93241" fill="#C8C8C8"/>
<rect x="11.7971" y="292.473" width="10.3226" height="3.93241" fill="#C8C8C8"/>
<rect x="11.7971" y="299.355" width="28.51" height="3.93241" fill="#C8C8C8"/>
<rect x="11.7971" y="306.237" width="15.7296" height="3.93241" fill="#C8C8C8"/>
<rect x="11.7971" y="328.356" width="5.89862" height="3.93241" fill="#C8C8C8"/>
<rect x="11.7971" y="335.238" width="13.7634" height="3.93241" fill="#C8C8C8"/>
<rect x="11.7971" y="342.12" width="22.6114" height="3.93241" fill="#C8C8C8"/>
<rect x="47.1891" y="328.356" width="13.2719" height="3.93241" fill="#C8C8C8"/>
<rect x="47.1891" y="335.238" width="13.2719" height="3.93241" fill="#C8C8C8"/>
<path d="M12.2992 12.0975H16.6234C18.2671 12.0975 19.5861 12.5777 20.5803 13.5382C21.5745 14.4987 22.0716 15.7693 22.0716 17.3501C22.0716 18.9309 21.5745 20.2015 20.5803 21.162C19.5861 22.1224 18.2671 22.6027 16.6234 22.6027H12.2992V12.0975ZM16.6009 14.056H14.3901V20.6442H16.6009C17.6701 20.6442 18.4844 20.3441 19.044 19.7438C19.6036 19.1385 19.8833 18.3406 19.8833 17.3501C19.8833 16.3496 19.6036 15.5517 19.044 14.9564C18.4844 14.3561 17.6701 14.056 16.6009 14.056Z" fill="black"/>
<path d="M30.2148 15.3316V22.6027H28.3038V21.7998C27.7692 22.4601 27.0447 22.7903 26.1305 22.7903C25.1312 22.7903 24.2944 22.4251 23.6199 21.6947C22.9504 20.9644 22.6157 20.0539 22.6157 18.9634C22.6157 17.8729 22.9504 16.9624 23.6199 16.232C24.2944 15.5017 25.1312 15.1365 26.1305 15.1365C27.0398 15.1365 27.7642 15.4692 28.3038 16.1345V15.3316H30.2148ZM26.4902 16.9599C25.9306 16.9599 25.4785 17.1525 25.1337 17.5377C24.789 17.9179 24.6166 18.3931 24.6166 18.9634C24.6166 19.5337 24.789 20.0114 25.1337 20.3966C25.4785 20.7768 25.9306 20.9669 26.4902 20.9669C27.0447 20.9669 27.4944 20.7793 27.8391 20.4041C28.1889 20.0239 28.3637 19.5437 28.3637 18.9634C28.3637 18.3831 28.1889 17.9054 27.8391 17.5302C27.4944 17.15 27.0447 16.9599 26.4902 16.9599Z" fill="black"/>
<path d="M33.4786 11.7974V22.6027H31.5226V11.7974H33.4786Z" fill="black"/>
<path d="M41.8583 15.3316L39.018 22.6027H36.7622L33.892 15.3316H36.0203L37.9014 20.5392L39.7974 15.3316H41.8583Z" fill="black"/>
<path d="M49.2196 15.3316V22.6027H47.3086V21.7998C46.774 22.4601 46.0495 22.7903 45.1352 22.7903C44.136 22.7903 43.2992 22.4251 42.6247 21.6947C41.9552 20.9644 41.6205 20.0539 41.6205 18.9634C41.6205 17.8729 41.9552 16.9624 42.6247 16.232C43.2992 15.5017 44.136 15.1365 45.1352 15.1365C46.0445 15.1365 46.769 15.4692 47.3086 16.1345V15.3316H49.2196ZM45.495 16.9599C44.9354 16.9599 44.4832 17.1525 44.1385 17.5377C43.7938 17.9179 43.6214 18.3931 43.6214 18.9634C43.6214 19.5337 43.7938 20.0114 44.1385 20.3966C44.4832 20.7768 44.9354 20.9669 45.495 20.9669C46.0495 20.9669 46.4992 20.7793 46.8439 20.4041C47.1936 20.0239 47.3685 19.5437 47.3685 18.9634C47.3685 18.3831 47.1936 17.9054 46.8439 17.5302C46.4992 17.15 46.0495 16.9599 45.495 16.9599Z" fill="black"/>
<path d="M54.5668 15.1365C55.3962 15.1365 56.0731 15.3991 56.5977 15.9244C57.1273 16.4497 57.3921 17.1325 57.3921 17.9729V22.6027H55.4361V18.6032C55.4361 18.083 55.3112 17.6828 55.0614 17.4026C54.8166 17.1175 54.4694 16.9749 54.0197 16.9749C53.5751 16.9749 53.2078 17.1175 52.9181 17.4026C52.6283 17.6878 52.4834 18.093 52.4834 18.6182V22.6027H50.5274V15.3316H52.431V16.187C52.9006 15.4867 53.6125 15.1365 54.5668 15.1365Z" fill="black"/>
<path d="M17.3053 27.4458C18.2746 27.4458 19.1589 27.6559 19.9583 28.0761C20.7627 28.4913 21.3772 29.0666 21.8019 29.8019L20.0033 30.905C19.7035 30.4448 19.3213 30.0896 18.8566 29.8395C18.392 29.5843 17.8699 29.4568 17.2904 29.4568C16.3311 29.4568 15.5392 29.7769 14.9147 30.4172C14.2902 31.0576 13.9779 31.883 13.9779 32.8935C13.9829 33.929 14.3002 34.7619 14.9297 35.3922C15.5592 36.0175 16.3461 36.3301 17.2904 36.3301C17.8649 36.3301 18.3845 36.2076 18.8491 35.9625C19.3138 35.7123 19.706 35.3547 20.0257 34.8894L21.7344 36.12C21.2598 36.8154 20.6378 37.3607 19.8684 37.7558C19.104 38.146 18.2496 38.3411 17.3053 38.3411C16.511 38.3411 15.7715 38.2061 15.0871 37.9359C14.4026 37.6608 13.8181 37.2856 13.3334 36.8104C12.8538 36.3301 12.4766 35.7524 12.2018 35.077C11.932 34.4017 11.7971 33.6738 11.7971 32.8935C11.7971 32.1131 11.932 31.3852 12.2018 30.7099C12.4766 30.0346 12.8538 29.4593 13.3334 28.984C13.8181 28.5038 14.4026 28.1286 15.0871 27.8585C15.7715 27.5833 16.511 27.4458 17.3053 27.4458Z" fill="black"/>
<path d="M29.6586 30.875V38.146H27.7476V37.3431C27.213 38.0035 26.4885 38.3336 25.5742 38.3336C24.575 38.3336 23.7382 37.9685 23.0637 37.2381C22.3942 36.5077 22.0595 35.5973 22.0595 34.5068C22.0595 33.4162 22.3942 32.5058 23.0637 31.7754C23.7382 31.045 24.575 30.6799 25.5742 30.6799C26.4835 30.6799 27.208 31.0125 27.7476 31.6779V30.875H29.6586ZM25.934 32.5033C25.3744 32.5033 24.9223 32.6959 24.5775 33.0811C24.2328 33.4612 24.0604 33.9365 24.0604 34.5068C24.0604 35.077 24.2328 35.5548 24.5775 35.94C24.9223 36.3201 25.3744 36.5102 25.934 36.5102C26.4885 36.5102 26.9382 36.3226 27.2829 35.9475C27.6326 35.5673 27.8075 35.087 27.8075 34.5068C27.8075 33.9265 27.6326 33.4487 27.2829 33.0735C26.9382 32.6934 26.4885 32.5033 25.934 32.5033Z" fill="black"/>
<path d="M34.9084 30.6799C35.2981 30.6799 35.6378 30.7324 35.9276 30.8374L35.6353 32.7809C35.2856 32.6258 34.8909 32.5483 34.4512 32.5483C33.9866 32.5483 33.6144 32.6909 33.3346 32.976C33.0598 33.2561 32.9224 33.6588 32.9224 34.1841V38.146H30.9664V30.875H32.8625V31.6704C33.3021 31.01 33.9841 30.6799 34.9084 30.6799Z" fill="black"/>
<path d="M43.8343 30.875L40.994 38.146H38.7383L35.868 30.875H37.9963L39.8774 36.0825L41.7734 30.875H43.8343Z" fill="black"/>
<path d="M51.1956 30.875V38.146H49.2846V37.3431C48.75 38.0035 48.0255 38.3336 47.1113 38.3336C46.112 38.3336 45.2752 37.9685 44.6007 37.2381C43.9312 36.5077 43.5965 35.5973 43.5965 34.5068C43.5965 33.4162 43.9312 32.5058 44.6007 31.7754C45.2752 31.045 46.112 30.6799 47.1113 30.6799C48.0205 30.6799 48.745 31.0125 49.2846 31.6779V30.875H51.1956ZM47.471 32.5033C46.9114 32.5033 46.4593 32.6959 46.1145 33.0811C45.7698 33.4612 45.5974 33.9365 45.5974 34.5068C45.5974 35.077 45.7698 35.5548 46.1145 35.94C46.4593 36.3201 46.9114 36.5102 47.471 36.5102C48.0255 36.5102 48.4752 36.3226 48.8199 35.9475C49.1697 35.5673 49.3445 35.087 49.3445 34.5068C49.3445 33.9265 49.1697 33.4487 48.8199 33.0735C48.4752 32.6934 48.0255 32.5033 47.471 32.5033Z" fill="black"/>
<path d="M54.4594 27.3407V38.146H52.5034V27.3407H54.4594Z" fill="black"/>
<path d="M57.7206 27.3332V31.6553C58.1852 31.005 58.8797 30.6799 59.8039 30.6799C60.6333 30.6799 61.3103 30.9425 61.8349 31.4678C62.3645 31.993 62.6293 32.6758 62.6293 33.5163V38.146H60.6733V34.1466C60.6733 33.6263 60.5484 33.2261 60.2986 32.946C60.0537 32.6608 59.7065 32.5183 59.2569 32.5183C58.8122 32.5183 58.445 32.6608 58.1552 32.946C57.8654 33.2311 57.7206 33.6363 57.7206 34.1616V38.146H55.7646V27.3332H57.7206Z" fill="black"/>
<path d="M67.3404 30.6799C68.4695 30.6799 69.4063 31.045 70.1507 31.7754C70.9001 32.5008 71.2748 33.4112 71.2748 34.5068C71.2748 35.6023 70.9001 36.5152 70.1507 37.2456C69.4063 37.971 68.4695 38.3336 67.3404 38.3336C66.2163 38.3336 65.282 37.971 64.5376 37.2456C63.7932 36.5152 63.4209 35.6023 63.4209 34.5068C63.4209 33.4112 63.7932 32.5008 64.5376 31.7754C65.282 31.045 66.2163 30.6799 67.3404 30.6799ZM68.7193 33.066C68.3546 32.6909 67.895 32.5033 67.3404 32.5033C66.7858 32.5033 66.3262 32.6909 65.9615 33.066C65.5968 33.4412 65.4144 33.9215 65.4144 34.5068C65.4144 35.092 65.5968 35.5723 65.9615 35.9475C66.3262 36.3226 66.7858 36.5102 67.3404 36.5102C67.895 36.5102 68.3546 36.3226 68.7193 35.9475C69.089 35.5723 69.2739 35.092 69.2739 34.5068C69.2739 33.9215 69.089 33.4412 68.7193 33.066Z" fill="black"/>
<rect x="159" y="193.5" width="88" height="4.92" fill="#C8C8C8"/>
</svg>
