<svg width="320" height="424" viewBox="0 0 320 424" fill="none" xmlns="http://www.w3.org/2000/svg">
<rect width="320" height="423.717" fill="#202020"/>
<rect x="99.2935" y="11.7971" width="208.909" height="344.086" rx="8" fill="#363636"/>
<rect x="11.7974" y="364.731" width="296.406" height="47.1889" rx="8" fill="#363636"/>
<rect x="107.158" y="18.679" width="54.0707" height="5.40707" fill="#F97316"/>
<rect x="107.158" y="29.9846" width="64.8848" height="5.40707" fill="#B7B7B7"/>
<rect x="107.158" y="105.684" width="34.4086" height="5.40707" fill="#B7B7B7"/>
<rect x="107" y="193" width="49" height="6" fill="#B7B7B7"/>
<rect x="107.158" y="276.252" width="35.3917" height="5.40707" fill="#B7B7B7"/>
<rect x="107.158" y="284.117" width="71.7665" height="4.91551" fill="#F2995B"/>
<rect x="107.158" y="37.8494" width="39.8157" height="4.91551" fill="#A9A9A9"/>
<rect x="107.158" y="113.548" width="89.9539" height="4.91551" fill="#F2995B"/>
<rect x="109.616" y="49.155" width="183.349" height="3.93241" fill="#757575"/>
<rect x="109.616" y="55.5452" width="173.026" height="3.93241" fill="#757575"/>
<rect x="109.616" y="61.9353" width="69.8003" height="3.93241" fill="#757575"/>
<rect x="109.616" y="70.7834" width="185.806" height="3.93241" fill="#757575"/>
<rect x="109.616" y="77.1738" width="170.077" height="3.93241" fill="#757575"/>
<rect x="109.616" y="86.0215" width="193.18" height="3.93241" fill="#757575"/>
<rect x="109.616" y="92.4116" width="183.349" height="3.93241" fill="#757575"/>
<rect x="109.616" y="124.854" width="191.214" height="3.93241" fill="#757575"/>
<rect x="109.616" y="131.244" width="189.739" height="3.93241" fill="#757575"/>
<rect x="109.616" y="137.635" width="152.381" height="3.93241" fill="#757575"/>
<rect x="109.616" y="146.974" width="192.197" height="3.93241" fill="#757575"/>
<rect x="109.616" y="153.364" width="180.891" height="3.93241" fill="#757575"/>
<rect x="109.616" y="159.754" width="25.0691" height="3.93241" fill="#757575"/>
<rect x="109.616" y="169.094" width="187.281" height="3.93241" fill="#757575"/>
<rect x="109.616" y="175.484" width="172.043" height="3.93241" fill="#757575"/>
<rect x="109.616" y="181.874" width="149.432" height="3.93241" fill="#757575"/>
<rect x="109.616" y="205.468" width="174.501" height="3.93241" fill="#757575"/>
<rect x="109.616" y="211.858" width="193.18" height="3.93241" fill="#757575"/>
<rect x="109.616" y="218.249" width="112.565" height="3.93241" fill="#757575"/>
<rect x="109.616" y="227.588" width="164.178" height="3.93241" fill="#757575"/>
<rect x="109.616" y="233.979" width="185.315" height="3.93241" fill="#757575"/>
<rect x="109.616" y="240.369" width="162.704" height="3.93241" fill="#757575"/>
<rect x="109.616" y="249.708" width="193.18" height="3.93241" fill="#757575"/>
<rect x="109.616" y="256.098" width="191.705" height="3.93241" fill="#757575"/>
<rect x="109.616" y="262.489" width="49.6467" height="3.93241" fill="#757575"/>
<rect x="109.616" y="294.931" width="182.857" height="3.93241" fill="#757575"/>
<rect x="109.616" y="301.321" width="181.382" height="3.93241" fill="#757575"/>
<rect x="109.616" y="307.711" width="181.382" height="3.93241" fill="#757575"/>
<rect x="109.616" y="314.102" width="46.6974" height="3.93241" fill="#757575"/>
<rect x="109.616" y="323.932" width="181.382" height="3.93241" fill="#757575"/>
<rect x="109.616" y="330.322" width="189.247" height="3.93241" fill="#757575"/>
<rect x="109.616" y="336.712" width="194.654" height="3.93241" fill="#757575"/>
<rect x="109.616" y="343.103" width="160.246" height="3.93241" fill="#757575"/>
<rect x="19.6621" y="371.613" width="23.1029" height="5.40707" fill="#F97316"/>
<rect x="19.6621" y="397.174" width="23.1029" height="4.42396" fill="#C8C8C8"/>
<rect x="19.6621" y="390.292" width="85.53" height="4.91551" fill="#F2995B"/>
<rect x="183.84" y="371.613" width="23.1029" height="5.40707" fill="#F97316"/>
<rect x="251.183" y="371.613" width="25.5607" height="5.40707" fill="#F97316"/>
<rect x="19.6621" y="382.427" width="84.0553" height="5.40707" fill="#FF8733"/>
<rect x="111.091" y="382.427" width="47.6805" height="4.42396" fill="#757575"/>
<rect x="111.091" y="388.817" width="65.3763" height="4.42396" fill="#757575"/>
<rect x="111.091" y="395.207" width="56.0369" height="4.42396" fill="#757575"/>
<rect x="183.84" y="385.868" width="14.255" height="4.42396" fill="#F2995B"/>
<rect x="183.84" y="400.123" width="59.4777" height="4.42396" fill="#F2995B"/>
<rect x="183.84" y="378.986" width="21.6283" height="4.91551" fill="#B7B7B7"/>
<rect x="183.84" y="393.241" width="12.7803" height="4.91551" fill="#B7B7B7"/>
<rect x="251.183" y="378.986" width="26.0522" height="4.42396" fill="#757575"/>
<rect x="282.642" y="378.986" width="19.6621" height="4.42396" fill="#757575"/>
<rect x="251.183" y="385.868" width="26.0522" height="4.42396" fill="#757575"/>
<rect x="282.642" y="385.868" width="18.679" height="4.42396" fill="#757575"/>
<rect x="251.183" y="392.749" width="24.5776" height="4.42396" fill="#757575"/>
<rect x="251.183" y="399.631" width="21.1367" height="4.42396" fill="#757575"/>
<rect x="11.7974" y="60.9524" width="78.1567" height="3.93241" fill="#757575"/>
<rect x="11.7974" y="66.8513" width="74.7158" height="3.93241" fill="#757575"/>
<rect x="11.7974" y="72.7498" width="69.3088" height="3.93241" fill="#757575"/>
<rect x="11.7974" y="78.6484" width="78.1567" height="3.93241" fill="#757575"/>
<rect x="11.7974" y="84.5471" width="77.1736" height="3.93241" fill="#757575"/>
<rect x="11.7974" y="90.4458" width="60.9524" height="3.93241" fill="#757575"/>
<rect x="11.7974" y="96.3442" width="74.7158" height="3.93241" fill="#757575"/>
<rect x="11.7974" y="102.243" width="66.851" height="3.93241" fill="#757575"/>
<rect x="11.7974" y="108.142" width="64.3932" height="3.93241" fill="#757575"/>
<rect x="11.7974" y="123.379" width="18.679" height="4.91551" fill="#F97316"/>
<rect x="11.7974" y="47.189" width="77.1736" height="5.89862" fill="#F97316"/>
<rect x="11.7974" y="200.553" width="27.0353" height="4.91551" fill="#F97316"/>
<rect x="11.7974" y="212.842" width="59.4777" height="4.91551" fill="#B7B7B7"/>
<rect x="11.7974" y="261.505" width="50.6298" height="4.91551" fill="#B7B7B7"/>
<rect x="11.7974" y="318.034" width="70.2919" height="4.91551" fill="#B7B7B7"/>
<rect x="21.1367" y="135.668" width="46.2058" height="3.93241" fill="#757575"/>
<rect x="21.1367" y="145.499" width="33.917" height="3.93241" fill="#757575"/>
<rect x="21.1367" y="155.33" width="64.3932" height="3.93241" fill="#757575"/>
<rect x="21.1367" y="165.161" width="56.0369" height="3.93241" fill="#757575"/>
<rect x="21.1367" y="174.992" width="26.0522" height="3.93241" fill="#757575"/>
<rect x="21.1367" y="184.823" width="18.679" height="3.93241" fill="#757575"/>
<rect x="11.7974" y="135.177" width="5.89862" height="4.91551" fill="#B7B7B7"/>
<rect x="11.7974" y="145.008" width="5.89862" height="4.91551" fill="#B7B7B7"/>
<rect x="11.7974" y="154.839" width="5.89862" height="4.91551" fill="#B7B7B7"/>
<rect x="11.7974" y="164.67" width="5.89862" height="4.91551" fill="#B7B7B7"/>
<rect x="11.7974" y="174.501" width="5.89862" height="4.91551" fill="#B7B7B7"/>
<rect x="11.7974" y="184.332" width="5.89862" height="4.91551" fill="#B7B7B7"/>
<rect x="11.7974" y="222.673" width="10.3226" height="3.93241" fill="#757575"/>
<rect x="11.7974" y="229.554" width="8.35637" height="3.93241" fill="#757575"/>
<rect x="11.7974" y="236.436" width="9.33948" height="3.93241" fill="#757575"/>
<rect x="11.7974" y="243.318" width="21.1367" height="3.93241" fill="#757575"/>
<rect x="11.7974" y="250.2" width="21.1367" height="3.93241" fill="#757575"/>
<rect x="11.7974" y="271.828" width="11.7972" height="3.93241" fill="#757575"/>
<rect x="11.7974" y="278.709" width="12.7803" height="3.93241" fill="#757575"/>
<rect x="11.7974" y="285.591" width="24.5776" height="3.93241" fill="#757575"/>
<rect x="11.7974" y="292.473" width="10.3226" height="3.93241" fill="#757575"/>
<rect x="11.7974" y="299.354" width="28.51" height="3.93241" fill="#757575"/>
<rect x="11.7974" y="306.236" width="15.7296" height="3.93241" fill="#757575"/>
<rect x="11.7974" y="328.356" width="5.89862" height="3.93241" fill="#757575"/>
<rect x="11.7974" y="335.238" width="13.7634" height="3.93241" fill="#757575"/>
<rect x="11.7974" y="342.12" width="22.6114" height="3.93241" fill="#757575"/>
<rect x="47.189" y="328.356" width="13.2719" height="3.93241" fill="#757575"/>
<rect x="47.189" y="335.238" width="13.2719" height="3.93241" fill="#757575"/>
<path d="M12.2995 12.0973H16.6236C18.2673 12.0973 19.5863 12.5775 20.5806 13.538C21.5748 14.4984 22.0719 15.7691 22.0719 17.3499C22.0719 18.9306 21.5748 20.2013 20.5806 21.1617C19.5863 22.1222 18.2673 22.6024 16.6236 22.6024H12.2995V12.0973ZM16.6011 14.0557H14.3904V20.644H16.6011C17.6703 20.644 18.4847 20.3438 19.0442 19.7435C19.6038 19.1382 19.8836 18.3403 19.8836 17.3499C19.8836 16.3494 19.6038 15.5515 19.0442 14.9562C18.4847 14.3559 17.6703 14.0557 16.6011 14.0557Z" fill="#E5E7EB"/>
<path d="M30.215 15.3314V22.6024H28.304V21.7995C27.7694 22.4599 27.045 22.79 26.1307 22.79C25.1315 22.79 24.2946 22.4248 23.6201 21.6945C22.9507 20.9641 22.6159 20.0537 22.6159 18.9631C22.6159 17.8726 22.9507 16.9622 23.6201 16.2318C24.2946 15.5014 25.1315 15.1363 26.1307 15.1363C27.04 15.1363 27.7644 15.4689 28.304 16.1343V15.3314H30.215ZM26.4904 16.9597C25.9309 16.9597 25.4787 17.1523 25.134 17.5374C24.7892 17.9176 24.6169 18.3929 24.6169 18.9631C24.6169 19.5334 24.7892 20.0112 25.134 20.3964C25.4787 20.7765 25.9309 20.9666 26.4904 20.9666C27.045 20.9666 27.4946 20.779 27.8394 20.4039C28.1891 20.0237 28.364 19.5434 28.364 18.9631C28.364 18.3829 28.1891 17.9051 27.8394 17.5299C27.4946 17.1498 27.045 16.9597 26.4904 16.9597Z" fill="#E5E7EB"/>
<path d="M33.4789 11.7971V22.6024H31.5229V11.7971H33.4789Z" fill="#E5E7EB"/>
<path d="M41.8585 15.3314L39.0182 22.6024H36.7625L33.8922 15.3314H36.0206L37.9016 20.5389L39.7976 15.3314H41.8585Z" fill="#E5E7EB"/>
<path d="M49.2198 15.3314V22.6024H47.3088V21.7995C46.7742 22.4599 46.0498 22.79 45.1355 22.79C44.1363 22.79 43.2994 22.4248 42.6249 21.6945C41.9555 20.9641 41.6207 20.0537 41.6207 18.9631C41.6207 17.8726 41.9555 16.9622 42.6249 16.2318C43.2994 15.5014 44.1363 15.1363 45.1355 15.1363C46.0448 15.1363 46.7692 15.4689 47.3088 16.1343V15.3314H49.2198ZM45.4952 16.9597C44.9356 16.9597 44.4835 17.1523 44.1388 17.5374C43.794 17.9176 43.6217 18.3929 43.6217 18.9631C43.6217 19.5334 43.794 20.0112 44.1388 20.3964C44.4835 20.7765 44.9356 20.9666 45.4952 20.9666C46.0498 20.9666 46.4994 20.779 46.8442 20.4039C47.1939 20.0237 47.3688 19.5434 47.3688 18.9631C47.3688 18.3829 47.1939 17.9051 46.8442 17.5299C46.4994 17.1498 46.0498 16.9597 45.4952 16.9597Z" fill="#E5E7EB"/>
<path d="M54.567 15.1363C55.3964 15.1363 56.0734 15.3989 56.598 15.9241C57.1275 16.4494 57.3923 17.1322 57.3923 17.9727V22.6024H55.4364V18.603C55.4364 18.0827 55.3115 17.6825 55.0617 17.4024C54.8168 17.1172 54.4696 16.9747 54.02 16.9747C53.5753 16.9747 53.2081 17.1172 52.9183 17.4024C52.6285 17.6875 52.4837 18.0927 52.4837 18.618V22.6024H50.5277V15.3314H52.4312V16.1868C52.9008 15.4864 53.6128 15.1363 54.567 15.1363Z" fill="#E5E7EB"/>
<path d="M17.3056 27.4455C18.2748 27.4455 19.1592 27.6556 19.9585 28.0758C20.7629 28.491 21.3774 29.0663 21.8021 29.8017L20.0035 30.9047C19.7037 30.4445 19.3215 30.0893 18.8569 29.8392C18.3922 29.5841 17.8702 29.4565 17.2906 29.4565C16.3313 29.4565 15.5395 29.7767 14.9149 30.417C14.2904 31.0573 13.9782 31.8827 13.9782 32.8932C13.9832 33.9287 14.3004 34.7616 14.9299 35.3919C15.5594 36.0173 16.3463 36.3299 17.2906 36.3299C17.8652 36.3299 18.3848 36.2073 18.8494 35.9622C19.314 35.7121 19.7062 35.3544 20.026 34.8892L21.7347 36.1198C21.26 36.8151 20.638 37.3604 19.8686 37.7556C19.1042 38.1458 18.2499 38.3409 17.3056 38.3409C16.5112 38.3409 15.7718 38.2058 15.0873 37.9357C14.4028 37.6606 13.8183 37.2854 13.3337 36.8101C12.854 36.3299 12.4768 35.7521 12.202 35.0768C11.9323 34.4015 11.7974 33.6736 11.7974 32.8932C11.7974 32.1128 11.9323 31.385 12.202 30.7096C12.4768 30.0343 12.854 29.459 13.3337 28.9838C13.8183 28.5036 14.4028 28.1284 15.0873 27.8582C15.7718 27.5831 16.5112 27.4455 17.3056 27.4455Z" fill="#E5E7EB"/>
<path d="M29.6588 30.8747V38.1458H27.7478V37.3429C27.2132 38.0032 26.4888 38.3334 25.5745 38.3334C24.5753 38.3334 23.7384 37.9682 23.0639 37.2379C22.3945 36.5075 22.0597 35.597 22.0597 34.5065C22.0597 33.416 22.3945 32.5055 23.0639 31.7752C23.7384 31.0448 24.5753 30.6796 25.5745 30.6796C26.4838 30.6796 27.2082 31.0123 27.7478 31.6776V30.8747H29.6588ZM25.9342 32.503C25.3746 32.503 24.9225 32.6956 24.5778 33.0808C24.233 33.461 24.0607 33.9362 24.0607 34.5065C24.0607 35.0768 24.233 35.5545 24.5778 35.9397C24.9225 36.3199 25.3746 36.51 25.9342 36.51C26.4888 36.51 26.9384 36.3224 27.2832 35.9472C27.6329 35.567 27.8078 35.0868 27.8078 34.5065C27.8078 33.9262 27.6329 33.4485 27.2832 33.0733C26.9384 32.6931 26.4888 32.503 25.9342 32.503Z" fill="#E5E7EB"/>
<path d="M34.9086 30.6796C35.2983 30.6796 35.638 30.7322 35.9278 30.8372L35.6356 32.7807C35.2858 32.6256 34.8911 32.548 34.4515 32.548C33.9868 32.548 33.6146 32.6906 33.3348 32.9758C33.06 33.2559 32.9227 33.6586 32.9227 34.1838V38.1458H30.9667V30.8747H32.8627V31.6701C33.3024 31.0098 33.9843 30.6796 34.9086 30.6796Z" fill="#E5E7EB"/>
<path d="M43.8345 30.8747L40.9942 38.1458H38.7385L35.8682 30.8747H37.9966L39.8776 36.0823L41.7736 30.8747H43.8345Z" fill="#E5E7EB"/>
<path d="M51.1958 30.8747V38.1458H49.2848V37.3429C48.7502 38.0032 48.0258 38.3334 47.1115 38.3334C46.1123 38.3334 45.2754 37.9682 44.6009 37.2379C43.9315 36.5075 43.5967 35.597 43.5967 34.5065C43.5967 33.416 43.9315 32.5055 44.6009 31.7752C45.2754 31.0448 46.1123 30.6796 47.1115 30.6796C48.0208 30.6796 48.7452 31.0123 49.2848 31.6776V30.8747H51.1958ZM47.4712 32.503C46.9116 32.503 46.4595 32.6956 46.1148 33.0808C45.77 33.461 45.5977 33.9362 45.5977 34.5065C45.5977 35.0768 45.77 35.5545 46.1148 35.9397C46.4595 36.3199 46.9116 36.51 47.4712 36.51C48.0258 36.51 48.4754 36.3224 48.8202 35.9472C49.1699 35.567 49.3448 35.0868 49.3448 34.5065C49.3448 33.9262 49.1699 33.4485 48.8202 33.0733C48.4754 32.6931 48.0258 32.503 47.4712 32.503Z" fill="#E5E7EB"/>
<path d="M54.4597 27.3405V38.1458H52.5037V27.3405H54.4597Z" fill="#E5E7EB"/>
<path d="M57.7208 27.333V31.6551C58.1854 31.0048 58.8799 30.6796 59.8042 30.6796C60.6335 30.6796 61.3105 30.9423 61.8351 31.4675C62.3647 31.9928 62.6295 32.6756 62.6295 33.516V38.1458H60.6735V34.1463C60.6735 33.6261 60.5486 33.2259 60.2988 32.9457C60.054 32.6606 59.7068 32.518 59.2571 32.518C58.8125 32.518 58.4452 32.6606 58.1555 32.9457C57.8657 33.2309 57.7208 33.6361 57.7208 34.1613V38.1458H55.7648V27.333H57.7208Z" fill="#E5E7EB"/>
<path d="M67.3406 30.6796C68.4698 30.6796 69.4065 31.0448 70.151 31.7752C70.9004 32.5005 71.2751 33.411 71.2751 34.5065C71.2751 35.602 70.9004 36.515 70.151 37.2454C69.4065 37.9707 68.4698 38.3334 67.3406 38.3334C66.2165 38.3334 65.2822 37.9707 64.5378 37.2454C63.7934 36.515 63.4212 35.602 63.4212 34.5065C63.4212 33.411 63.7934 32.5005 64.5378 31.7752C65.2822 31.0448 66.2165 30.6796 67.3406 30.6796ZM68.7196 33.0658C68.3549 32.6906 67.8952 32.503 67.3406 32.503C66.7861 32.503 66.3264 32.6906 65.9617 33.0658C65.597 33.441 65.4146 33.9212 65.4146 34.5065C65.4146 35.0918 65.597 35.572 65.9617 35.9472C66.3264 36.3224 66.7861 36.51 67.3406 36.51C67.8952 36.51 68.3549 36.3224 68.7196 35.9472C69.0893 35.572 69.2741 35.0918 69.2741 34.5065C69.2741 33.9212 69.0893 33.441 68.7196 33.0658Z" fill="#E5E7EB"/>
<rect x="159" y="194" width="88" height="4" fill="#A9A9A9"/>
</svg>
