<svg width="128" height="128" viewBox="0 0 128 128" fill="none" xmlns="http://www.w3.org/2000/svg">
<mask id="mask0_2_100" style="mask-type:alpha" maskUnits="userSpaceOnUse" x="0" y="0" width="128" height="128">
<path fill-rule="evenodd" clip-rule="evenodd" d="M1.21899 56.156C1.21899 56.859 1.42599 57.323 1.54199 57.774C2.29799 60.707 3.92299 63.224 5.85099 65.52C8.59699 68.792 11.96 71.426 15.405 73.903C18.393 76.051 21.442 78.151 24.442 80.283C24.957 80.649 25.444 81.07 26.003 81.519C25.522 81.779 25.122 82.008 24.706 82.219C20.747 84.227 16.938 86.478 13.427 89.205C11.311 90.849 9.26499 92.596 7.81999 94.879C5.49499 98.551 4.67199 102.463 6.40499 106.64C6.91099 107.86 7.68299 108.914 8.77199 109.693C9.12499 109.945 9.52099 110.195 9.93399 110.293C10.992 110.542 12.07 110.705 13.141 110.902L16.174 110.9C19.528 110.601 22.581 109.452 25.34 107.548C29.652 104.572 32.557 100.582 33.806 95.461C34.714 91.739 34.751 88.013 33.681 84.308C33.5786 83.9648 33.4605 83.6264 33.327 83.294C33.197 82.961 33.044 82.637 32.864 82.222L39.74 78.268L39.843 78.356C39.718 78.765 39.585 79.173 39.472 79.586C38.655 82.57 38.112 85.606 38.307 88.703C38.515 92.003 39.436 95.092 41.368 97.849C42.93 100.079 46.652 100.162 48.312 97.924C48.901 97.129 49.472 96.298 49.901 95.411C51.022 93.096 52.06 90.74 53.131 88.4L53.318 87.972C53.241 89.08 53.151 90.053 53.11 91.027C53.046 92.548 53.135 94.06 53.655 95.507C54.1 96.745 54.857 97.67 56.275 97.833C57.245 97.944 58.018 97.5 58.731 96.937C59.8356 96.0641 60.7511 94.9757 61.422 93.738C63.323 90.247 65.275 86.777 66.998 83.198C68.862 79.327 70.492 75.343 72.223 71.406L72.509 70.708C72.918 72.315 73.203 73.889 73.728 75.379C74.338 77.108 75.093 78.796 75.915 80.437C76.304 81.212 76.259 81.715 75.72 82.365C73.464 85.085 71.247 87.838 69.028 90.588C68.537 91.195 68.048 91.813 67.639 92.476C67.3909 92.8947 67.2277 93.3582 67.159 93.84C67.0902 94.2836 67.1957 94.7366 67.4536 95.104C67.7114 95.4715 68.1015 95.7248 68.542 95.811C69.4311 96.0025 70.3427 96.0675 71.25 96.004C74.347 95.776 77.159 94.689 79.645 92.847C82.866 90.461 83.9 87.205 83.12 83.346C82.909 82.299 82.536 81.281 82.173 80.272C82.01 79.817 81.999 79.498 82.296 79.074C84.871 75.397 87.071 71.496 89.117 67.505C89.198 67.348 89.281 67.191 89.423 67.023C90.086 70.473 91.084 73.798 92.872 76.815C91.96 77.694 91.057 78.491 90.24 79.369C88.441 81.303 86.881 83.403 86.067 85.964C85.717 87.068 85.448 88.19 85.604 89.369C85.846 91.2 87.346 92.39 89.147 91.973C93.001 91.081 96.328 89.265 98.759 86.048C100.395 83.882 100.544 81.466 99.859 78.935C99.671 78.247 99.448 77.57 99.208 76.781C100.159 76.486 101.086 76.132 102.045 75.913C107.024 74.777 111.949 74.975 116.747 76.773C119.548 77.823 121.811 79.58 123.153 82.344C124.792 85.723 123.886 88.929 120.701 91.065C120.404 91.264 120.064 91.421 119.818 91.67C119.739 91.7613 119.68 91.8681 119.645 91.9834C119.61 92.0988 119.599 92.2202 119.613 92.34C119.634 92.463 119.959 92.617 120.146 92.615C121.193 92.607 122.042 92.058 122.857 91.494C124.899 90.081 126.389 88.18 126.71 85.677L126.773 85.489L126.696 83.859C126.665 83.765 126.719 83.672 126.712 83.601C126.278 79.956 124.331 77.129 121.499 74.913C118.219 72.348 114.346 71.292 110.25 71.125C106.928 70.982 103.61 71.4927 100.485 72.628C99.588 72.953 98.699 73.338 97.797 73.701C97.676 73.482 97.546 73.272 97.439 73.055C96.513 71.159 95.391 69.347 95.143 67.173C94.967 65.629 94.751 64.087 95.118 62.56C95.471 61.091 95.931 59.647 96.364 58.198C96.587 57.452 96.43 57.034 95.718 56.698C95.4699 56.5743 95.2051 56.4874 94.932 56.44C93.182 56.186 91.456 56.331 89.761 56.824C89.161 56.999 88.725 57.335 88.592 57.999C88.516 58.38 88.361 58.745 88.253 59.121C87.81 60.684 87.496 62.277 86.78 63.766C84.986 67.501 82.938 71.095 80.842 74.663C80.615 75.048 80.376 75.426 80.09 75.893C79.354 74.353 78.569 72.971 78.331 71.351C78.062 69.519 77.85 67.69 78.306 65.872C78.645 64.516 79.088 63.185 79.496 61.847C79.689 61.211 79.6 60.877 79.024 60.542C78.733 60.373 78.404 60.223 78.076 60.174C76.2816 59.9007 74.4481 60.0507 72.722 60.612C72.179 60.788 71.894 61.139 71.728 61.699C71.24 63.351 70.824 65.043 70.139 66.614C67.365 72.974 64.511 79.301 61.66 85.627C61.065 86.948 60.368 88.223 59.697 89.509C59.527 89.835 59.279 90.122 59.067 90.428C58.897 90.227 58.831 90.089 58.832 89.951C58.837 89.138 58.74 88.301 58.895 87.515C59.371 85.1378 59.8971 82.771 60.473 80.416C60.943 78.47 61.49 76.542 62.011 74.609C62.186 73.962 62.189 73.357 61.724 72.813C60.943 71.902 59.311 71.702 58.343 72.404L57.915 72.646L57.998 71.956C58.202 70.477 58.243 69.003 57.837 67.546C57.331 65.73 56.035 64.685 54.151 64.743C53.273 64.77 52.351 64.92 51.538 65.24C48.119 66.58 45.49 68.953 43.252 71.808C43.0445 72.0731 42.7874 72.2952 42.495 72.462C39.602 74.066 36.7 75.65 33.799 77.24L30.57 79.009C29.704 78.183 28.917 77.326 28.024 76.599C25.297 74.375 22.526 72.206 19.78 70.007C17.346 68.058 14.988 66.028 13.184 63.447C11.842 61.527 10.977 59.426 10.894 57.052C10.789 54.027 11.647 51.263 13.187 48.69C15.157 45.398 17.844 42.756 20.798 40.363C23.923 37.833 27.303 35.685 30.806 33.724C35.707 30.981 40.748 28.553 46.153 26.95C51.695 25.306 57.318 24.365 63.118 25.021C65.398 25.279 67.612 25.801 69.645 26.916C71.202 27.769 72.479 28.886 73.073 30.632C73.659 32.35 73.641 34.091 73.235 35.836C72.41 39.37 70.475 42.283 68.04 44.886C64.046 49.153 59.174 52.058 53.689 53.977C50.5353 55.0818 47.254 55.7817 43.924 56.06C41.195 56.289 38.523 56.047 35.939 55.098C34.228 54.469 32.738 53.507 31.54 52.111C31.326 51.861 31.052 51.59 30.653 51.824C30.262 52.054 30.193 52.426 30.324 52.803C30.543 53.429 30.745 54.081 31.086 54.641C31.943 56.046 33.193 57.065 34.569 57.939C37.212 59.62 40.166 60.185 43.229 60.316C47.877 60.517 52.412 59.823 56.883 58.576C63.266 56.796 68.816 53.652 73.267 48.692C76.973 44.562 79.62 39.901 80.187 34.273C80.464 31.526 80.169 28.835 78.883 26.329C77.488 23.614 75.27 21.595 72.618 20.204C68.756 18.179 64.588 17 60.286 17H55.976C50.766 17 45.729 18.493 40.833 20.274C37.127 21.623 33.493 23.215 29.965 24.977C22.282 28.816 15.127 33.445 9.24999 39.81C6.32199 42.981 3.84299 46.48 2.41699 50.6C1.9866 51.8301 1.61583 53.0802 1.30599 54.346M29.145 90.359C28.812 94.818 26.791 98.433 23.488 101.361C21.63 103.007 19.499 104.179 17.017 104.591C16.117 104.74 15.196 104.776 14.323 104.403C13.078 103.871 12.799 102.766 12.775 101.589C12.738 99.713 13.395 98.017 14.296 96.403C15.472 94.299 17.196 92.695 19.037 91.197C21.937 88.836 25.083 86.838 28.305 84.952L28.548 84.852C29.046 86.692 29.283 88.509 29.145 90.359ZM54.303 70.98C54.068 72.404 53.774 73.829 53.358 75.209C51.92 79.986 50.073 84.615 48.076 89.182C47.707 90.027 47.17 90.798 46.703 91.599C46.6235 91.7221 46.5284 91.8344 46.42 91.933C45.842 92.504 45.294 92.474 45.002 91.727C44.662 90.859 44.453 89.93 44.273 89.011C44.152 88.394 44.181 87.746 44.143 87.114C44.182 82.62 45.553 78.536 47.879 74.734C48.838 73.166 49.882 71.672 51.477 70.68C51.9732 70.3715 52.51 70.1339 53.072 69.974C53.922 69.735 54.444 70.128 54.303 70.98ZM71.467 92.848L77.636 85.645C77.893 88.32 73.346 93.66 71.467 92.848ZM91.17 88.001C90.734 88.251 90.259 88.431 89.812 88.662C89.403 88.874 89.268 88.66 89.256 88.308C89.25 88.0643 89.2813 87.8212 89.349 87.587C90.182 84.649 91.715 82.141 93.996 80.101L94.156 80.019C95.241 83.054 93.987 86.387 91.17 88.001Z" fill="#CB6699"/>
</mask>
<g mask="url(#mask0_2_100)">
<rect x="-36" y="-24" width="186" height="176" fill="#A8A8A8"/>
</g>
</svg>
