<svg width="250" height="110" viewBox="0 0 250 110" fill="none" xmlns="http://www.w3.org/2000/svg">
<mask id="mask0_19_2033" style="mask-type:alpha" maskUnits="userSpaceOnUse" x="0" y="0" width="250" height="110">
<path d="M37.48 73.3333L44.1466 80V73.3333H50.8133L44.1466 66.6666H37.48V73.3333Z" fill="black"/>
<path d="M50.8133 60H37.48L44.1466 66.6667H50.8133V60Z" fill="black"/>
<path fill-rule="evenodd" clip-rule="evenodd" d="M118.44 70C118.44 75.5228 113.963 80 108.44 80C102.917 80 98.4399 75.5228 98.4399 70C98.4399 64.4772 102.917 60 108.44 60C113.963 60 118.44 64.4772 118.44 70ZM111.105 68.4945H113.777V68.9716H112.717V71.482H112.187V68.9716H111.105V68.4945ZM106.71 68.9716V68.4945H104.037V68.9716H104.038V71.4597L101.568 68.4932H100.906V71.4808H101.436V69.1318L103.39 71.482L104.038 71.482L104.056 71.482L106.71 71.482V71.0048H104.568V70.2165H106.29V69.7393H104.568V68.9716H106.71ZM108.044 68.4957H107.351L109.835 71.4833H110.531L109.288 69.9905L110.529 68.498L109.835 68.499L108.941 69.5732L108.044 68.4957ZM108.409 70.2119L108.756 70.6297L108.044 71.4855H107.349L108.409 70.2119ZM113.797 71.4247C113.825 71.4508 113.858 71.4638 113.896 71.4638C113.922 71.4638 113.945 71.4576 113.965 71.4456C113.987 71.434 114.003 71.4179 114.017 71.3973C114.03 71.3771 114.036 71.3546 114.037 71.3299C114.036 71.2936 114.022 71.2625 113.994 71.2364C113.966 71.2104 113.934 71.1974 113.896 71.1974C113.858 71.1974 113.825 71.2104 113.797 71.2364C113.769 71.2625 113.756 71.2936 113.756 71.3299C113.756 71.3672 113.769 71.3987 113.797 71.4247ZM114.801 70.2052H115.036V71.0807C115.036 71.1611 115.018 71.2299 114.983 71.2878C114.947 71.3457 114.898 71.3898 114.835 71.421C114.772 71.4518 114.698 71.4675 114.614 71.4675C114.538 71.4675 114.469 71.4542 114.408 71.4282C114.347 71.4021 114.299 71.3631 114.263 71.3118C114.227 71.2604 114.21 71.1964 114.21 71.1197H114.445C114.445 71.1532 114.453 71.1823 114.468 71.2066C114.483 71.231 114.504 71.2494 114.531 71.2625C114.558 71.2755 114.589 71.282 114.623 71.282C114.661 71.282 114.693 71.2744 114.72 71.259C114.746 71.244 114.766 71.2214 114.78 71.1912C114.794 71.1615 114.801 71.1245 114.801 71.0807V70.2052ZM115.928 70.4236C115.972 70.4531 115.997 70.4945 116.003 70.5476H116.23C116.229 70.4774 116.208 70.4154 116.168 70.3613C116.129 70.3072 116.074 70.2648 116.004 70.2343C115.934 70.2035 115.852 70.1884 115.76 70.1884C115.669 70.1884 115.587 70.2035 115.514 70.2343C115.442 70.2648 115.385 70.3076 115.343 70.3627C115.301 70.4178 115.28 70.4822 115.28 70.5555C115.28 70.6448 115.311 70.716 115.374 70.7698C115.436 70.8235 115.521 70.8636 115.628 70.89L115.777 70.9262C115.824 70.9375 115.865 70.9506 115.9 70.9649C115.935 70.9793 115.962 70.9971 115.982 71.0183C116.001 71.0396 116.011 71.0666 116.011 71.0991C116.011 71.1348 116 71.1659 115.978 71.1923C115.956 71.219 115.925 71.2395 115.886 71.2542C115.847 71.269 115.802 71.2765 115.751 71.2765C115.702 71.2765 115.657 71.2693 115.617 71.2553C115.578 71.2409 115.545 71.2197 115.521 71.1909C115.496 71.1618 115.482 71.1258 115.479 71.0827H115.246C115.249 71.1652 115.272 71.2354 115.314 71.2929C115.356 71.3504 115.414 71.3943 115.489 71.4241C115.563 71.4542 115.651 71.4692 115.753 71.4692C115.857 71.4692 115.946 71.4535 116.02 71.4227C116.094 71.3915 116.15 71.3484 116.19 71.2933C116.229 71.2378 116.248 71.1738 116.248 71.1009C116.248 71.0468 116.237 70.9999 116.216 70.9598C116.195 70.9197 116.166 70.8855 116.13 70.8571C116.094 70.8287 116.052 70.805 116.007 70.7866C115.961 70.7677 115.913 70.753 115.864 70.742L115.742 70.7129C115.715 70.7068 115.689 70.6992 115.662 70.6903C115.636 70.6814 115.612 70.6705 115.59 70.6571C115.568 70.6441 115.551 70.628 115.539 70.6089C115.526 70.59 115.52 70.5674 115.52 70.5414C115.521 70.5103 115.53 70.4825 115.549 70.4582C115.567 70.4339 115.595 70.4147 115.63 70.4004C115.665 70.3863 115.707 70.3791 115.756 70.3791C115.827 70.3791 115.884 70.3939 115.928 70.4236Z" fill="black"/>
<path d="M145.57 60C144.809 60.0058 144.052 60.1188 143.322 60.3358L143.27 60.3525C142.809 60.2693 142.343 60.2233 141.875 60.215C140.914 60.1983 140.088 60.4367 139.422 60.8333C138.766 60.6008 137.405 60.2 135.97 60.28C134.971 60.3358 133.881 60.6458 133.073 61.5167C132.268 62.3875 131.842 63.735 131.932 65.5684C131.956 66.0742 132.097 66.8992 132.332 67.9676C132.566 69.0359 132.895 70.2868 133.305 71.4276C133.716 72.5693 134.165 73.5943 134.868 74.291C135.219 74.6401 135.702 74.9335 136.271 74.9093C136.671 74.8926 137.033 74.7135 137.344 74.4493C137.496 74.6535 137.659 74.7426 137.806 74.8251C137.992 74.9293 138.173 75.0001 138.361 75.0468C138.698 75.1326 139.275 75.2476 139.951 75.1301C140.181 75.091 140.423 75.0143 140.665 74.9051C140.674 75.1801 140.684 75.4493 140.695 75.7218C140.728 76.5851 140.75 77.3827 141.003 78.0818C141.044 78.196 141.156 78.7843 141.597 79.3035C142.037 79.8235 142.901 80.1477 143.884 79.9327C144.578 79.781 145.46 79.5077 146.046 78.656C146.625 77.8143 146.886 76.6068 146.938 74.6485C146.951 74.5426 146.966 74.4526 146.982 74.3685L147.12 74.381H147.137C147.877 74.4151 148.68 74.3076 149.351 73.9893C149.945 73.7085 150.394 73.4243 150.721 72.9201C150.803 72.7951 150.893 72.6443 150.917 72.3843C150.942 72.1243 150.796 71.7176 150.553 71.5301C150.068 71.1534 149.763 71.2968 149.435 71.3659C149.113 71.4387 148.785 71.4795 148.455 71.4876C149.398 69.8651 150.074 68.1417 150.46 66.6167C150.689 65.7167 150.817 64.8867 150.827 64.1609C150.838 63.435 150.78 62.7925 150.354 62.2367C149.023 60.5 147.152 60.02 145.705 60.0033C145.66 60.0025 145.615 60.0017 145.57 60.0025V60ZM145.532 60.5333C146.901 60.52 148.65 60.9125 149.906 62.5517C150.189 62.92 150.273 63.4584 150.263 64.1217C150.252 64.7842 150.132 65.5776 149.913 66.4467C149.487 68.1301 148.682 70.0926 147.549 71.8534C147.589 71.8825 147.632 71.9065 147.678 71.9251C147.914 72.0251 148.454 72.1109 149.53 71.8851C149.801 71.8268 149.999 71.7876 150.205 71.9476C150.255 71.9909 150.294 72.0453 150.32 72.1068C150.346 72.1682 150.358 72.235 150.354 72.3018C150.343 72.4029 150.307 72.4994 150.248 72.5818C150.04 72.9009 149.63 73.2035 149.103 73.4526C148.637 73.6743 147.969 73.7901 147.377 73.7968C147.08 73.8001 146.805 73.7768 146.573 73.7026L146.558 73.6968C146.468 74.5801 146.262 76.3243 146.127 77.1202C146.02 77.7618 145.831 78.2718 145.471 78.6535C145.112 79.0352 144.604 79.2652 143.92 79.4152C143.073 79.601 142.455 79.401 142.057 79.0585C141.66 78.7168 141.478 78.2635 141.368 77.986C141.293 77.7943 141.254 77.546 141.216 77.2143C141.179 76.8827 141.151 76.4768 141.132 76.0193C141.107 75.3188 141.099 74.6177 141.108 73.9168C140.754 74.2477 140.314 74.4676 139.841 74.5501C139.279 74.6476 138.777 74.5518 138.478 74.4751C138.33 74.4373 138.188 74.381 138.054 74.3076C137.915 74.2318 137.783 74.146 137.694 73.9768C137.643 73.8799 137.626 73.7674 137.648 73.6593C137.676 73.5497 137.738 73.4526 137.826 73.3835C137.987 73.2493 138.201 73.1743 138.524 73.106C139.11 72.9826 139.315 72.8984 139.44 72.7976C139.546 72.7109 139.666 72.5359 139.878 72.2793C139.877 72.2679 139.876 72.2565 139.876 72.2451C139.496 72.2342 139.124 72.132 138.79 71.9468C138.668 72.0784 138.043 72.7534 137.281 73.6901C136.96 74.0818 136.606 74.3068 136.232 74.3226C135.858 74.3393 135.521 74.1468 135.233 73.8626C134.66 73.2935 134.202 72.3143 133.803 71.2076C133.405 70.1009 133.081 68.8684 132.851 67.8184C132.62 66.7684 132.483 65.9217 132.464 65.5134C132.378 63.7784 132.775 62.6092 133.457 61.8717C134.139 61.1342 135.074 60.855 135.986 60.8017C137.622 60.7058 139.176 61.2883 139.49 61.4133C140.095 60.9933 140.875 60.7317 141.85 60.7483C142.312 60.755 142.772 60.8159 143.221 60.93L143.238 60.9225C143.435 60.8516 143.637 60.792 143.841 60.7442C144.395 60.6121 144.962 60.542 145.531 60.535L145.532 60.5333ZM145.656 61.0917H145.536C145.069 61.0983 144.603 61.1519 144.146 61.2517C145.163 61.7117 145.931 62.42 146.472 63.1267C146.847 63.616 147.158 64.154 147.395 64.7267C147.485 64.9467 147.545 65.1325 147.58 65.2767C147.597 65.3492 147.608 65.41 147.612 65.4734C147.614 65.505 147.616 65.5375 147.603 65.5934C147.603 65.5959 147.599 65.6017 147.598 65.6042C147.622 66.3342 147.445 66.8292 147.424 67.5259C147.408 68.0309 147.534 68.6242 147.565 69.2718C147.594 69.8801 147.523 70.5484 147.136 71.2043C147.168 71.2443 147.198 71.2843 147.229 71.3243C148.252 69.6784 148.99 67.8576 149.383 66.3051C149.594 65.4692 149.705 64.7117 149.715 64.1117C149.723 63.5117 149.614 63.0767 149.475 62.895C148.379 61.465 146.898 61.1017 145.656 61.0917ZM141.747 61.305C140.782 61.3075 140.09 61.605 139.566 62.0509C139.025 62.5117 138.661 63.1425 138.423 63.7884C138.14 64.555 138.043 65.2967 138.005 65.8001L138.015 65.7934C138.306 65.6267 138.689 65.46 139.099 65.3634C139.508 65.2675 139.95 65.2375 140.35 65.3959C140.75 65.5542 141.08 65.9267 141.2 66.4917C141.775 69.2059 141.021 70.2151 140.744 70.9768C140.639 71.2528 140.549 71.5347 140.474 71.8209C140.509 71.8126 140.544 71.8026 140.579 71.7993C140.775 71.7826 140.928 71.8493 141.02 71.8893C141.299 72.0076 141.491 72.2559 141.594 72.5393C141.621 72.6134 141.641 72.6934 141.652 72.7759C141.664 72.8098 141.67 72.8458 141.668 72.8818C141.638 73.9199 141.641 74.9589 141.679 75.9968C141.698 76.4451 141.726 76.8402 141.761 77.1518C141.796 77.4627 141.846 77.6993 141.877 77.7793C141.982 78.046 142.134 78.3952 142.41 78.6327C142.686 78.8693 143.082 79.0277 143.805 78.8693C144.432 78.7318 144.818 78.541 145.077 78.2668C145.335 77.9927 145.489 77.611 145.588 77.0268C145.736 76.1518 146.033 73.6143 146.068 73.1368C146.052 72.7768 146.104 72.5001 146.217 72.2893C146.333 72.0726 146.512 71.9401 146.667 71.8684C146.745 71.8326 146.818 71.8084 146.877 71.7909C146.814 71.6984 146.748 71.6081 146.679 71.5201C146.455 71.2432 146.272 70.9348 146.135 70.6043C146.07 70.4678 146 70.3335 145.926 70.2018C145.817 70.0018 145.68 69.7518 145.536 69.4709C145.249 68.9084 144.937 68.2267 144.774 67.5626C144.613 66.8992 144.589 66.2126 145.004 65.7284C145.371 65.2984 146.015 65.12 146.983 65.22C146.955 65.1325 146.938 65.06 146.889 64.9434C146.671 64.4174 146.385 63.9232 146.04 63.4734C145.22 62.4025 143.892 61.3408 141.841 61.3067H141.747V61.305ZM136.327 61.3483C136.223 61.3483 136.12 61.3517 136.017 61.3575C135.193 61.4058 134.413 61.65 133.856 62.2534C133.298 62.8567 132.931 63.8459 133.011 65.4834C133.026 65.7934 133.158 66.6617 133.385 67.6934C133.611 68.7251 133.932 69.9393 134.317 71.0118C134.703 72.0843 135.171 73.0176 135.614 73.4593C135.838 73.6801 136.032 73.7693 136.208 73.7618C136.386 73.7535 136.599 73.6493 136.859 73.3301C137.333 72.7455 137.826 72.1763 138.336 71.6234C137.974 71.3027 137.697 70.8941 137.531 70.4353C137.364 69.9766 137.314 69.4824 137.384 68.9984C137.468 68.3826 137.479 67.8067 137.469 67.3517C137.459 66.9084 137.428 66.6134 137.428 66.4292C137.428 66.4239 137.428 66.4187 137.428 66.4134V66.4092L137.428 66.4042C137.427 65.4449 137.591 64.492 137.911 63.59C138.139 62.97 138.479 62.34 138.989 61.83C138.488 61.6617 137.599 61.405 136.636 61.3567C136.533 61.3513 136.43 61.3485 136.327 61.3483ZM146.444 65.7501C145.89 65.7576 145.579 65.9034 145.416 66.0942C145.185 66.3651 145.163 66.8401 145.306 67.4251C145.449 68.0109 145.745 68.6659 146.022 69.2101C146.161 69.4826 146.295 69.7276 146.404 69.9268C146.513 70.1268 146.593 70.2684 146.642 70.3893C146.687 70.5009 146.737 70.5993 146.787 70.6909C147.002 70.2284 147.04 69.7743 147.018 69.3009C146.99 68.7151 146.857 68.1159 146.876 67.5092C146.898 66.8001 147.035 66.3384 147.048 65.7901C146.847 65.7636 146.646 65.7502 146.444 65.7501ZM139.725 65.8459C139.555 65.8475 139.387 65.8682 139.222 65.9076C138.894 65.9891 138.577 66.1149 138.281 66.2817C138.181 66.3366 138.086 66.4001 137.996 66.4717L137.978 66.4884C137.983 66.6101 138.007 66.9051 138.017 67.3392C138.027 67.8142 138.015 68.4201 137.925 69.0759C137.73 70.5009 138.743 71.6809 139.933 71.6826C140.002 71.3901 140.116 71.0934 140.231 70.7809C140.562 69.8693 141.214 69.2042 140.665 66.6092C140.575 66.1842 140.397 66.0126 140.152 65.9159C140.015 65.8663 139.87 65.8426 139.725 65.8459ZM146.185 66.0159H146.226C146.28 66.0176 146.33 66.0234 146.373 66.0342C146.417 66.0442 146.454 66.0592 146.485 66.0801C146.501 66.0901 146.515 66.1035 146.526 66.1193C146.536 66.1351 146.543 66.1529 146.547 66.1717L146.546 66.1784C146.547 66.2179 146.537 66.2571 146.517 66.2909C146.493 66.3366 146.463 66.3787 146.428 66.4159C146.345 66.509 146.234 66.5712 146.113 66.5926C145.994 66.6071 145.875 66.5766 145.778 66.5067C145.738 66.4794 145.702 66.4462 145.672 66.4084C145.645 66.3787 145.628 66.342 145.62 66.3026C145.619 66.2833 145.621 66.264 145.627 66.2456C145.633 66.2273 145.642 66.2103 145.655 66.1959C145.682 66.1648 145.714 66.1393 145.75 66.1209C145.829 66.0759 145.935 66.0426 146.055 66.0242C146.099 66.0176 146.144 66.0142 146.185 66.0134V66.0159ZM139.804 66.1559C139.847 66.1559 139.893 66.1601 139.939 66.1667C140.064 66.1842 140.175 66.2184 140.26 66.2684C140.301 66.2905 140.338 66.3204 140.369 66.3567C140.385 66.376 140.397 66.3985 140.405 66.4229C140.413 66.4472 140.415 66.473 140.413 66.4984C140.405 66.5463 140.384 66.5909 140.351 66.6267C140.318 66.6686 140.279 66.7051 140.235 66.7351C140.129 66.8118 139.998 66.8454 139.869 66.8292C139.737 66.8071 139.616 66.7401 139.526 66.6392C139.488 66.5986 139.456 66.5526 139.43 66.5026C139.403 66.4586 139.391 66.4067 139.397 66.3551C139.409 66.2651 139.482 66.2184 139.553 66.1926C139.633 66.1662 139.718 66.1549 139.803 66.1592L139.804 66.1559ZM147.197 72.2751L147.195 72.2759C147.075 72.3201 146.976 72.3384 146.893 72.3759C146.808 72.409 146.739 72.4725 146.698 72.5543C146.646 72.6501 146.602 72.8201 146.615 73.1093C146.652 73.1352 146.693 73.1549 146.736 73.1676C146.876 73.211 147.11 73.2393 147.371 73.2351C147.891 73.2293 148.532 73.1051 148.872 72.9434C149.151 72.811 149.411 72.6384 149.642 72.4309C148.505 72.6709 147.862 72.6068 147.468 72.4409C147.37 72.3994 147.279 72.344 147.197 72.2751ZM140.644 72.3534H140.626C140.583 72.3576 140.52 72.3726 140.399 72.5101C140.115 72.8351 140.015 73.0393 139.781 73.2301C139.547 73.4201 139.242 73.5218 138.635 73.6493C138.442 73.6893 138.332 73.7335 138.258 73.7693C138.282 73.7893 138.28 73.7943 138.315 73.8135C138.404 73.8635 138.519 73.9076 138.611 73.9318C138.872 73.9985 139.301 74.076 139.749 73.9985C140.197 73.9201 140.663 73.701 141.061 73.1318C141.129 73.0335 141.136 72.8884 141.08 72.7326C141.023 72.5768 140.898 72.4426 140.81 72.4051C140.758 72.3793 140.701 72.3624 140.644 72.3551V72.3534Z" fill="black"/>
<path fill-rule="evenodd" clip-rule="evenodd" d="M65.96 70V80H75.96H85.96V70V60H75.96H65.96V70ZM70.3827 70.0663L70.3764 70.8854H71.6779H72.9795V74.5838V78.2822H73.9002H74.8208V74.5838V70.8854H76.1224H77.424V70.0822C77.424 69.6378 77.4145 69.2663 77.4018 69.2568C77.3922 69.2441 75.8081 69.2378 73.8875 69.2409L70.3922 69.2505L70.3827 70.0663ZM83.3488 69.9478C82.9932 69.5796 82.6059 69.3542 82.098 69.2272C81.7519 69.1415 80.9329 69.1161 80.5805 69.1828C79.4948 69.3891 78.7424 70.0844 78.5297 71.0812C78.4694 71.3669 78.4885 72.0748 78.5646 72.3574C78.6567 72.6971 78.8789 73.1034 79.1139 73.3574C79.5202 73.7955 79.9646 74.0717 80.9964 74.5161C81.898 74.9066 82.2154 75.0939 82.371 75.3161C82.4916 75.4907 82.5202 75.5923 82.5202 75.824C82.5202 76.0812 82.444 76.2558 82.2599 76.424C81.8281 76.8113 80.9519 76.859 80.3139 76.5225C80.0916 76.405 79.7234 76.0526 79.5551 75.7955L79.4345 75.6177L78.8599 75.951C78.5424 76.1351 78.2059 76.3288 78.117 76.3796C78.025 76.4336 77.9424 76.4844 77.9329 76.4971C77.9107 76.5352 78.2694 77.0653 78.4535 77.2685C78.9234 77.7891 79.6853 78.1859 80.4885 78.3288C80.8567 78.3955 81.6694 78.405 82.0123 78.3447C83.1202 78.1574 83.9075 77.5923 84.225 76.7605C84.5138 75.9955 84.4186 74.9669 83.9932 74.3225C83.6123 73.7447 82.9996 73.3383 81.5678 72.7225C80.79 72.3859 80.5424 72.2209 80.4091 71.9447C80.3456 71.8177 80.3234 71.7256 80.3234 71.5701C80.3202 71.0399 80.7107 70.7225 81.317 70.7637C81.7297 70.7923 81.9996 70.9542 82.2567 71.3288C82.3424 71.4558 82.4186 71.5383 82.4377 71.5256C82.9646 71.1986 83.8345 70.6145 83.8281 70.5891C83.8059 70.5034 83.5329 70.1447 83.3488 69.9478Z" fill="#007ACC"/>
<path fill-rule="evenodd" clip-rule="evenodd" d="M173.274 63C170.374 63 168.562 64.4441 167.837 67.3333C168.924 65.8893 170.193 65.3476 171.642 65.7083C172.47 65.9143 173.061 66.5127 173.715 67.1742C174.782 68.2521 176.016 69.5 178.71 69.5C181.61 69.5 183.422 68.0559 184.147 65.1667C183.06 66.6107 181.792 67.1524 180.341 66.7917C179.514 66.5857 178.922 65.9873 178.268 65.3258C177.202 64.2468 175.969 63 173.274 63ZM167.837 69.5C164.937 69.5 163.125 70.9441 162.4 73.8333C163.487 72.3882 164.756 71.8476 166.206 72.2083C167.033 72.4143 167.625 73.0127 168.279 73.6742C169.345 74.7521 170.579 76 173.275 76C176.175 76 177.986 74.5559 178.711 71.6667C177.624 73.1107 176.355 73.6524 174.906 73.2917C174.078 73.0857 173.487 72.4873 172.833 71.8258C171.765 70.7479 170.531 69.5 167.837 69.5Z" fill="black"/>
<path d="M102.44 13.3333L109.107 20V13.3333H115.773L109.107 6.66663H102.44V13.3333Z" fill="black"/>
<path d="M115.773 0H102.44L109.107 6.66667H115.773V0Z" fill="black"/>
<path fill-rule="evenodd" clip-rule="evenodd" d="M183.4 10C183.4 15.5228 178.923 20 173.4 20C167.877 20 163.4 15.5228 163.4 10C163.4 4.47715 167.877 0 173.4 0C178.923 0 183.4 4.47715 183.4 10ZM176.065 8.49447H178.737V8.97165H177.677V11.482H177.147V8.97165H176.065V8.49447ZM171.67 8.97165V8.49447H168.997V8.97165H168.998V11.4597L166.528 8.49322H165.866V11.4808H166.396V9.13181L168.35 11.482L168.998 11.482L169.016 11.482L171.67 11.482V11.0048H169.528V10.2165H171.25V9.73928H169.528V8.97165H171.67ZM173.004 8.49571H172.311L174.795 11.4833H175.491L174.248 9.99052L175.489 8.49799L174.795 8.49903L173.901 9.57324L173.004 8.49571ZM173.369 10.2119L173.716 10.6297L173.004 11.4855H172.309L173.369 10.2119ZM178.757 11.4247C178.785 11.4508 178.818 11.4638 178.856 11.4638C178.882 11.4638 178.905 11.4576 178.925 11.4456C178.947 11.434 178.963 11.4179 178.977 11.3973C178.99 11.3771 178.996 11.3546 178.996 11.3299C178.996 11.2936 178.982 11.2625 178.954 11.2364C178.926 11.2104 178.894 11.1974 178.856 11.1974C178.818 11.1974 178.785 11.2104 178.757 11.2364C178.729 11.2625 178.716 11.2936 178.716 11.3299C178.716 11.3672 178.729 11.3987 178.757 11.4247ZM179.761 10.2052H179.996V11.0807C179.996 11.1611 179.978 11.2299 179.942 11.2878C179.907 11.3457 179.858 11.3898 179.795 11.421C179.732 11.4518 179.658 11.4675 179.574 11.4675C179.498 11.4675 179.429 11.4542 179.368 11.4282C179.307 11.4021 179.259 11.3631 179.223 11.3118C179.187 11.2604 179.17 11.1964 179.17 11.1197H179.405C179.405 11.1532 179.413 11.1823 179.428 11.2066C179.443 11.231 179.464 11.2494 179.491 11.2625C179.518 11.2755 179.549 11.282 179.583 11.282C179.621 11.282 179.653 11.2744 179.68 11.259C179.706 11.244 179.726 11.2214 179.74 11.1912C179.754 11.1615 179.761 11.1245 179.761 11.0807V10.2052ZM180.888 10.4236C180.932 10.4531 180.957 10.4945 180.962 10.5476H181.19C181.189 10.4774 181.168 10.4154 181.128 10.3613C181.089 10.3072 181.034 10.2648 180.964 10.2343C180.893 10.2035 180.812 10.1884 180.72 10.1884C180.628 10.1884 180.547 10.2035 180.474 10.2343C180.402 10.2648 180.345 10.3076 180.303 10.3627C180.261 10.4178 180.24 10.4822 180.24 10.5555C180.24 10.6448 180.271 10.716 180.334 10.7698C180.396 10.8235 180.481 10.8636 180.588 10.89L180.737 10.9262C180.784 10.9375 180.825 10.9506 180.86 10.9649C180.895 10.9793 180.922 10.9971 180.942 11.0183C180.961 11.0396 180.971 11.0666 180.971 11.0991C180.971 11.1348 180.96 11.1659 180.938 11.1923C180.916 11.219 180.885 11.2395 180.846 11.2542C180.807 11.269 180.762 11.2765 180.711 11.2765C180.661 11.2765 180.617 11.2693 180.577 11.2553C180.538 11.2409 180.505 11.2197 180.48 11.1909C180.456 11.1618 180.442 11.1258 180.438 11.0827H180.206C180.209 11.1652 180.232 11.2354 180.274 11.2929C180.316 11.3504 180.374 11.3943 180.449 11.4241C180.523 11.4542 180.611 11.4692 180.713 11.4692C180.817 11.4692 180.906 11.4535 180.98 11.4227C181.054 11.3915 181.11 11.3484 181.15 11.2933C181.189 11.2378 181.208 11.1738 181.208 11.1009C181.208 11.0468 181.197 10.9999 181.176 10.9598C181.155 10.9197 181.126 10.8855 181.09 10.8571C181.054 10.8287 181.012 10.805 180.967 10.7866C180.921 10.7677 180.873 10.753 180.824 10.742L180.702 10.7129C180.675 10.7068 180.649 10.6992 180.622 10.6903C180.596 10.6814 180.572 10.6705 180.55 10.6571C180.528 10.6441 180.511 10.628 180.499 10.6089C180.486 10.59 180.48 10.5674 180.48 10.5414C180.48 10.5103 180.49 10.4825 180.508 10.4582C180.527 10.4339 180.554 10.4147 180.59 10.4004C180.625 10.3863 180.667 10.3791 180.716 10.3791C180.786 10.3791 180.844 10.3939 180.888 10.4236Z" fill="black"/>
<path fill-rule="evenodd" clip-rule="evenodd" d="M21 40C21 45.5228 16.5228 50 11 50C5.47715 50 1 45.5228 1 40C1 34.4772 5.47715 30 11 30C16.5228 30 21 34.4772 21 40ZM13.665 38.4945H16.3374V38.9716H15.2772V41.482H14.7472V38.9716H13.665V38.4945ZM9.26989 38.9716V38.4945H6.59751V38.9716H6.59773V41.4597L4.12834 38.4932H3.46577V41.4808H3.99583V39.1318L5.95042 41.482L6.59773 41.482L6.61631 41.482L9.26989 41.482V41.0048H7.12779V40.2165H8.85047V39.7393H7.12779V38.9716H9.26989ZM10.6043 38.4957H9.91061L12.3952 41.4833H13.0909L11.8485 39.9905L13.089 38.498L12.3952 38.499L11.5012 39.5732L10.6043 38.4957ZM10.9687 40.2119L11.3161 40.6297L10.6043 41.4855H9.90863L10.9687 40.2119ZM16.357 41.4247C16.3847 41.4508 16.4177 41.4638 16.4565 41.4638C16.4816 41.4638 16.5046 41.4576 16.5254 41.4456C16.5467 41.434 16.5635 41.4179 16.5768 41.3973C16.5897 41.3771 16.5962 41.3546 16.5966 41.3299C16.5962 41.2936 16.5822 41.2625 16.5542 41.2364C16.5265 41.2104 16.4939 41.1974 16.4565 41.1974C16.4177 41.1974 16.3847 41.2104 16.357 41.2364C16.3294 41.2625 16.3157 41.2936 16.3161 41.3299C16.3157 41.3672 16.3294 41.3987 16.357 41.4247ZM17.3612 40.2052H17.5961V41.0807C17.5957 41.1611 17.5778 41.2299 17.5426 41.2878C17.507 41.3457 17.4578 41.3898 17.3946 41.421C17.3318 41.4518 17.2581 41.4675 17.1745 41.4675C17.0979 41.4675 17.0294 41.4542 16.9683 41.4282C16.9072 41.4021 16.8588 41.3631 16.8232 41.3118C16.7873 41.2604 16.7697 41.1964 16.7697 41.1197H17.0049C17.0053 41.1532 17.0132 41.1823 17.0283 41.2066C17.0433 41.231 17.0642 41.2494 17.0908 41.2625C17.1177 41.2755 17.1486 41.282 17.1834 41.282C17.2211 41.282 17.2535 41.2744 17.2797 41.259C17.3059 41.244 17.326 41.2214 17.34 41.1912C17.3537 41.1615 17.3609 41.1245 17.3612 41.0807V40.2052ZM18.4879 40.4236C18.5317 40.4531 18.5568 40.4945 18.5626 40.5476H18.7903C18.7892 40.4774 18.7684 40.4154 18.7285 40.3613C18.6886 40.3072 18.6337 40.2648 18.5636 40.2343C18.4936 40.2035 18.4124 40.1884 18.3198 40.1884C18.2286 40.1884 18.1467 40.2035 18.0741 40.2343C18.0019 40.2648 17.9448 40.3076 17.9032 40.3627C17.8611 40.4178 17.8403 40.4822 17.8403 40.5555C17.8403 40.6448 17.8712 40.716 17.9337 40.7698C17.9958 40.8235 18.0809 40.8636 18.1883 40.89L18.337 40.9262C18.3837 40.9375 18.4247 40.9506 18.4598 40.9649C18.4947 40.9793 18.522 40.9971 18.5417 41.0183C18.5611 41.0396 18.5712 41.0666 18.5716 41.0991C18.5712 41.1348 18.5601 41.1659 18.5378 41.1923C18.5159 41.219 18.4853 41.2395 18.4466 41.2542C18.4074 41.269 18.3622 41.2765 18.3108 41.2765C18.2616 41.2765 18.2171 41.2693 18.1772 41.2553C18.1377 41.2409 18.1054 41.2197 18.0806 41.1909C18.0562 41.1618 18.0418 41.1258 18.0386 41.0827H17.8058C17.8091 41.1652 17.8317 41.2354 17.8737 41.2929C17.9157 41.3504 17.9739 41.3943 18.0486 41.4241C18.123 41.4542 18.2113 41.4692 18.3126 41.4692C18.4175 41.4692 18.5065 41.4535 18.5802 41.4227C18.6541 41.3915 18.7105 41.3484 18.7497 41.2933C18.7888 41.2378 18.8082 41.1738 18.8082 41.1009C18.8082 41.0468 18.7974 40.9999 18.7763 40.9598C18.7551 40.9197 18.7263 40.8855 18.69 40.8571C18.6538 40.8287 18.6125 40.805 18.5669 40.7866C18.5213 40.7677 18.4735 40.753 18.4243 40.742L18.3018 40.7129C18.2753 40.7068 18.2487 40.6992 18.2221 40.6903C18.1959 40.6814 18.1718 40.6705 18.1503 40.6571C18.1283 40.6441 18.1115 40.628 18.0989 40.6089C18.0863 40.59 18.0799 40.5674 18.0799 40.5414C18.0806 40.5103 18.0899 40.4825 18.1086 40.4582C18.1273 40.4339 18.1546 40.4147 18.1898 40.4004C18.225 40.3863 18.2674 40.3791 18.3165 40.3791C18.3866 40.3791 18.4437 40.3939 18.4879 40.4236Z" fill="black"/>
<g clip-path="url(#clip0_19_2033)">
<path fill-rule="evenodd" clip-rule="evenodd" d="M33.48 0H53.48V20H33.48V0ZM37.9628 16.7134L37.9629 16.7134C38.4292 17.653 39.3479 18.4317 40.9305 18.4317C42.6829 18.4317 43.884 17.5456 43.884 15.5989V9.18188H41.9056V15.5724C41.9056 16.512 41.4958 16.7536 40.8457 16.7536C40.1675 16.7536 39.8847 16.3107 39.5739 15.7872L37.9629 16.7134L37.9628 16.7132L37.9628 16.7134ZM46.5696 15.626L44.9587 16.5121C45.538 17.5995 46.7252 18.4319 48.5623 18.4319C50.4418 18.4319 51.8408 17.5056 51.8408 15.8139C51.8408 14.2432 50.8939 13.5452 49.2122 12.8605L48.7177 12.6591C47.8698 12.31 47.5024 12.0817 47.5024 11.5179C47.5024 11.0615 47.8698 10.7124 48.4493 10.7124C49.0145 10.7124 49.3818 10.9406 49.721 11.5179L51.2614 10.5781C50.6114 9.49069 49.707 9.07446 48.4492 9.07446C46.6827 9.07446 45.5522 10.1485 45.5522 11.5582C45.5522 13.0887 46.499 13.8136 47.9264 14.3908L48.4209 14.5923C49.3254 14.9681 49.8623 15.1964 49.8623 15.8408C49.8623 16.3778 49.3396 16.7672 48.5198 16.7672C47.5448 16.7672 46.9937 16.2839 46.5696 15.626Z" fill="#F7DF1E"/>
</g>
<path d="M210.53 0C209.769 0.00578042 209.012 0.118792 208.282 0.335836L208.23 0.352503C207.769 0.269325 207.303 0.223349 206.835 0.215002C205.874 0.198335 205.048 0.436671 204.382 0.833341C203.726 0.600839 202.365 0.200002 200.93 0.280003C199.931 0.335836 198.841 0.645839 198.033 1.51668C197.228 2.38752 196.802 3.73503 196.892 5.56838C196.916 6.07422 197.057 6.89923 197.292 7.96757C197.526 9.03591 197.855 10.2868 198.265 11.4276C198.676 12.5693 199.125 13.5943 199.828 14.291C200.179 14.6401 200.662 14.9335 201.231 14.9093C201.631 14.8926 201.993 14.7135 202.304 14.4493C202.456 14.6535 202.619 14.7426 202.766 14.8251C202.952 14.9293 203.133 15.0001 203.321 15.0468C203.658 15.1326 204.235 15.2476 204.911 15.1301C205.141 15.091 205.383 15.0143 205.625 14.9051C205.634 15.1801 205.644 15.4493 205.655 15.7218C205.688 16.5851 205.71 17.3827 205.963 18.0818C206.004 18.196 206.116 18.7843 206.557 19.3035C206.997 19.8235 207.861 20.1477 208.844 19.9327C209.538 19.781 210.42 19.5077 211.006 18.656C211.585 17.8143 211.846 16.6068 211.897 14.6485C211.911 14.5426 211.926 14.4526 211.942 14.3685L212.08 14.381H212.097C212.837 14.4151 213.64 14.3076 214.31 13.9893C214.905 13.7085 215.354 13.4243 215.681 12.9201C215.763 12.7951 215.853 12.6443 215.877 12.3843C215.902 12.1243 215.756 11.7176 215.513 11.5301C215.028 11.1534 214.723 11.2968 214.395 11.3659C214.073 11.4387 213.745 11.4795 213.414 11.4876C214.358 9.86509 215.034 8.14174 215.42 6.61673C215.649 5.71672 215.777 4.88671 215.787 4.16087C215.798 3.43503 215.74 2.79253 215.314 2.23669C213.983 0.500004 212.112 0.0200002 210.664 0.00333336C210.62 0.00250002 210.575 0.00166668 210.53 0.00250002V0ZM210.491 0.533338C211.861 0.520005 213.61 0.912508 214.866 2.55169C215.149 2.92003 215.233 3.45836 215.223 4.1217C215.212 4.78421 215.092 5.57755 214.873 6.44672C214.447 8.13007 213.642 10.0926 212.509 11.8534C212.549 11.8825 212.592 11.9065 212.638 11.9251C212.874 12.0251 213.414 12.1109 214.49 11.8851C214.761 11.8268 214.959 11.7876 215.165 11.9476C215.215 11.9909 215.254 12.0453 215.28 12.1068C215.306 12.1682 215.318 12.235 215.314 12.3018C215.303 12.4029 215.267 12.4994 215.208 12.5818C215 12.9009 214.59 13.2035 214.063 13.4526C213.597 13.6743 212.929 13.7901 212.337 13.7968C212.039 13.8001 211.765 13.7768 211.533 13.7026L211.518 13.6968C211.428 14.5801 211.222 16.3243 211.087 17.1202C210.979 17.7618 210.791 18.2718 210.431 18.6535C210.072 19.0352 209.564 19.2652 208.88 19.4152C208.033 19.601 207.415 19.401 207.017 19.0585C206.619 18.7168 206.437 18.2635 206.328 17.986C206.253 17.7943 206.214 17.546 206.176 17.2143C206.139 16.8827 206.111 16.4768 206.092 16.0193C206.067 15.3188 206.059 14.6177 206.068 13.9168C205.714 14.2477 205.274 14.4676 204.801 14.5501C204.239 14.6476 203.737 14.5518 203.438 14.4751C203.29 14.4373 203.148 14.381 203.013 14.3076C202.875 14.2318 202.743 14.146 202.654 13.9768C202.603 13.8799 202.586 13.7674 202.608 13.6593C202.635 13.5497 202.698 13.4526 202.786 13.3835C202.947 13.2493 203.161 13.1743 203.484 13.106C204.07 12.9826 204.275 12.8984 204.4 12.7976C204.506 12.7109 204.626 12.5359 204.838 12.2793C204.837 12.2679 204.836 12.2565 204.836 12.2451C204.456 12.2342 204.084 12.132 203.75 11.9468C203.628 12.0784 203.003 12.7534 202.241 13.6901C201.92 14.0818 201.566 14.3068 201.192 14.3226C200.818 14.3393 200.481 14.1468 200.193 13.8626C199.62 13.2935 199.162 12.3143 198.763 11.2076C198.365 10.1009 198.041 8.86841 197.811 7.8184C197.58 6.76839 197.443 5.92172 197.424 5.51338C197.338 3.77837 197.735 2.60919 198.417 1.87168C199.099 1.13418 200.034 0.855008 200.946 0.801674C202.582 0.70584 204.136 1.28834 204.45 1.41335C205.055 0.993342 205.835 0.731673 206.81 0.74834C207.272 0.754965 207.732 0.815922 208.181 0.930008L208.198 0.922508C208.395 0.85158 208.597 0.792041 208.801 0.744173C209.355 0.612134 209.922 0.542 210.491 0.535005L210.491 0.533338ZM210.616 1.09168H210.496C210.029 1.09833 209.563 1.15193 209.106 1.25168C210.123 1.71168 210.891 2.42002 211.432 3.12669C211.807 3.61599 212.118 4.15401 212.355 4.72671C212.445 4.94671 212.505 5.13255 212.54 5.27671C212.557 5.34921 212.568 5.41005 212.572 5.47338C212.574 5.50505 212.576 5.53755 212.563 5.59338C212.563 5.59588 212.558 5.60172 212.558 5.60422C212.582 6.33422 212.405 6.82923 212.384 7.5259C212.368 8.03091 212.494 8.62424 212.525 9.27175C212.554 9.88009 212.483 10.5484 212.096 11.2043C212.128 11.2443 212.158 11.2843 212.189 11.3243C213.212 9.67842 213.95 7.85757 214.343 6.30506C214.554 5.46922 214.665 4.71171 214.675 4.1117C214.683 3.5117 214.574 3.07669 214.434 2.89503C213.339 1.46501 211.858 1.10168 210.616 1.09168ZM206.707 1.30501C205.742 1.30751 205.05 1.60501 204.526 2.05085C203.985 2.51169 203.621 3.14253 203.383 3.78837C203.1 4.55504 203.003 5.29671 202.965 5.80005L202.975 5.79339C203.266 5.62672 203.649 5.46005 204.059 5.36338C204.468 5.26755 204.91 5.23755 205.31 5.39588C205.71 5.55422 206.04 5.92672 206.16 6.49172C206.735 9.20592 205.981 10.2151 205.704 10.9768C205.599 11.2528 205.508 11.5347 205.434 11.8209C205.469 11.8126 205.504 11.8026 205.539 11.7993C205.735 11.7826 205.888 11.8493 205.98 11.8893C206.259 12.0076 206.451 12.2559 206.554 12.5393C206.581 12.6134 206.601 12.6934 206.612 12.7759C206.624 12.8098 206.63 12.8458 206.628 12.8818C206.598 13.9199 206.601 14.9589 206.639 15.9968C206.658 16.4451 206.686 16.8402 206.721 17.1518C206.756 17.4627 206.806 17.6993 206.837 17.7793C206.942 18.046 207.094 18.3952 207.37 18.6327C207.646 18.8693 208.042 19.0277 208.765 18.8693C209.391 18.7318 209.778 18.541 210.037 18.2668C210.295 17.9927 210.449 17.611 210.548 17.0268C210.695 16.1518 210.993 13.6143 211.028 13.1368C211.012 12.7768 211.064 12.5001 211.177 12.2893C211.293 12.0726 211.472 11.9401 211.627 11.8684C211.705 11.8326 211.778 11.8084 211.837 11.7909C211.774 11.6984 211.708 11.6081 211.639 11.5201C211.415 11.2432 211.232 10.9348 211.095 10.6043C211.03 10.4678 210.96 10.3335 210.886 10.2018C210.777 10.0018 210.64 9.75175 210.496 9.47092C210.209 8.90841 209.897 8.22674 209.734 7.56257C209.573 6.89923 209.549 6.21256 209.964 5.72838C210.331 5.29838 210.975 5.12005 211.943 5.22005C211.915 5.13255 211.897 5.06005 211.849 4.94338C211.631 4.41745 211.345 3.9232 211 3.47336C210.18 2.40252 208.852 1.34085 206.801 1.30668H206.707V1.30501ZM201.287 1.34835C201.183 1.34835 201.08 1.35168 200.977 1.35751C200.153 1.40585 199.373 1.65001 198.816 2.25335C198.258 2.85669 197.891 3.84587 197.97 5.48338C197.986 5.79339 198.118 6.66173 198.345 7.6934C198.571 8.72508 198.892 9.93926 199.277 11.0118C199.663 12.0843 200.13 13.0176 200.574 13.4593C200.798 13.6801 200.992 13.7693 201.168 13.7618C201.346 13.7535 201.559 13.6493 201.819 13.3301C202.293 12.7455 202.786 12.1763 203.296 11.6234C202.934 11.3027 202.657 10.8941 202.491 10.4353C202.324 9.97659 202.274 9.48242 202.344 8.99841C202.428 8.38258 202.439 7.80674 202.429 7.35173C202.419 6.90839 202.388 6.61339 202.388 6.42922C202.388 6.42395 202.388 6.41867 202.388 6.41339V6.40922L202.388 6.40422C202.387 5.44488 202.551 4.49197 202.871 3.59003C203.099 2.97003 203.439 2.34002 203.949 1.83002C203.448 1.66168 202.559 1.40501 201.596 1.35668C201.493 1.35126 201.39 1.34848 201.287 1.34835ZM211.404 5.75005C210.85 5.75755 210.539 5.90339 210.376 6.09422C210.145 6.36506 210.123 6.84006 210.266 7.42507C210.409 8.01091 210.704 8.66591 210.982 9.21008C211.121 9.48258 211.255 9.72759 211.364 9.92676C211.473 10.1268 211.553 10.2684 211.602 10.3893C211.647 10.5009 211.697 10.5993 211.747 10.6909C211.962 10.2284 212 9.77425 211.978 9.30092C211.95 8.71508 211.817 8.11591 211.836 7.50923C211.858 6.80006 211.995 6.33839 212.008 5.79005C211.807 5.76356 211.606 5.7502 211.404 5.75005ZM204.685 5.84589C204.515 5.8475 204.347 5.86818 204.182 5.90755C203.854 5.98906 203.537 6.11489 203.241 6.28172C203.141 6.33656 203.046 6.40013 202.956 6.47172L202.938 6.48839C202.943 6.61006 202.967 6.90506 202.977 7.33923C202.987 7.81424 202.975 8.42008 202.885 9.07591C202.69 10.5009 203.703 11.6809 204.893 11.6826C204.962 11.3901 205.076 11.0934 205.191 10.7809C205.522 9.86926 206.174 9.20425 205.625 6.60923C205.535 6.18422 205.357 6.01255 205.112 5.91589C204.975 5.86633 204.83 5.84261 204.685 5.84589ZM211.145 6.01589H211.186C211.24 6.01755 211.29 6.02339 211.333 6.03422C211.377 6.04422 211.414 6.05922 211.445 6.08005C211.461 6.09012 211.475 6.10347 211.486 6.11926C211.496 6.13505 211.503 6.15292 211.507 6.17172L211.506 6.17839C211.507 6.21795 211.497 6.2571 211.477 6.29089C211.453 6.33663 211.423 6.3787 211.387 6.41589C211.305 6.50898 211.194 6.57116 211.072 6.59256C210.954 6.60713 210.835 6.57656 210.738 6.50673C210.698 6.47936 210.662 6.44624 210.632 6.40839C210.605 6.37866 210.588 6.34202 210.58 6.30256C210.579 6.28333 210.581 6.26395 210.587 6.24561C210.593 6.22727 210.602 6.21035 210.615 6.19589C210.641 6.16482 210.674 6.13935 210.71 6.12089C210.789 6.07589 210.895 6.04255 211.015 6.02422C211.059 6.01755 211.104 6.01422 211.145 6.01339V6.01589ZM204.764 6.15589C204.807 6.15589 204.853 6.16006 204.899 6.16672C205.024 6.18422 205.135 6.21839 205.22 6.26839C205.261 6.29045 205.298 6.32044 205.329 6.35672C205.345 6.37597 205.357 6.39849 205.365 6.42286C205.373 6.44724 205.375 6.47295 205.373 6.49839C205.365 6.54631 205.343 6.59088 205.311 6.62673C205.278 6.66858 205.239 6.7051 205.195 6.73506C205.089 6.81184 204.958 6.84542 204.829 6.82923C204.697 6.80708 204.576 6.74014 204.486 6.63923C204.448 6.59859 204.416 6.55257 204.39 6.50256C204.363 6.45856 204.351 6.40666 204.357 6.35506C204.369 6.26506 204.442 6.21839 204.513 6.19256C204.593 6.16617 204.678 6.15488 204.763 6.15922L204.764 6.15589ZM212.157 12.2751L212.155 12.2759C212.035 12.3201 211.936 12.3384 211.853 12.3759C211.768 12.409 211.699 12.4725 211.658 12.5543C211.606 12.6501 211.562 12.8201 211.575 13.1093C211.612 13.1352 211.653 13.1549 211.696 13.1676C211.835 13.211 212.07 13.2393 212.331 13.2351C212.851 13.2293 213.492 13.1051 213.832 12.9434C214.111 12.811 214.371 12.6384 214.602 12.4309C213.465 12.6709 212.822 12.6068 212.428 12.4409C212.33 12.3994 212.239 12.344 212.157 12.2751ZM205.604 12.3534H205.586C205.543 12.3576 205.48 12.3726 205.359 12.5101C205.075 12.8351 204.975 13.0393 204.741 13.2301C204.507 13.4201 204.202 13.5218 203.594 13.6493C203.402 13.6893 203.292 13.7335 203.218 13.7693C203.242 13.7893 203.24 13.7943 203.275 13.8135C203.364 13.8635 203.479 13.9076 203.571 13.9318C203.832 13.9985 204.261 14.076 204.709 13.9985C205.157 13.9201 205.623 13.701 206.021 13.1318C206.089 13.0335 206.096 12.8884 206.04 12.7326C205.983 12.5768 205.858 12.4426 205.77 12.4051C205.718 12.3793 205.661 12.3624 205.604 12.3551V12.3534Z" fill="black"/>
<g clip-path="url(#clip1_19_2033)">
<path d="M76.1995 12.0036C77.306 12.0036 78.2031 11.1066 78.2031 10C78.2031 8.89349 77.306 7.99646 76.1995 7.99646C75.093 7.99646 74.1959 8.89349 74.1959 10C74.1959 11.1066 75.093 12.0036 76.1995 12.0036Z" fill="#61DAFB"/>
<path d="M76.1995 14.1049C82.137 14.1049 86.9503 12.2671 86.9503 10C86.9503 7.73296 82.137 5.89514 76.1995 5.89514C70.2619 5.89514 65.4486 7.73296 65.4486 10C65.4486 12.2671 70.2619 14.1049 76.1995 14.1049Z" stroke="#61DAFB"/>
<path d="M72.6445 12.0525C75.6133 17.1945 79.6115 20.4441 81.5748 19.3106C83.5382 18.177 82.7231 13.0897 79.7543 7.9476C76.7856 2.80555 72.7873 -0.444008 70.824 0.689522C68.8607 1.82305 69.6757 6.91042 72.6445 12.0525Z" stroke="#61DAFB"/>
<path d="M72.6446 7.94759C69.6758 13.0896 68.8608 18.177 70.8241 19.3105C72.7874 20.4441 76.7857 17.1945 79.7545 12.0525C82.7232 6.9104 83.5383 1.82304 81.575 0.689507C79.6116 -0.444023 75.6134 2.80553 72.6446 7.94759Z" stroke="#61DAFB"/>
</g>
<path fill-rule="evenodd" clip-rule="evenodd" d="M130.92 10V20H140.92H150.92V10V0H140.92H130.92V10ZM135.343 10.0663L135.336 10.8854H136.638H137.939V14.5838V18.2822H138.86H139.781V14.5838V10.8854H141.082H142.384V10.0822C142.384 9.63777 142.374 9.26634 142.362 9.25681C142.352 9.24412 140.768 9.23777 138.847 9.24094L135.352 9.25047L135.343 10.0663ZM148.309 9.94785C147.953 9.57959 147.566 9.3542 147.058 9.22721C146.712 9.1415 145.893 9.1161 145.54 9.18277C144.455 9.38912 143.702 10.0844 143.49 11.0812C143.429 11.3669 143.448 12.0748 143.525 12.3574C143.617 12.6971 143.839 13.1034 144.074 13.3574C144.48 13.7955 144.925 14.0717 145.956 14.5161C146.858 14.9066 147.175 15.0939 147.331 15.3161C147.452 15.4907 147.48 15.5923 147.48 15.824C147.48 16.0812 147.404 16.2558 147.22 16.424C146.788 16.8113 145.912 16.859 145.274 16.5225C145.052 16.405 144.683 16.0526 144.515 15.7955L144.394 15.6177L143.82 15.951C143.502 16.1351 143.166 16.3288 143.077 16.3796C142.985 16.4336 142.902 16.4844 142.893 16.4971C142.871 16.5352 143.229 17.0653 143.413 17.2685C143.883 17.7891 144.645 18.1859 145.448 18.3288C145.817 18.3955 146.629 18.405 146.972 18.3447C148.08 18.1574 148.867 17.5923 149.185 16.7605C149.474 15.9955 149.379 14.9669 148.953 14.3225C148.572 13.7447 147.96 13.3383 146.528 12.7225C145.75 12.3859 145.502 12.2209 145.369 11.9447C145.306 11.8177 145.283 11.7256 145.283 11.5701C145.28 11.0399 145.671 10.7225 146.277 10.7637C146.69 10.7923 146.96 10.9542 147.217 11.3288C147.302 11.4558 147.379 11.5383 147.398 11.5256C147.925 11.1986 148.794 10.6145 148.788 10.5891C148.766 10.5034 148.493 10.1447 148.309 9.94785Z" fill="#007ACC"/>
<path fill-rule="evenodd" clip-rule="evenodd" d="M238.233 3C235.333 3 233.522 4.44408 232.797 7.33333C233.884 5.88925 235.153 5.34759 236.602 5.70833C237.43 5.91432 238.021 6.51266 238.675 7.17421C239.742 8.2521 240.976 9.5 243.67 9.5C246.57 9.5 248.382 8.05592 249.107 5.16667C248.02 6.61075 246.752 7.15241 245.301 6.79167C244.474 6.58568 243.882 5.98734 243.228 5.32579C242.162 4.24681 240.929 3 238.233 3ZM232.797 9.5C229.897 9.5 228.085 10.9441 227.36 13.8333C228.447 12.3882 229.716 11.8476 231.166 12.2083C231.993 12.4143 232.585 13.0127 233.239 13.6742C234.305 14.7521 235.539 16 238.235 16C241.135 16 242.946 14.5559 243.671 11.6667C242.584 13.1107 241.315 13.6524 239.866 13.2917C239.038 13.0857 238.447 12.4873 237.793 11.8258C236.725 10.7479 235.491 9.5 232.797 9.5Z" fill="black"/>
<g clip-path="url(#clip2_19_2033)">
<path fill-rule="evenodd" clip-rule="evenodd" d="M195.88 60H215.88V80H195.88V60ZM200.363 76.7134L200.363 76.7134C200.829 77.653 201.748 78.4317 203.33 78.4317C205.083 78.4317 206.284 77.5456 206.284 75.5989V69.1819H204.306V75.5724C204.306 76.512 203.896 76.7536 203.246 76.7536C202.567 76.7536 202.285 76.3107 201.974 75.7872L200.363 76.7134L200.363 76.7132L200.363 76.7134ZM208.969 75.626L207.359 76.5121C207.938 77.5995 209.125 78.4319 210.962 78.4319C212.842 78.4319 214.241 77.5056 214.241 75.8139C214.241 74.2432 213.294 73.5452 211.612 72.8605L211.118 72.6591C210.27 72.31 209.902 72.0817 209.902 71.5179C209.902 71.0615 210.27 70.7124 210.849 70.7124C211.414 70.7124 211.782 70.9406 212.121 71.5179L213.661 70.5781C213.011 69.4907 212.107 69.0745 210.849 69.0745C209.083 69.0745 207.952 70.1485 207.952 71.5582C207.952 73.0887 208.899 73.8136 210.326 74.3908L210.821 74.5923C211.725 74.9681 212.262 75.1964 212.262 75.8408C212.262 76.3778 211.739 76.7672 210.92 76.7672C209.945 76.7672 209.394 76.2839 208.969 75.626Z" fill="#F7DF1E"/>
</g>
<path d="M48.1299 30C47.369 30.0058 46.6125 30.1188 45.8818 30.3358L45.8304 30.3525C45.3695 30.2693 44.9029 30.2233 44.435 30.215C43.4737 30.1983 42.6479 30.4367 41.982 30.8333C41.326 30.6008 39.9648 30.2 38.5303 30.28C37.5315 30.3358 36.4413 30.6458 35.6334 31.5167C34.828 32.3875 34.402 33.735 34.4918 35.5684C34.5163 36.0742 34.6574 36.8992 34.8916 37.9676C35.1258 39.0359 35.4547 40.2868 35.8652 41.4276C36.2756 42.5693 36.7252 43.5943 37.4278 44.291C37.7787 44.6401 38.2618 44.9335 38.8314 44.9093C39.2312 44.8926 39.5927 44.7135 39.9045 44.4493C40.0562 44.6535 40.2186 44.7426 40.3663 44.8251C40.5524 44.9293 40.7335 45.0001 40.9212 45.0468C41.2582 45.1326 41.8352 45.2476 42.5108 45.1301C42.7409 45.091 42.9833 45.0143 43.2248 44.9051C43.2338 45.1801 43.2444 45.4493 43.255 45.7218C43.2885 46.5851 43.3097 47.3827 43.5635 48.0818C43.6043 48.196 43.7161 48.7843 44.1567 49.3035C44.5974 49.8235 45.4607 50.1477 46.444 49.9327C47.1377 49.781 48.0198 49.5077 48.6057 48.656C49.1851 47.8143 49.4462 46.6068 49.4976 44.6485C49.5106 44.5426 49.5261 44.4526 49.5425 44.3685L49.6804 44.381H49.6967C50.4368 44.4151 51.2398 44.3076 51.9106 43.9893C52.5046 43.7085 52.9542 43.4243 53.2815 42.9201C53.3631 42.7951 53.4528 42.6443 53.4773 42.3843C53.5018 42.1243 53.3557 41.7176 53.1134 41.5301C52.6278 41.1534 52.3226 41.2968 51.9954 41.3659C51.6731 41.4387 51.3446 41.4795 51.0146 41.4876C51.9579 39.8651 52.6344 38.1417 53.0203 36.6167C53.2488 35.7167 53.3769 34.8867 53.3876 34.1609C53.3982 33.435 53.3402 32.7925 52.9143 32.2367C51.5833 30.5 49.7122 30.02 48.2646 30.0033C48.2197 30.0025 48.1748 30.0017 48.1299 30.0025V30ZM48.0916 30.5333C49.4609 30.52 51.2104 30.9125 52.4663 32.5517C52.7486 32.92 52.8327 33.4584 52.8229 34.1217C52.8123 34.7842 52.6923 35.5776 52.4728 36.4467C52.0468 38.1301 51.2422 40.0926 50.1088 41.8534C50.1488 41.8825 50.1921 41.9065 50.2377 41.9251C50.4744 42.0251 51.0138 42.1109 52.0901 41.8851C52.361 41.8268 52.5593 41.7876 52.7649 41.9476C52.8149 41.9909 52.8544 42.0453 52.8803 42.1068C52.9062 42.1682 52.9178 42.235 52.9143 42.3018C52.9033 42.4029 52.8667 42.4994 52.8082 42.5818C52.6001 42.9009 52.1896 43.2035 51.6633 43.4526C51.1974 43.6743 50.529 43.7901 49.9366 43.7968C49.6396 43.8001 49.3654 43.7768 49.1328 43.7026L49.1181 43.6968C49.0284 44.5801 48.8219 46.3243 48.6873 47.1202C48.5796 47.7618 48.3911 48.2718 48.0312 48.6535C47.6721 49.0352 47.1638 49.2652 46.4799 49.4152C45.6329 49.601 45.0152 49.401 44.617 49.0585C44.2196 48.7168 44.0376 48.2635 43.9282 47.986C43.8532 47.7943 43.814 47.546 43.7765 47.2143C43.7389 46.8827 43.7112 46.4768 43.6924 46.0193C43.6674 45.3188 43.6593 44.6177 43.6679 43.9168C43.3141 44.2477 42.8744 44.4676 42.4015 44.5501C41.8392 44.6476 41.3374 44.5518 41.0379 44.4751C40.8903 44.4373 40.7478 44.381 40.6136 44.3076C40.4748 44.2318 40.3427 44.146 40.2545 43.9768C40.2027 43.8799 40.1863 43.7674 40.208 43.6593C40.2356 43.5497 40.2982 43.4526 40.3859 43.3835C40.5475 43.2493 40.7613 43.1743 41.0836 43.106C41.6703 42.9826 41.8751 42.8984 42 42.7976C42.1061 42.7109 42.226 42.5359 42.4382 42.2793C42.4372 42.2679 42.4364 42.2565 42.4357 42.2451C42.056 42.2342 41.6842 42.132 41.3504 41.9468C41.228 42.0784 40.603 42.7534 39.8408 43.6901C39.5201 44.0818 39.166 44.3068 38.7922 44.3226C38.4185 44.3393 38.0806 44.1468 37.7934 43.8626C37.2197 43.2935 36.762 42.3143 36.3629 41.2076C35.9647 40.1009 35.6407 38.8684 35.4106 37.8184C35.1797 36.7684 35.0434 35.9217 35.0238 35.5134C34.9382 33.7784 35.3356 32.6092 36.0169 31.8717C36.6991 31.1342 37.6343 30.855 38.5458 30.8017C40.1819 30.7058 41.7356 31.2883 42.0498 31.4133C42.6553 30.9933 43.4354 30.7317 44.4097 30.7483C44.8723 30.755 45.3325 30.8159 45.7814 30.93L45.7978 30.9225C45.9953 30.8516 46.1967 30.792 46.4008 30.7442C46.955 30.6121 47.5217 30.542 48.0908 30.535L48.0916 30.5333ZM48.2156 31.0917H48.0965C47.629 31.0983 47.1632 31.1519 46.706 31.2517C47.7227 31.7117 48.4906 32.42 49.0316 33.1267C49.4075 33.616 49.7181 34.154 49.9554 34.7267C50.0451 34.9467 50.1055 35.1325 50.1398 35.2767C50.1569 35.3492 50.1684 35.41 50.1724 35.4734C50.1741 35.505 50.1757 35.5375 50.1626 35.5934C50.1626 35.5959 50.1586 35.6017 50.1577 35.6042C50.1822 36.3342 50.0052 36.8292 49.9839 37.5259C49.9676 38.0309 50.0941 38.6242 50.1251 39.2718C50.1545 39.8801 50.0827 40.5484 49.6959 41.2043C49.7285 41.2443 49.7579 41.2843 49.7889 41.3243C50.8122 39.6784 51.5499 37.8576 51.9432 36.3051C52.1537 35.4692 52.2655 34.7117 52.2753 34.1117C52.2835 33.5117 52.1741 33.0767 52.0346 32.895C50.9395 31.465 49.4576 31.1017 48.2156 31.0917ZM44.3069 31.305C43.3423 31.3075 42.6504 31.605 42.1257 32.0509C41.5846 32.5117 41.2215 33.1425 40.9832 33.7884C40.7001 34.555 40.603 35.2967 40.5646 35.8001L40.5752 35.7934C40.8665 35.6267 41.2493 35.46 41.6589 35.3634C42.0685 35.2675 42.51 35.2375 42.9099 35.3959C43.3097 35.5542 43.6402 35.9267 43.7601 36.4917C44.3346 39.2059 43.5814 40.2151 43.304 40.9768C43.1987 41.2528 43.1086 41.5347 43.0339 41.8209C43.069 41.8126 43.1041 41.8026 43.1392 41.7993C43.335 41.7826 43.4884 41.8493 43.5798 41.8893C43.8589 42.0076 44.0506 42.2559 44.1543 42.5393C44.1812 42.6134 44.2008 42.6934 44.2122 42.7759C44.2243 42.8098 44.2298 42.8458 44.2285 42.8818C44.1976 43.9199 44.2011 44.9589 44.2392 45.9968C44.2579 46.4451 44.2857 46.8402 44.3208 47.1518C44.3558 47.4627 44.4056 47.6993 44.4374 47.7793C44.5419 48.046 44.6945 48.3952 44.9703 48.6327C45.2461 48.8693 45.6419 49.0277 46.3649 48.8693C46.9916 48.7318 47.3784 48.541 47.6371 48.2668C47.8949 47.9927 48.0492 47.611 48.1479 47.0268C48.2956 46.1518 48.5926 43.6143 48.6285 43.1368C48.6122 42.7768 48.6644 42.5001 48.777 42.2893C48.8929 42.0726 49.0724 41.9401 49.2275 41.8684C49.305 41.8326 49.3776 41.8084 49.4372 41.7909C49.3741 41.6984 49.308 41.6081 49.2389 41.5201C49.0154 41.2432 48.8323 40.9348 48.6954 40.6043C48.6299 40.4678 48.5599 40.3335 48.4857 40.2018C48.3772 40.0018 48.2401 39.7518 48.0965 39.4709C47.8092 38.9084 47.4967 38.2267 47.3343 37.5626C47.1727 36.8992 47.1491 36.2126 47.5636 35.7284C47.9308 35.2984 48.5755 35.12 49.5433 35.22C49.5147 35.1325 49.4976 35.06 49.4494 34.9434C49.2306 34.4174 48.945 33.9232 48.6 33.4734C47.7799 32.4025 46.4522 31.3408 44.4007 31.3067H44.3069V31.305ZM38.8869 31.3483C38.7832 31.3483 38.6796 31.3517 38.5768 31.3575C37.7526 31.4058 36.9733 31.65 36.416 32.2534C35.8578 32.8567 35.4906 33.8459 35.5706 35.4834C35.5861 35.7934 35.7183 36.6617 35.9451 37.6934C36.1712 38.7251 36.4919 39.9393 36.877 41.0118C37.263 42.0843 37.7306 43.0176 38.1745 43.4593C38.3981 43.6801 38.5923 43.7693 38.7686 43.7618C38.9456 43.7535 39.1586 43.6493 39.4189 43.3301C39.8935 42.7455 40.3861 42.1763 40.8959 41.6234C40.5342 41.3027 40.2573 40.8941 40.0909 40.4353C39.9245 39.9766 39.8738 39.4824 39.9436 38.9984C40.0277 38.3826 40.0391 37.8067 40.0293 37.3517C40.0195 36.9084 39.9885 36.6134 39.9885 36.4292C39.9884 36.4239 39.9884 36.4187 39.9885 36.4134V36.4092L39.9877 36.4042C39.9872 35.4449 40.1507 34.492 40.4708 33.59C40.6993 32.97 41.0395 32.34 41.5495 31.83C41.0485 31.6617 40.159 31.405 39.1961 31.3567C39.0929 31.3513 38.9903 31.3485 38.8869 31.3483ZM49.0039 35.7501C48.4498 35.7576 48.1389 35.9034 47.9757 36.0942C47.7448 36.3651 47.7227 36.8401 47.8664 37.4251C48.0092 38.0109 48.3046 38.6659 48.582 39.2101C48.7207 39.4826 48.8554 39.7276 48.9639 39.9268C49.0733 40.1268 49.1532 40.2684 49.2022 40.3893C49.2471 40.5009 49.2968 40.5993 49.3474 40.6909C49.5621 40.2284 49.6004 39.7743 49.5784 39.3009C49.5498 38.7151 49.4168 38.1159 49.4364 37.5092C49.4584 36.8001 49.5955 36.3384 49.6077 35.7901C49.4075 35.7636 49.2058 35.7502 49.0039 35.7501ZM42.2848 35.8459C42.1155 35.8475 41.9469 35.8682 41.7821 35.9076C41.4536 35.9891 41.1372 36.1149 40.8412 36.2817C40.7411 36.3366 40.6458 36.4001 40.5565 36.4717L40.5385 36.4884C40.5434 36.6101 40.5671 36.9051 40.5769 37.3392C40.5866 37.8142 40.5752 38.4201 40.4855 39.0759C40.2904 40.5009 41.3031 41.6809 42.4929 41.6826C42.5622 41.3901 42.6765 41.0934 42.7907 40.7809C43.122 39.8693 43.774 39.2042 43.2248 36.6092C43.1351 36.1842 42.9572 36.0126 42.7124 35.9159C42.5752 35.8663 42.4303 35.8426 42.2848 35.8459ZM48.7452 36.0159H48.786C48.8399 36.0176 48.8897 36.0234 48.9329 36.0342C48.977 36.0442 49.0145 36.0592 49.0455 36.0801C49.0614 36.0901 49.0751 36.1035 49.0856 36.1193C49.0962 36.1351 49.1034 36.1529 49.1067 36.1717L49.1059 36.1784C49.1075 36.2179 49.0976 36.2571 49.0773 36.2909C49.0533 36.3366 49.0231 36.3787 48.9876 36.4159C48.9048 36.509 48.7939 36.5712 48.6726 36.5926C48.5545 36.6071 48.4353 36.5766 48.338 36.5067C48.2982 36.4794 48.2625 36.4462 48.2319 36.4084C48.2055 36.3787 48.1877 36.342 48.1805 36.3026C48.1788 36.2833 48.181 36.264 48.1869 36.2456C48.1928 36.2273 48.2023 36.2103 48.2148 36.1959C48.2416 36.1648 48.274 36.1393 48.3103 36.1209C48.3886 36.0759 48.4947 36.0426 48.6147 36.0242C48.6595 36.0176 48.7036 36.0142 48.7452 36.0134V36.0159ZM42.3639 36.1559C42.4072 36.1559 42.4529 36.1601 42.4994 36.1667C42.6242 36.1842 42.7352 36.2184 42.8201 36.2684C42.8615 36.2905 42.8983 36.3204 42.9286 36.3567C42.9451 36.376 42.9575 36.3985 42.9651 36.4229C42.9727 36.4472 42.9753 36.473 42.9727 36.4984C42.9648 36.5463 42.9436 36.5909 42.9115 36.6267C42.8781 36.6686 42.8388 36.7051 42.7948 36.7351C42.6887 36.8118 42.5583 36.8454 42.4292 36.8292C42.2973 36.8071 42.1765 36.7401 42.0865 36.6392C42.0482 36.5986 42.0158 36.5526 41.9902 36.5026C41.9633 36.4586 41.9515 36.4067 41.9567 36.3551C41.969 36.2651 42.0416 36.2184 42.1126 36.1926C42.1935 36.1662 42.2783 36.1549 42.3631 36.1592L42.3639 36.1559ZM49.7571 42.2751L49.7546 42.2759C49.6347 42.3201 49.5359 42.3384 49.4527 42.3759C49.3685 42.409 49.2991 42.4725 49.2577 42.5543C49.2063 42.6501 49.1622 42.8201 49.1753 43.1093C49.2122 43.1352 49.253 43.1549 49.296 43.1676C49.4356 43.211 49.6698 43.2393 49.9309 43.2351C50.4515 43.2293 51.0921 43.1051 51.4324 42.9434C51.7115 42.811 51.9707 42.6384 52.2019 42.4309C51.0652 42.6709 50.4221 42.6068 50.028 42.4409C49.9301 42.3994 49.8388 42.344 49.7571 42.2751ZM43.2036 42.3534H43.1865C43.1432 42.3576 43.0804 42.3726 42.9588 42.5101C42.6748 42.8351 42.5753 43.0393 42.3411 43.2301C42.1069 43.4201 41.8025 43.5218 41.1946 43.6493C41.002 43.6893 40.8918 43.7335 40.8184 43.7693C40.8421 43.7893 40.8396 43.7943 40.8755 43.8135C40.9645 43.8635 41.0787 43.9076 41.1709 43.9318C41.432 43.9985 41.8613 44.076 42.3093 43.9985C42.7573 43.9201 43.2232 43.701 43.6206 43.1318C43.6892 43.0335 43.6965 42.8884 43.6402 42.7326C43.5831 42.5768 43.4582 42.4426 43.3701 42.4051C43.3176 42.3793 43.2614 42.3624 43.2036 42.3551V42.3534Z" fill="black"/>
<g clip-path="url(#clip3_19_2033)">
<path d="M238.599 72.0036C239.706 72.0036 240.603 71.1066 240.603 70C240.603 68.8935 239.706 67.9965 238.599 67.9965C237.493 67.9965 236.596 68.8935 236.596 70C236.596 71.1066 237.493 72.0036 238.599 72.0036Z" fill="#61DAFB"/>
<path d="M238.599 74.1049C244.537 74.1049 249.35 72.2671 249.35 70C249.35 67.733 244.537 65.8951 238.599 65.8951C232.662 65.8951 227.849 67.733 227.849 70C227.849 72.2671 232.662 74.1049 238.599 74.1049Z" stroke="#61DAFB"/>
<path d="M235.044 72.0525C238.013 77.1945 242.011 80.4441 243.975 79.3106C245.938 78.177 245.123 73.0897 242.154 67.9476C239.185 62.8055 235.187 59.556 233.224 60.6895C231.261 61.8231 232.076 66.9104 235.044 72.0525Z" stroke="#61DAFB"/>
<path d="M235.045 67.9476C232.076 73.0896 231.261 78.177 233.224 79.3105C235.187 80.4441 239.186 77.1945 242.154 72.0525C245.123 66.9104 245.938 61.823 243.975 60.6895C242.012 59.556 238.013 62.8055 235.045 67.9476Z" stroke="#61DAFB"/>
</g>
<path fill-rule="evenodd" clip-rule="evenodd" d="M75.8336 33C72.9336 33 71.122 34.4441 70.3968 37.3333C71.4841 35.8893 72.7531 35.3476 74.2025 35.7083C75.03 35.9143 75.6215 36.5127 76.275 37.1742C77.3417 38.2521 78.5759 39.5 81.2704 39.5C84.1704 39.5 85.9819 38.0559 86.7072 35.1667C85.6198 36.6107 84.3519 37.1524 82.9014 36.7917C82.0739 36.5857 81.4824 35.9873 80.8278 35.3258C79.7622 34.2468 78.5291 33 75.8336 33ZM70.3968 39.5C67.4968 39.5 65.6852 40.9441 64.96 43.8333C66.0473 42.3882 67.3163 41.8476 68.7657 42.2083C69.5932 42.4143 70.1847 43.0127 70.8393 43.6742C71.9049 44.7521 73.1391 46 75.8347 46C78.7346 46 80.5462 44.5559 81.2715 41.6667C80.1841 43.1107 78.9151 43.6524 77.4657 43.2917C76.6382 43.0857 76.0467 42.4873 75.3932 41.8258C74.3254 40.7479 73.0912 39.5 70.3968 39.5Z" fill="black"/>
<path d="M167.4 103.333L174.067 110V103.333H180.733L174.067 96.6666H167.4V103.333Z" fill="black"/>
<path d="M180.733 90H167.4L174.067 96.6667H180.733V90Z" fill="black"/>
<path fill-rule="evenodd" clip-rule="evenodd" d="M215.88 100C215.88 105.523 211.403 110 205.88 110C200.357 110 195.88 105.523 195.88 100C195.88 94.4772 200.357 90 205.88 90C211.403 90 215.88 94.4772 215.88 100ZM208.545 98.4945H211.217V98.9716H210.157V101.482H209.627V98.9716H208.545V98.4945ZM204.15 98.9716V98.4945H201.477V98.9716H201.478V101.46L199.008 98.4932H198.346V101.481H198.876V99.1318L200.83 101.482L201.478 101.482L201.496 101.482L204.15 101.482V101.005H202.008V100.216H203.73V99.7393H202.008V98.9716H204.15ZM205.484 98.4957H204.79L207.275 101.483H207.971L206.728 99.9905L207.969 98.498L207.275 98.499L206.381 99.5732L205.484 98.4957ZM205.849 100.212L206.196 100.63L205.484 101.486H204.789L205.849 100.212ZM211.237 101.425C211.265 101.451 211.298 101.464 211.336 101.464C211.362 101.464 211.384 101.458 211.405 101.446C211.427 101.434 211.443 101.418 211.457 101.397C211.47 101.377 211.476 101.355 211.476 101.33C211.476 101.294 211.462 101.262 211.434 101.236C211.406 101.21 211.374 101.197 211.336 101.197C211.298 101.197 211.265 101.21 211.237 101.236C211.209 101.262 211.196 101.294 211.196 101.33C211.196 101.367 211.209 101.399 211.237 101.425ZM212.241 100.205H212.476V101.081C212.476 101.161 212.458 101.23 212.422 101.288C212.387 101.346 212.338 101.39 212.275 101.421C212.212 101.452 212.138 101.468 212.054 101.468C211.978 101.468 211.909 101.454 211.848 101.428C211.787 101.402 211.739 101.363 211.703 101.312C211.667 101.26 211.65 101.196 211.65 101.12H211.885C211.885 101.153 211.893 101.182 211.908 101.207C211.923 101.231 211.944 101.249 211.971 101.262C211.998 101.275 212.028 101.282 212.063 101.282C212.101 101.282 212.133 101.274 212.16 101.259C212.186 101.244 212.206 101.221 212.22 101.191C212.234 101.161 212.241 101.124 212.241 101.081V100.205ZM213.368 100.424C213.412 100.453 213.437 100.495 213.442 100.548H213.67C213.669 100.477 213.648 100.415 213.608 100.361C213.569 100.307 213.514 100.265 213.444 100.234C213.373 100.203 213.292 100.188 213.2 100.188C213.108 100.188 213.027 100.203 212.954 100.234C212.882 100.265 212.825 100.308 212.783 100.363C212.741 100.418 212.72 100.482 212.72 100.555C212.72 100.645 212.751 100.716 212.814 100.77C212.876 100.824 212.961 100.864 213.068 100.89L213.217 100.926C213.264 100.938 213.305 100.951 213.34 100.965C213.375 100.979 213.402 100.997 213.422 101.018C213.441 101.04 213.451 101.067 213.451 101.099C213.451 101.135 213.44 101.166 213.418 101.192C213.396 101.219 213.365 101.24 213.326 101.254C213.287 101.269 213.242 101.276 213.191 101.276C213.141 101.276 213.097 101.269 213.057 101.255C213.018 101.241 212.985 101.22 212.96 101.191C212.936 101.162 212.922 101.126 212.918 101.083H212.686C212.689 101.165 212.712 101.235 212.754 101.293C212.796 101.35 212.854 101.394 212.929 101.424C213.003 101.454 213.091 101.469 213.192 101.469C213.297 101.469 213.386 101.454 213.46 101.423C213.534 101.392 213.59 101.348 213.63 101.293C213.669 101.238 213.688 101.174 213.688 101.101C213.688 101.047 213.677 101 213.656 100.96C213.635 100.92 213.606 100.886 213.57 100.857C213.534 100.829 213.492 100.805 213.447 100.787C213.401 100.768 213.353 100.753 213.304 100.742L213.182 100.713C213.155 100.707 213.129 100.699 213.102 100.69C213.076 100.681 213.052 100.67 213.03 100.657C213.008 100.644 212.991 100.628 212.979 100.609C212.966 100.59 212.96 100.567 212.96 100.541C212.96 100.51 212.97 100.483 212.988 100.458C213.007 100.434 213.034 100.415 213.07 100.4C213.105 100.386 213.147 100.379 213.196 100.379C213.266 100.379 213.324 100.394 213.368 100.424Z" fill="black"/>
<g clip-path="url(#clip4_19_2033)">
<path fill-rule="evenodd" clip-rule="evenodd" d="M33.48 90H53.48V110H33.48V90ZM37.9628 106.713L37.9629 106.713C38.4292 107.653 39.3479 108.432 40.9305 108.432C42.6829 108.432 43.884 107.546 43.884 105.599V99.1819H41.9056V105.572C41.9056 106.512 41.4958 106.754 40.8457 106.754C40.1675 106.754 39.8847 106.311 39.5739 105.787L37.9629 106.713L37.9628 106.713L37.9628 106.713ZM46.5696 105.626L44.9587 106.512C45.538 107.6 46.7252 108.432 48.5623 108.432C50.4418 108.432 51.8408 107.506 51.8408 105.814C51.8408 104.243 50.8939 103.545 49.2122 102.86L48.7177 102.659C47.8698 102.31 47.5024 102.082 47.5024 101.518C47.5024 101.061 47.8698 100.712 48.4493 100.712C49.0145 100.712 49.3818 100.941 49.721 101.518L51.2614 100.578C50.6114 99.4907 49.707 99.0745 48.4492 99.0745C46.6827 99.0745 45.5522 100.149 45.5522 101.558C45.5522 103.089 46.499 103.814 47.9264 104.391L48.4209 104.592C49.3254 104.968 49.8623 105.196 49.8623 105.841C49.8623 106.378 49.3396 106.767 48.5198 106.767C47.5448 106.767 46.9937 106.284 46.5696 105.626Z" fill="#F7DF1E"/>
</g>
<g clip-path="url(#clip5_19_2033)">
<path d="M141.159 102.004C142.266 102.004 143.163 101.107 143.163 100C143.163 98.8935 142.266 97.9965 141.159 97.9965C140.053 97.9965 139.156 98.8935 139.156 100C139.156 101.107 140.053 102.004 141.159 102.004Z" fill="#61DAFB"/>
<path d="M141.159 104.105C147.097 104.105 151.91 102.267 151.91 100C151.91 97.733 147.097 95.8951 141.159 95.8951C135.222 95.8951 130.409 97.733 130.409 100C130.409 102.267 135.222 104.105 141.159 104.105Z" stroke="#61DAFB"/>
<path d="M137.604 102.052C140.573 107.195 144.571 110.444 146.535 109.311C148.498 108.177 147.683 103.09 144.714 97.9476C141.746 92.8055 137.747 89.556 135.784 90.6895C133.821 91.8231 134.636 96.9104 137.604 102.052Z" stroke="#61DAFB"/>
<path d="M137.605 97.9476C134.636 103.09 133.821 108.177 135.784 109.311C137.747 110.444 141.746 107.195 144.714 102.052C147.683 96.9104 148.498 91.823 146.535 90.6895C144.572 89.556 140.573 92.8055 137.605 97.9476Z" stroke="#61DAFB"/>
</g>
<path d="M167.4 43.3333L174.067 50V43.3333H180.733L174.067 36.6666H167.4V43.3333Z" fill="black"/>
<path d="M180.733 30H167.4L174.067 36.6667H180.733V30Z" fill="black"/>
<path fill-rule="evenodd" clip-rule="evenodd" d="M248.36 40C248.36 45.5228 243.883 50 238.36 50C232.837 50 228.36 45.5228 228.36 40C228.36 34.4772 232.837 30 238.36 30C243.883 30 248.36 34.4772 248.36 40ZM241.025 38.4945H243.697V38.9716H242.637V41.482H242.107V38.9716H241.025V38.4945ZM236.63 38.9716V38.4945H233.957V38.9716H233.958V41.4597L231.488 38.4932H230.826V41.4808H231.356V39.1318L233.31 41.482L233.958 41.482L233.976 41.482L236.63 41.482V41.0048H234.488V40.2165H236.21V39.7393H234.488V38.9716H236.63ZM237.964 38.4957H237.27L239.755 41.4833H240.451L239.208 39.9905L240.449 38.498L239.755 38.499L238.861 39.5732L237.964 38.4957ZM238.329 40.2119L238.676 40.6297L237.964 41.4855H237.268L238.329 40.2119ZM243.717 41.4247C243.745 41.4508 243.778 41.4638 243.816 41.4638C243.841 41.4638 243.864 41.4576 243.885 41.4456C243.907 41.434 243.923 41.4179 243.937 41.3973C243.95 41.3771 243.956 41.3546 243.956 41.3299C243.956 41.2936 243.942 41.2625 243.914 41.2364C243.886 41.2104 243.854 41.1974 243.816 41.1974C243.778 41.1974 243.745 41.2104 243.717 41.2364C243.689 41.2625 243.676 41.2936 243.676 41.3299C243.676 41.3672 243.689 41.3987 243.717 41.4247ZM244.721 40.2052H244.956V41.0807C244.956 41.1611 244.938 41.2299 244.902 41.2878C244.867 41.3457 244.818 41.3898 244.754 41.421C244.692 41.4518 244.618 41.4675 244.534 41.4675C244.458 41.4675 244.389 41.4542 244.328 41.4282C244.267 41.4021 244.219 41.3631 244.183 41.3118C244.147 41.2604 244.13 41.1964 244.13 41.1197H244.365C244.365 41.1532 244.373 41.1823 244.388 41.2066C244.403 41.231 244.424 41.2494 244.451 41.2625C244.478 41.2755 244.508 41.282 244.543 41.282C244.581 41.282 244.613 41.2744 244.64 41.259C244.666 41.244 244.686 41.2214 244.7 41.1912C244.714 41.1615 244.721 41.1245 244.721 41.0807V40.2052ZM245.848 40.4236C245.892 40.4531 245.917 40.4945 245.922 40.5476H246.15C246.149 40.4774 246.128 40.4154 246.088 40.3613C246.049 40.3072 245.994 40.2648 245.924 40.2343C245.853 40.2035 245.772 40.1884 245.68 40.1884C245.588 40.1884 245.507 40.2035 245.434 40.2343C245.362 40.2648 245.305 40.3076 245.263 40.3627C245.221 40.4178 245.2 40.4822 245.2 40.5555C245.2 40.6448 245.231 40.716 245.294 40.7698C245.356 40.8235 245.441 40.8636 245.548 40.89L245.697 40.9262C245.744 40.9375 245.785 40.9506 245.82 40.9649C245.855 40.9793 245.882 40.9971 245.902 41.0183C245.921 41.0396 245.931 41.0666 245.931 41.0991C245.931 41.1348 245.92 41.1659 245.898 41.1923C245.876 41.219 245.845 41.2395 245.806 41.2542C245.767 41.269 245.722 41.2765 245.671 41.2765C245.621 41.2765 245.577 41.2693 245.537 41.2553C245.498 41.2409 245.465 41.2197 245.44 41.1909C245.416 41.1618 245.402 41.1258 245.398 41.0827H245.166C245.169 41.1652 245.192 41.2354 245.234 41.2929C245.276 41.3504 245.334 41.3943 245.408 41.4241C245.483 41.4542 245.571 41.4692 245.672 41.4692C245.777 41.4692 245.866 41.4535 245.94 41.4227C246.014 41.3915 246.07 41.3484 246.11 41.2933C246.149 41.2378 246.168 41.1738 246.168 41.1009C246.168 41.0468 246.157 40.9999 246.136 40.9598C246.115 40.9197 246.086 40.8855 246.05 40.8571C246.014 40.8287 245.972 40.805 245.927 40.7866C245.881 40.7677 245.833 40.753 245.784 40.742L245.662 40.7129C245.635 40.7068 245.609 40.6992 245.582 40.6903C245.556 40.6814 245.532 40.6705 245.51 40.6571C245.488 40.6441 245.471 40.628 245.459 40.6089C245.446 40.59 245.44 40.5674 245.44 40.5414C245.44 40.5103 245.45 40.4825 245.468 40.4582C245.487 40.4339 245.514 40.4147 245.55 40.4004C245.585 40.3863 245.627 40.3791 245.676 40.3791C245.746 40.3791 245.804 40.3939 245.848 40.4236Z" fill="black"/>
<g clip-path="url(#clip6_19_2033)">
<path fill-rule="evenodd" clip-rule="evenodd" d="M98.4399 30H118.44V50H98.4399V30ZM102.923 46.7134L102.923 46.7134C103.389 47.653 104.308 48.4317 105.89 48.4317C107.643 48.4317 108.844 47.5456 108.844 45.5989V39.1819H106.866V45.5724C106.866 46.512 106.456 46.7536 105.806 46.7536C105.127 46.7536 104.845 46.3107 104.534 45.7872L102.923 46.7134L102.923 46.7132L102.923 46.7134ZM111.53 45.626L109.919 46.5121C110.498 47.5995 111.685 48.4319 113.522 48.4319C115.402 48.4319 116.801 47.5056 116.801 45.8139C116.801 44.2432 115.854 43.5452 114.172 42.8605L113.678 42.6591C112.83 42.31 112.462 42.0817 112.462 41.5179C112.462 41.0615 112.83 40.7124 113.409 40.7124C113.974 40.7124 114.342 40.9406 114.681 41.5179L116.221 40.5781C115.571 39.4907 114.667 39.0745 113.409 39.0745C111.643 39.0745 110.512 40.1485 110.512 41.5582C110.512 43.0887 111.459 43.8136 112.886 44.3908L113.381 44.5923C114.285 44.9681 114.822 45.1964 114.822 45.8408C114.822 46.3778 114.3 46.7672 113.48 46.7672C112.505 46.7672 111.954 46.2839 111.53 45.626Z" fill="#F7DF1E"/>
</g>
<g clip-path="url(#clip7_19_2033)">
<path fill-rule="evenodd" clip-rule="evenodd" d="M1 90H21V110H1V90ZM5.48284 106.713L5.48288 106.713C5.94923 107.653 6.86791 108.432 8.45049 108.432C10.2029 108.432 11.404 107.546 11.404 105.599V99.1819H9.42563V105.572C9.42563 106.512 9.01577 106.754 8.36568 106.754C7.68749 106.754 7.40475 106.311 7.09394 105.787L5.48288 106.713L5.48281 106.713L5.48284 106.713ZM14.0896 105.626L12.4787 106.512C13.058 107.6 14.2452 108.432 16.0823 108.432C17.9618 108.432 19.3608 107.506 19.3608 105.814C19.3608 104.243 18.414 103.545 16.7323 102.86L16.2377 102.659C15.3899 102.31 15.0224 102.082 15.0224 101.518C15.0224 101.061 15.3899 100.712 15.9693 100.712C16.5345 100.712 16.9018 100.941 17.241 101.518L18.7814 100.578C18.1314 99.4907 17.227 99.0745 15.9692 99.0745C14.2027 99.0745 13.0722 100.149 13.0722 101.558C13.0722 103.089 14.019 103.814 15.4464 104.391L15.9409 104.592C16.8454 104.968 17.3823 105.196 17.3823 105.841C17.3823 106.378 16.8596 106.767 16.0399 106.767C15.0648 106.767 14.5137 106.284 14.0896 105.626Z" fill="#F7DF1E"/>
</g>
<path d="M80.6099 90C79.849 90.0058 79.0925 90.1188 78.3618 90.3358L78.3104 90.3525C77.8495 90.2693 77.3829 90.2233 76.915 90.215C75.9537 90.1983 75.1279 90.4367 74.462 90.8333C73.8059 90.6008 72.4448 90.2 71.0103 90.28C70.0114 90.3358 68.9212 90.6458 68.1134 91.5167C67.308 92.3875 66.882 93.735 66.9718 95.5684C66.9963 96.0742 67.1374 96.8992 67.3716 97.9676C67.6058 99.0359 67.9347 100.287 68.3451 101.428C68.7556 102.569 69.2052 103.594 69.9078 104.291C70.2587 104.64 70.7418 104.933 71.3114 104.909C71.7112 104.893 72.0727 104.713 72.3844 104.449C72.5362 104.653 72.6986 104.743 72.8463 104.825C73.0324 104.929 73.2135 105 73.4012 105.047C73.7382 105.133 74.3151 105.248 74.9908 105.13C75.2209 105.091 75.4633 105.014 75.7048 104.905C75.7138 105.18 75.7244 105.449 75.735 105.722C75.7685 106.585 75.7897 107.383 76.0435 108.082C76.0843 108.196 76.1961 108.784 76.6367 109.304C77.0774 109.824 77.9407 110.148 78.924 109.933C79.6176 109.781 80.4998 109.508 81.0857 108.656C81.665 107.814 81.9262 106.607 81.9776 104.648C81.9906 104.543 82.0061 104.453 82.0224 104.368L82.1604 104.381H82.1767C82.9168 104.415 83.7198 104.308 84.3905 103.989C84.9846 103.708 85.4342 103.424 85.7615 102.92C85.8431 102.795 85.9328 102.644 85.9573 102.384C85.9818 102.124 85.8357 101.718 85.5934 101.53C85.1078 101.153 84.8026 101.297 84.4754 101.366C84.1531 101.439 83.8246 101.479 83.4945 101.488C84.4379 99.8651 85.1143 98.1417 85.5003 96.6167C85.7288 95.7167 85.8569 94.8867 85.8675 94.1609C85.8781 93.435 85.8202 92.7925 85.3942 92.2367C84.0633 90.5 82.1922 90.02 80.7446 90.0033C80.6997 90.0025 80.6548 90.0017 80.6099 90.0025V90ZM80.5716 90.5333C81.9408 90.52 83.6904 90.9125 84.9462 92.5517C85.2286 92.92 85.3126 93.4584 85.3028 94.1217C85.2922 94.7842 85.1723 95.5776 84.9528 96.4467C84.5268 98.1301 83.7222 100.093 82.5888 101.853C82.6288 101.882 82.6721 101.907 82.7177 101.925C82.9543 102.025 83.4937 102.111 84.5701 101.885C84.841 101.827 85.0393 101.788 85.2449 101.948C85.2949 101.991 85.3344 102.045 85.3603 102.107C85.3862 102.168 85.3978 102.235 85.3942 102.302C85.3833 102.403 85.3467 102.499 85.2882 102.582C85.0801 102.901 84.6696 103.203 84.1433 103.453C83.6773 103.674 83.009 103.79 82.4166 103.797C82.1196 103.8 81.8454 103.777 81.6128 103.703L81.5981 103.697C81.5084 104.58 81.3019 106.324 81.1673 107.12C81.0595 107.762 80.871 108.272 80.5112 108.654C80.1521 109.035 79.6437 109.265 78.9599 109.415C78.1129 109.601 77.4952 109.401 77.0969 109.059C76.6995 108.717 76.5176 108.263 76.4082 107.986C76.3332 107.794 76.294 107.546 76.2564 107.214C76.2189 106.883 76.1912 106.477 76.1724 106.019C76.1474 105.319 76.1392 104.618 76.1479 103.917C75.7941 104.248 75.3544 104.468 74.8815 104.55C74.3192 104.648 73.8174 104.552 73.5179 104.475C73.3703 104.437 73.2277 104.381 73.0936 104.308C72.9548 104.232 72.8226 104.146 72.7345 103.977C72.6827 103.88 72.6662 103.767 72.688 103.659C72.7156 103.55 72.7782 103.453 72.8659 103.383C73.0275 103.249 73.2413 103.174 73.5636 103.106C74.1503 102.983 74.3551 102.898 74.48 102.798C74.5861 102.711 74.706 102.536 74.9182 102.279C74.9172 102.268 74.9163 102.257 74.9157 102.245C74.536 102.234 74.1642 102.132 73.8304 101.947C73.708 102.078 73.0829 102.753 72.3208 103.69C72.0001 104.082 71.6459 104.307 71.2722 104.323C70.8985 104.339 70.5606 104.147 70.2734 103.863C69.6997 103.293 69.2419 102.314 68.8429 101.208C68.4447 100.101 68.1207 98.8684 67.8906 97.8184C67.6597 96.7684 67.5234 95.9217 67.5038 95.5134C67.4181 93.7784 67.8155 92.6092 68.4969 91.8717C69.1791 91.1342 70.1143 90.855 71.0258 90.8017C72.6619 90.7058 74.2156 91.2883 74.5297 91.4133C75.1352 90.9933 75.9154 90.7317 76.8897 90.7483C77.3522 90.755 77.8125 90.8159 78.2614 90.93L78.2777 90.9225C78.4753 90.8516 78.6766 90.792 78.8808 90.7442C79.435 90.6121 80.0017 90.542 80.5707 90.535L80.5716 90.5333ZM80.6956 91.0917H80.5765C80.1089 91.0983 79.6432 91.1519 79.186 91.2517C80.2027 91.7117 80.9706 92.42 81.5116 93.1267C81.8874 93.616 82.1981 94.154 82.4354 94.7267C82.5251 94.9467 82.5855 95.1325 82.6198 95.2767C82.6369 95.3492 82.6483 95.41 82.6524 95.4734C82.654 95.505 82.6557 95.5375 82.6426 95.5934C82.6426 95.5959 82.6385 95.6017 82.6377 95.6042C82.6622 96.3342 82.4851 96.8292 82.4639 97.5259C82.4476 98.0309 82.5741 98.6242 82.6051 99.2718C82.6345 99.8801 82.5627 100.548 82.1759 101.204C82.2085 101.244 82.2379 101.284 82.2689 101.324C83.2922 99.6784 84.0299 97.8576 84.4232 96.3051C84.6337 95.4692 84.7455 94.7117 84.7553 94.1117C84.7635 93.5117 84.6541 93.0767 84.5146 92.895C83.4195 91.465 81.9376 91.1017 80.6956 91.0917ZM76.7869 91.305C75.8223 91.3075 75.1303 91.605 74.6056 92.0509C74.0646 92.5117 73.7015 93.1425 73.4632 93.7884C73.1801 94.555 73.0829 95.2967 73.0446 95.8001L73.0552 95.7934C73.3465 95.6267 73.7292 95.46 74.1389 95.3634C74.5485 95.2675 74.99 95.2375 75.3898 95.3959C75.7897 95.5542 76.1202 95.9267 76.2401 96.4917C76.8146 99.2059 76.0614 100.215 75.784 100.977C75.6787 101.253 75.5885 101.535 75.5139 101.821C75.549 101.813 75.584 101.803 75.6191 101.799C75.815 101.783 75.9684 101.849 76.0598 101.889C76.3389 102.008 76.5306 102.256 76.6343 102.539C76.6612 102.613 76.6808 102.693 76.6922 102.776C76.7043 102.81 76.7098 102.846 76.7085 102.882C76.6776 103.92 76.6811 104.959 76.7191 105.997C76.7379 106.445 76.7656 106.84 76.8007 107.152C76.8358 107.463 76.8856 107.699 76.9174 107.779C77.0219 108.046 77.1745 108.395 77.4503 108.633C77.7261 108.869 78.1219 109.028 78.8449 108.869C79.4716 108.732 79.8584 108.541 80.117 108.267C80.3749 107.993 80.5291 107.611 80.6279 107.027C80.7756 106.152 81.0726 103.614 81.1085 103.137C81.0922 102.777 81.1444 102.5 81.257 102.289C81.3729 102.073 81.5524 101.94 81.7075 101.868C81.785 101.833 81.8576 101.808 81.9172 101.791C81.8541 101.698 81.788 101.608 81.7189 101.52C81.4954 101.243 81.3123 100.935 81.1754 100.604C81.1099 100.468 81.0399 100.334 80.9657 100.202C80.8572 100.002 80.7201 99.7518 80.5765 99.4709C80.2892 98.9084 79.9767 98.2267 79.8143 97.5626C79.6527 96.8992 79.6291 96.2126 80.0436 95.7284C80.4108 95.2984 81.0555 95.12 82.0233 95.22C81.9947 95.1325 81.9776 95.06 81.9294 94.9434C81.7106 94.4174 81.425 93.9232 81.0799 93.4734C80.2598 92.4025 78.9322 91.3408 76.8807 91.3067H76.7869V91.305ZM71.3669 91.3483C71.2632 91.3483 71.1596 91.3517 71.0568 91.3575C70.2326 91.4058 69.4533 91.65 68.8959 92.2534C68.3378 92.8567 67.9706 93.8459 68.0505 95.4834C68.0661 95.7934 68.1982 96.6617 68.4251 97.6934C68.6511 98.7251 68.9718 99.9393 69.357 101.012C69.743 102.084 70.2106 103.018 70.6545 103.459C70.8781 103.68 71.0723 103.769 71.2485 103.762C71.4256 103.753 71.6386 103.649 71.8989 103.33C72.3735 102.745 72.8661 102.176 73.3759 101.623C73.0142 101.303 72.7373 100.894 72.5709 100.435C72.4045 99.9766 72.3538 99.4824 72.4236 98.9984C72.5077 98.3826 72.5191 97.8067 72.5093 97.3517C72.4995 96.9084 72.4685 96.6134 72.4685 96.4292C72.4683 96.4239 72.4683 96.4187 72.4685 96.4134V96.4092L72.4677 96.4042C72.4672 95.4449 72.6307 94.492 72.9507 93.59C73.1792 92.97 73.5195 92.34 74.0295 91.83C73.5285 91.6617 72.639 91.405 71.6761 91.3567C71.5728 91.3513 71.4703 91.3485 71.3669 91.3483ZM81.4839 95.7501C80.9298 95.7576 80.6189 95.9034 80.4557 96.0942C80.2248 96.3651 80.2027 96.8401 80.3463 97.4251C80.4891 98.0109 80.7845 98.6659 81.062 99.2101C81.2007 99.4826 81.3354 99.7276 81.4439 99.9268C81.5532 100.127 81.6332 100.268 81.6822 100.389C81.727 100.501 81.7768 100.599 81.8274 100.691C82.042 100.228 82.0804 99.7743 82.0584 99.3009C82.0298 98.7151 81.8968 98.1159 81.9164 97.5092C81.9384 96.8001 82.0755 96.3384 82.0877 95.7901C81.8875 95.7636 81.6858 95.7502 81.4839 95.7501ZM74.7648 95.8459C74.5955 95.8475 74.4269 95.8682 74.2621 95.9076C73.9336 95.9891 73.6172 96.1149 73.3212 96.2817C73.2211 96.3366 73.1258 96.4001 73.0364 96.4717L73.0185 96.4884C73.0234 96.6101 73.047 96.9051 73.0568 97.3392C73.0666 97.8142 73.0552 98.4201 72.9654 99.0759C72.7704 100.501 73.7831 101.681 74.9728 101.683C75.0422 101.39 75.1565 101.093 75.2707 100.781C75.602 99.8693 76.254 99.2042 75.7048 96.6092C75.6151 96.1842 75.4372 96.0126 75.1924 95.9159C75.0551 95.8663 74.9103 95.8426 74.7648 95.8459ZM81.2252 96.0159H81.266C81.3199 96.0176 81.3696 96.0234 81.4129 96.0342C81.4569 96.0442 81.4945 96.0592 81.5255 96.0801C81.5414 96.0901 81.5551 96.1035 81.5656 96.1193C81.5762 96.1351 81.5833 96.1529 81.5867 96.1717L81.5859 96.1784C81.5875 96.2179 81.5775 96.2571 81.5573 96.2909C81.5332 96.3366 81.503 96.3787 81.4676 96.4159C81.3848 96.509 81.2739 96.5712 81.1526 96.5926C81.0345 96.6071 80.9153 96.5766 80.818 96.5067C80.7782 96.4794 80.7424 96.4462 80.7119 96.4084C80.6855 96.3787 80.6677 96.342 80.6605 96.3026C80.6588 96.2833 80.661 96.264 80.6669 96.2456C80.6728 96.2273 80.6823 96.2103 80.6948 96.1959C80.7216 96.1648 80.754 96.1393 80.7903 96.1209C80.8686 96.0759 80.9747 96.0426 81.0946 96.0242C81.1395 96.0176 81.1836 96.0142 81.2252 96.0134V96.0159ZM74.8439 96.1559C74.8872 96.1559 74.9329 96.1601 74.9794 96.1667C75.1042 96.1842 75.2152 96.2184 75.3001 96.2684C75.3415 96.2905 75.3783 96.3204 75.4086 96.3567C75.4251 96.376 75.4375 96.3985 75.4451 96.4229C75.4527 96.4472 75.4553 96.473 75.4527 96.4984C75.4448 96.5463 75.4236 96.5909 75.3915 96.6267C75.3581 96.6686 75.3187 96.7051 75.2748 96.7351C75.1686 96.8118 75.0383 96.8454 74.9092 96.8292C74.7773 96.8071 74.6565 96.7401 74.5665 96.6392C74.5282 96.5986 74.4957 96.5526 74.4702 96.5026C74.4433 96.4586 74.4315 96.4067 74.4367 96.3551C74.449 96.2651 74.5216 96.2184 74.5926 96.1926C74.6734 96.1662 74.7583 96.1549 74.8431 96.1592L74.8439 96.1559ZM82.2371 102.275L82.2346 102.276C82.1147 102.32 82.0159 102.338 81.9327 102.376C81.8485 102.409 81.7791 102.472 81.7377 102.554C81.6862 102.65 81.6422 102.82 81.6552 103.109C81.6922 103.135 81.7329 103.155 81.776 103.168C81.9155 103.211 82.1497 103.239 82.4109 103.235C82.9315 103.229 83.5721 103.105 83.9123 102.943C84.1915 102.811 84.4506 102.638 84.6819 102.431C83.5451 102.671 82.9021 102.607 82.508 102.441C82.4101 102.399 82.3188 102.344 82.2371 102.275ZM75.6836 102.353H75.6665C75.6232 102.358 75.5604 102.373 75.4388 102.51C75.1548 102.835 75.0553 103.039 74.8211 103.23C74.5869 103.42 74.2825 103.522 73.6746 103.649C73.482 103.689 73.3718 103.733 73.2984 103.769C73.322 103.789 73.3196 103.794 73.3555 103.813C73.4444 103.863 73.5587 103.908 73.6509 103.932C73.912 103.998 74.3412 104.076 74.7892 103.998C75.2372 103.92 75.7032 103.701 76.1006 103.132C76.1691 103.033 76.1765 102.888 76.1202 102.733C76.0631 102.577 75.9382 102.443 75.8501 102.405C75.7976 102.379 75.7414 102.362 75.6836 102.355V102.353Z" fill="black"/>
<g clip-path="url(#clip8_19_2033)">
<path d="M141.159 42.0036C142.266 42.0036 143.163 41.1066 143.163 40C143.163 38.8935 142.266 37.9965 141.159 37.9965C140.053 37.9965 139.156 38.8935 139.156 40C139.156 41.1066 140.053 42.0036 141.159 42.0036Z" fill="#61DAFB"/>
<path d="M141.159 44.1049C147.097 44.1049 151.91 42.2671 151.91 40C151.91 37.733 147.097 35.8951 141.159 35.8951C135.222 35.8951 130.409 37.733 130.409 40C130.409 42.2671 135.222 44.1049 141.159 44.1049Z" stroke="#61DAFB"/>
<path d="M137.604 42.0525C140.573 47.1945 144.571 50.4441 146.535 49.3106C148.498 48.177 147.683 43.0897 144.714 37.9476C141.746 32.8055 137.747 29.556 135.784 30.6895C133.821 31.8231 134.636 36.9104 137.604 42.0525Z" stroke="#61DAFB"/>
<path d="M137.605 37.9476C134.636 43.0896 133.821 48.177 135.784 49.3105C137.747 50.4441 141.746 47.1945 144.714 42.0525C147.683 36.9104 148.498 31.823 146.535 30.6895C144.572 29.556 140.573 32.8055 137.605 37.9476Z" stroke="#61DAFB"/>
</g>
<g clip-path="url(#clip9_19_2033)">
<path d="M11.2395 72.0036C12.3461 72.0036 13.2431 71.1066 13.2431 70C13.2431 68.8935 12.3461 67.9965 11.2395 67.9965C10.133 67.9965 9.23596 68.8935 9.23596 70C9.23596 71.1066 10.133 72.0036 11.2395 72.0036Z" fill="#61DAFB"/>
<path d="M11.2395 74.1049C17.177 74.1049 21.9904 72.2671 21.9904 70C21.9904 67.733 17.177 65.8951 11.2395 65.8951C5.30197 65.8951 0.488647 67.733 0.488647 70C0.488647 72.2671 5.30197 74.1049 11.2395 74.1049Z" stroke="#61DAFB"/>
<path d="M7.68453 72.0525C10.6533 77.1945 14.6515 80.4441 16.6149 79.3106C18.5782 78.177 17.7631 73.0897 14.7944 67.9476C11.8256 62.8055 7.82735 59.556 5.86402 60.6895C3.90069 61.8231 4.71576 66.9104 7.68453 72.0525Z" stroke="#61DAFB"/>
<path d="M7.68464 67.9476C4.71587 73.0896 3.90081 78.177 5.86414 79.3105C7.82747 80.4441 11.8257 77.1945 14.7945 72.0525C17.7633 66.9104 18.5783 61.823 16.615 60.6895C14.6517 59.556 10.6534 62.8055 7.68464 67.9476Z" stroke="#61DAFB"/>
</g>
<path fill-rule="evenodd" clip-rule="evenodd" d="M195.88 40V50H205.88H215.88V40V30H205.88H195.88V40ZM200.303 40.0663L200.296 40.8854H201.598H202.899V44.5838V48.2822H203.82H204.741V44.5838V40.8854H206.042H207.344V40.0822C207.344 39.6378 207.334 39.2663 207.322 39.2568C207.312 39.2441 205.728 39.2378 203.807 39.2409L200.312 39.2505L200.303 40.0663ZM213.269 39.9478C212.913 39.5796 212.526 39.3542 212.018 39.2272C211.672 39.1415 210.853 39.1161 210.5 39.1828C209.415 39.3891 208.662 40.0844 208.45 41.0812C208.389 41.3669 208.408 42.0748 208.485 42.3574C208.577 42.6971 208.799 43.1034 209.034 43.3574C209.44 43.7955 209.885 44.0717 210.916 44.5161C211.818 44.9066 212.135 45.0939 212.291 45.3161C212.412 45.4907 212.44 45.5923 212.44 45.824C212.44 46.0812 212.364 46.2558 212.18 46.424C211.748 46.8113 210.872 46.859 210.234 46.5225C210.012 46.405 209.643 46.0526 209.475 45.7955L209.354 45.6177L208.78 45.951C208.462 46.1351 208.126 46.3288 208.037 46.3796C207.945 46.4336 207.862 46.4844 207.853 46.4971C207.831 46.5352 208.189 47.0653 208.373 47.2685C208.843 47.7891 209.605 48.1859 210.408 48.3288C210.777 48.3955 211.589 48.405 211.932 48.3447C213.04 48.1574 213.827 47.5923 214.145 46.7605C214.434 45.9955 214.339 44.9669 213.913 44.3225C213.532 43.7447 212.919 43.3383 211.488 42.7225C210.71 42.3859 210.462 42.2209 210.329 41.9447C210.266 41.8177 210.243 41.7256 210.243 41.5701C210.24 41.0399 210.631 40.7225 211.237 40.7637C211.65 40.7923 211.919 40.9542 212.177 41.3288C212.262 41.4558 212.339 41.5383 212.358 41.5256C212.885 41.1986 213.754 40.6145 213.748 40.5891C213.726 40.5034 213.453 40.1447 213.269 39.9478Z" fill="#007ACC"/>
<path fill-rule="evenodd" clip-rule="evenodd" d="M1 10V20H11H21V10V0H11H1V10ZM5.42275 10.0663L5.4164 10.8854H6.71799H8.01957V14.5838V18.2822H8.94021H9.86084V14.5838V10.8854H11.1624H12.464V10.0822C12.464 9.63777 12.4545 9.26634 12.4418 9.25681C12.4323 9.24412 10.8481 9.23777 8.92751 9.24094L5.43227 9.25047L5.42275 10.0663ZM18.3888 9.94785C18.0333 9.57959 17.646 9.3542 17.138 9.22721C16.792 9.1415 15.9729 9.1161 15.6206 9.18277C14.5348 9.38912 13.7825 10.0844 13.5698 11.0812C13.5094 11.3669 13.5285 12.0748 13.6047 12.3574C13.6967 12.6971 13.919 13.1034 14.1539 13.3574C14.5602 13.7955 15.0047 14.0717 16.0364 14.5161C16.938 14.9066 17.2555 15.0939 17.411 15.3161C17.5317 15.4907 17.5602 15.5923 17.5602 15.824C17.5602 16.0812 17.484 16.2558 17.2999 16.424C16.8682 16.8113 15.992 16.859 15.3539 16.5225C15.1317 16.405 14.7634 16.0526 14.5952 15.7955L14.4745 15.6177L13.8999 15.951C13.5825 16.1351 13.246 16.3288 13.1571 16.3796C13.065 16.4336 12.9825 16.4844 12.9729 16.4971C12.9507 16.5352 13.3094 17.0653 13.4936 17.2685C13.9634 17.7891 14.7253 18.1859 15.5285 18.3288C15.8967 18.3955 16.7094 18.405 17.0523 18.3447C18.1602 18.1574 18.9475 17.5923 19.265 16.7605C19.5539 15.9955 19.4587 14.9669 19.0333 14.3225C18.6523 13.7447 18.0396 13.3383 16.6079 12.7225C15.8301 12.3859 15.5825 12.2209 15.4491 11.9447C15.3856 11.8177 15.3634 11.7256 15.3634 11.5701C15.3602 11.0399 15.7507 10.7225 16.3571 10.7637C16.7698 10.7923 17.0396 10.9542 17.2967 11.3288C17.3825 11.4558 17.4587 11.5383 17.4777 11.5256C18.0047 11.1986 18.8745 10.6145 18.8682 10.5891C18.846 10.5034 18.5729 10.1447 18.3888 9.94785Z" fill="#007ACC"/>
<path fill-rule="evenodd" clip-rule="evenodd" d="M108.314 93C105.414 93 103.602 94.4441 102.877 97.3333C103.964 95.8893 105.233 95.3476 106.683 95.7083C107.51 95.9143 108.102 96.5127 108.755 97.1742C109.822 98.2521 111.056 99.5 113.75 99.5C116.65 99.5 118.462 98.0559 119.187 95.1667C118.1 96.6107 116.832 97.1524 115.381 96.7917C114.554 96.5857 113.962 95.9873 113.308 95.3258C112.242 94.2468 111.009 93 108.314 93ZM102.877 99.5C99.9768 99.5 98.1652 100.944 97.4399 103.833C98.5273 102.388 99.7963 101.848 101.246 102.208C102.073 102.414 102.665 103.013 103.319 103.674C104.385 104.752 105.619 106 108.315 106C111.215 106 113.026 104.556 113.751 101.667C112.664 103.111 111.395 103.652 109.946 103.292C109.118 103.086 108.527 102.487 107.873 101.826C106.805 100.748 105.571 99.5 102.877 99.5Z" fill="black"/>
<path d="M241.65 90C240.889 90.0058 240.132 90.1188 239.402 90.3358L239.35 90.3525C238.89 90.2693 238.423 90.2233 237.955 90.215C236.994 90.1983 236.168 90.4367 235.502 90.8333C234.846 90.6008 233.485 90.2 232.05 90.28C231.051 90.3358 229.961 90.6458 229.153 91.5167C228.348 92.3875 227.922 93.735 228.012 95.5684C228.036 96.0742 228.177 96.8992 228.412 97.9676C228.646 99.0359 228.975 100.287 229.385 101.428C229.796 102.569 230.245 103.594 230.948 104.291C231.299 104.64 231.782 104.933 232.351 104.909C232.751 104.893 233.113 104.713 233.424 104.449C233.576 104.653 233.739 104.743 233.886 104.825C234.072 104.929 234.254 105 234.441 105.047C234.778 105.133 235.355 105.248 236.031 105.13C236.261 105.091 236.503 105.014 236.745 104.905C236.754 105.18 236.764 105.449 236.775 105.722C236.809 106.585 236.83 107.383 237.084 108.082C237.124 108.196 237.236 108.784 237.677 109.304C238.117 109.824 238.981 110.148 239.964 109.933C240.658 109.781 241.54 109.508 242.126 108.656C242.705 107.814 242.966 106.607 243.018 104.648C243.031 104.543 243.046 104.453 243.062 104.368L243.2 104.381H243.217C243.957 104.415 244.76 104.308 245.431 103.989C246.025 103.708 246.474 103.424 246.801 102.92C246.883 102.795 246.973 102.644 246.997 102.384C247.022 102.124 246.876 101.718 246.633 101.53C246.148 101.153 245.843 101.297 245.515 101.366C245.193 101.439 244.865 101.479 244.535 101.488C245.478 99.8651 246.154 98.1417 246.54 96.6167C246.769 95.7167 246.897 94.8867 246.908 94.1609C246.918 93.435 246.86 92.7925 246.434 92.2367C245.103 90.5 243.232 90.02 241.785 90.0033C241.74 90.0025 241.695 90.0017 241.65 90.0025V90ZM241.612 90.5333C242.981 90.52 244.73 90.9125 245.986 92.5517C246.269 92.92 246.353 93.4584 246.343 94.1217C246.332 94.7842 246.212 95.5776 245.993 96.4467C245.567 98.1301 244.762 100.093 243.629 101.853C243.669 101.882 243.712 101.907 243.758 101.925C243.994 102.025 244.534 102.111 245.61 101.885C245.881 101.827 246.079 101.788 246.285 101.948C246.335 101.991 246.374 102.045 246.4 102.107C246.426 102.168 246.438 102.235 246.434 102.302C246.423 102.403 246.387 102.499 246.328 102.582C246.12 102.901 245.71 103.203 245.183 103.453C244.717 103.674 244.049 103.79 243.457 103.797C243.16 103.8 242.885 103.777 242.653 103.703L242.638 103.697C242.548 104.58 242.342 106.324 242.207 107.12C242.1 107.762 241.911 108.272 241.551 108.654C241.192 109.035 240.684 109.265 240 109.415C239.153 109.601 238.535 109.401 238.137 109.059C237.74 108.717 237.558 108.263 237.448 107.986C237.373 107.794 237.334 107.546 237.296 107.214C237.259 106.883 237.231 106.477 237.212 106.019C237.187 105.319 237.179 104.618 237.188 103.917C236.834 104.248 236.394 104.468 235.921 104.55C235.359 104.648 234.857 104.552 234.558 104.475C234.41 104.437 234.268 104.381 234.134 104.308C233.995 104.232 233.863 104.146 233.775 103.977C233.723 103.88 233.706 103.767 233.728 103.659C233.756 103.55 233.818 103.453 233.906 103.383C234.067 103.249 234.281 103.174 234.604 103.106C235.19 102.983 235.395 102.898 235.52 102.798C235.626 102.711 235.746 102.536 235.958 102.279C235.957 102.268 235.956 102.257 235.956 102.245C235.576 102.234 235.204 102.132 234.87 101.947C234.748 102.078 234.123 102.753 233.361 103.69C233.04 104.082 232.686 104.307 232.312 104.323C231.938 104.339 231.601 104.147 231.313 103.863C230.74 103.293 230.282 102.314 229.883 101.208C229.485 100.101 229.161 98.8684 228.931 97.8184C228.7 96.7684 228.563 95.9217 228.544 95.5134C228.458 93.7784 228.856 92.6092 229.537 91.8717C230.219 91.1342 231.154 90.855 232.066 90.8017C233.702 90.7058 235.256 91.2883 235.57 91.4133C236.175 90.9933 236.955 90.7317 237.93 90.7483C238.392 90.755 238.853 90.8159 239.301 90.93L239.318 90.9225C239.515 90.8516 239.717 90.792 239.921 90.7442C240.475 90.6121 241.042 90.542 241.611 90.535L241.612 90.5333ZM241.736 91.0917H241.616C241.149 91.0983 240.683 91.1519 240.226 91.2517C241.243 91.7117 242.011 92.42 242.552 93.1267C242.927 93.616 243.238 94.154 243.475 94.7267C243.565 94.9467 243.626 95.1325 243.66 95.2767C243.677 95.3492 243.688 95.41 243.692 95.4734C243.694 95.505 243.696 95.5375 243.683 95.5934C243.683 95.5959 243.679 95.6017 243.678 95.6042C243.702 96.3342 243.525 96.8292 243.504 97.5259C243.488 98.0309 243.614 98.6242 243.645 99.2718C243.675 99.8801 243.603 100.548 243.216 101.204C243.249 101.244 243.278 101.284 243.309 101.324C244.332 99.6784 245.07 97.8576 245.463 96.3051C245.674 95.4692 245.786 94.7117 245.795 94.1117C245.803 93.5117 245.694 93.0767 245.555 92.895C244.46 91.465 242.978 91.1017 241.736 91.0917ZM237.827 91.305C236.862 91.3075 236.17 91.605 235.646 92.0509C235.105 92.5117 234.742 93.1425 234.503 93.7884C234.22 94.555 234.123 95.2967 234.085 95.8001L234.095 95.7934C234.387 95.6267 234.769 95.46 235.179 95.3634C235.589 95.2675 236.03 95.2375 236.43 95.3959C236.83 95.5542 237.16 95.9267 237.28 96.4917C237.855 99.2059 237.101 100.215 236.824 100.977C236.719 101.253 236.629 101.535 236.554 101.821C236.589 101.813 236.624 101.803 236.659 101.799C236.855 101.783 237.008 101.849 237.1 101.889C237.379 102.008 237.571 102.256 237.674 102.539C237.701 102.613 237.721 102.693 237.732 102.776C237.744 102.81 237.75 102.846 237.749 102.882C237.718 103.92 237.721 104.959 237.759 105.997C237.778 106.445 237.806 106.84 237.841 107.152C237.876 107.463 237.926 107.699 237.957 107.779C238.062 108.046 238.215 108.395 238.49 108.633C238.766 108.869 239.162 109.028 239.885 108.869C240.512 108.732 240.898 108.541 241.157 108.267C241.415 107.993 241.569 107.611 241.668 107.027C241.816 106.152 242.113 103.614 242.149 103.137C242.132 102.777 242.184 102.5 242.297 102.289C242.413 102.073 242.592 101.94 242.748 101.868C242.825 101.833 242.898 101.808 242.957 101.791C242.894 101.698 242.828 101.608 242.759 101.52C242.535 101.243 242.352 100.935 242.215 100.604C242.15 100.468 242.08 100.334 242.006 100.202C241.897 100.002 241.76 99.7518 241.616 99.4709C241.329 98.9084 241.017 98.2267 240.854 97.5626C240.693 96.8992 240.669 96.2126 241.084 95.7284C241.451 95.2984 242.096 95.12 243.063 95.22C243.035 95.1325 243.018 95.06 242.969 94.9434C242.751 94.4174 242.465 93.9232 242.12 93.4734C241.3 92.4025 239.972 91.3408 237.921 91.3067H237.827V91.305ZM232.407 91.3483C232.303 91.3483 232.2 91.3517 232.097 91.3575C231.273 91.4058 230.493 91.65 229.936 92.2534C229.378 92.8567 229.011 93.8459 229.091 95.4834C229.106 95.7934 229.238 96.6617 229.465 97.6934C229.691 98.7251 230.012 99.9393 230.397 101.012C230.783 102.084 231.251 103.018 231.695 103.459C231.918 103.68 232.112 103.769 232.289 103.762C232.466 103.753 232.679 103.649 232.939 103.33C233.414 102.745 233.906 102.176 234.416 101.623C234.054 101.303 233.777 100.894 233.611 100.435C233.445 99.9766 233.394 99.4824 233.464 98.9984C233.548 98.3826 233.559 97.8067 233.549 97.3517C233.54 96.9084 233.509 96.6134 233.509 96.4292C233.508 96.4239 233.508 96.4187 233.509 96.4134V96.4092L233.508 96.4042C233.507 95.4449 233.671 94.492 233.991 93.59C234.219 92.97 234.56 92.34 235.07 91.83C234.569 91.6617 233.679 91.405 232.716 91.3567C232.613 91.3513 232.51 91.3485 232.407 91.3483ZM242.524 95.7501C241.97 95.7576 241.659 95.9034 241.496 96.0942C241.265 96.3651 241.243 96.8401 241.386 97.4251C241.529 98.0109 241.825 98.6659 242.102 99.2101C242.241 99.4826 242.375 99.7276 242.484 99.9268C242.593 100.127 242.673 100.268 242.722 100.389C242.767 100.501 242.817 100.599 242.867 100.691C243.082 100.228 243.12 99.7743 243.098 99.3009C243.07 98.7151 242.937 98.1159 242.956 97.5092C242.978 96.8001 243.116 96.3384 243.128 95.7901C242.928 95.7636 242.726 95.7502 242.524 95.7501ZM235.805 95.8459C235.636 95.8475 235.467 95.8682 235.302 95.9076C234.974 95.9891 234.657 96.1149 234.361 96.2817C234.261 96.3366 234.166 96.4001 234.076 96.4717L234.059 96.4884C234.063 96.6101 234.087 96.9051 234.097 97.3392C234.107 97.8142 234.095 98.4201 234.005 99.0759C233.81 100.501 234.823 101.681 236.013 101.683C236.082 101.39 236.196 101.093 236.311 100.781C236.642 99.8693 237.294 99.2042 236.745 96.6092C236.655 96.1842 236.477 96.0126 236.232 95.9159C236.095 95.8663 235.95 95.8426 235.805 95.8459ZM242.265 96.0159H242.306C242.36 96.0176 242.41 96.0234 242.453 96.0342C242.497 96.0442 242.535 96.0592 242.566 96.0801C242.581 96.0901 242.595 96.1035 242.606 96.1193C242.616 96.1351 242.623 96.1529 242.627 96.1717L242.626 96.1784C242.628 96.2179 242.618 96.2571 242.597 96.2909C242.573 96.3366 242.543 96.3787 242.508 96.4159C242.425 96.509 242.314 96.5712 242.193 96.5926C242.075 96.6071 241.955 96.5766 241.858 96.5067C241.818 96.4794 241.782 96.4462 241.752 96.4084C241.726 96.3787 241.708 96.342 241.701 96.3026C241.699 96.2833 241.701 96.264 241.707 96.2456C241.713 96.2273 241.722 96.2103 241.735 96.1959C241.762 96.1648 241.794 96.1393 241.83 96.1209C241.909 96.0759 242.015 96.0426 242.135 96.0242C242.18 96.0176 242.224 96.0142 242.265 96.0134V96.0159ZM235.884 96.1559C235.927 96.1559 235.973 96.1601 236.019 96.1667C236.144 96.1842 236.255 96.2184 236.34 96.2684C236.382 96.2905 236.418 96.3204 236.449 96.3567C236.465 96.376 236.478 96.3985 236.485 96.4229C236.493 96.4472 236.495 96.473 236.493 96.4984C236.485 96.5463 236.464 96.5909 236.432 96.6267C236.398 96.6686 236.359 96.7051 236.315 96.7351C236.209 96.8118 236.078 96.8454 235.949 96.8292C235.817 96.8071 235.697 96.7401 235.607 96.6392C235.568 96.5986 235.536 96.5526 235.51 96.5026C235.483 96.4586 235.472 96.4067 235.477 96.3551C235.489 96.2651 235.562 96.2184 235.633 96.1926C235.713 96.1662 235.798 96.1549 235.883 96.1592L235.884 96.1559ZM243.277 102.275L243.275 102.276C243.155 102.32 243.056 102.338 242.973 102.376C242.889 102.409 242.819 102.472 242.778 102.554C242.726 102.65 242.682 102.82 242.695 103.109C242.732 103.135 242.773 103.155 242.816 103.168C242.956 103.211 243.19 103.239 243.451 103.235C243.972 103.229 244.612 103.105 244.952 102.943C245.232 102.811 245.491 102.638 245.722 102.431C244.585 102.671 243.942 102.607 243.548 102.441C243.45 102.399 243.359 102.344 243.277 102.275ZM236.724 102.353H236.707C236.663 102.358 236.6 102.373 236.479 102.51C236.195 102.835 236.095 103.039 235.861 103.23C235.627 103.42 235.323 103.522 234.715 103.649C234.522 103.689 234.412 103.733 234.338 103.769C234.362 103.789 234.36 103.794 234.396 103.813C234.484 103.863 234.599 103.908 234.691 103.932C234.952 103.998 235.381 104.076 235.829 103.998C236.277 103.92 236.743 103.701 237.141 103.132C237.209 103.033 237.217 102.888 237.16 102.733C237.103 102.577 236.978 102.443 236.89 102.405C236.838 102.379 236.781 102.362 236.724 102.355V102.353Z" fill="black"/>
</mask>
<g mask="url(#mask0_19_2033)">
<rect width="250" height="110" fill="url(#paint0_linear_19_2033)"/>
</g>
<defs>
<linearGradient id="paint0_linear_19_2033" x1="320.445" y1="55" x2="-32" y2="55" gradientUnits="userSpaceOnUse">
<stop offset="0.205722" stop-color="#323232"/>
<stop offset="0.563779" stop-color="#323232"/>
<stop offset="0.699811" stop-color="#323232" stop-opacity="0.24"/>
<stop offset="1" stop-color="#323232" stop-opacity="0"/>
</linearGradient>
<clipPath id="clip0_19_2033">
<rect width="20" height="20" fill="white" transform="translate(33.48)"/>
</clipPath>
<clipPath id="clip1_19_2033">
<rect width="22.4791" height="20" fill="white" transform="translate(64.96)"/>
</clipPath>
<clipPath id="clip2_19_2033">
<rect width="20" height="20" fill="white" transform="translate(195.88 60)"/>
</clipPath>
<clipPath id="clip3_19_2033">
<rect width="22.4791" height="20" fill="white" transform="translate(227.36 60)"/>
</clipPath>
<clipPath id="clip4_19_2033">
<rect width="20" height="20" fill="white" transform="translate(33.48 90)"/>
</clipPath>
<clipPath id="clip5_19_2033">
<rect width="22.4791" height="20" fill="white" transform="translate(129.92 90)"/>
</clipPath>
<clipPath id="clip6_19_2033">
<rect width="20" height="20" fill="white" transform="translate(98.4399 30)"/>
</clipPath>
<clipPath id="clip7_19_2033">
<rect width="20" height="20" fill="white" transform="translate(1 90)"/>
</clipPath>
<clipPath id="clip8_19_2033">
<rect width="22.4791" height="20" fill="white" transform="translate(129.92 30)"/>
</clipPath>
<clipPath id="clip9_19_2033">
<rect width="22.4791" height="20" fill="white" transform="translate(0 60)"/>
</clipPath>
</defs>
</svg>
