<svg width="61" height="25" viewBox="0 0 61 25" fill="none" xmlns="http://www.w3.org/2000/svg">
<path d="M32.5617 7.85503L22.6374 4.34208C22.5655 4.31873 22.5029 4.27323 22.4585 4.2121C22.4141 4.15096 22.3901 4.07734 22.3901 4.00177C22.3901 3.9262 22.4141 3.85258 22.4585 3.79145C22.5029 3.73031 22.5655 3.68481 22.6374 3.66146L32.5617 0.148224C33.123 -0.049408 33.735 -0.049408 34.2963 0.148224L44.2206 3.66118C44.2925 3.68453 44.3551 3.73003 44.3996 3.79116C44.444 3.8523 44.4679 3.92592 44.4679 4.00149C44.4679 4.07705 44.444 4.15068 44.3996 4.21181C44.3551 4.27295 44.2925 4.31845 44.2206 4.3418L34.2963 7.85503C33.735 8.05267 33.123 8.05267 32.5617 7.85503Z" fill="url(#paint0_linear_906_14)"/>
<path d="M44.243 7.35007L41.4984 6.38393C41.3479 6.34001 41.1879 6.34001 41.0373 6.38393L34.2966 8.75621C33.7353 8.95385 33.1233 8.95385 32.562 8.75621L25.8213 6.36303C25.6707 6.31909 25.5107 6.31909 25.3602 6.36303L22.6374 7.32917C22.5655 7.35252 22.5029 7.39802 22.4585 7.45916C22.4141 7.52029 22.3901 7.59392 22.3901 7.66948C22.3901 7.74505 22.4141 7.81867 22.4585 7.87981C22.5029 7.94094 22.5655 7.98644 22.6374 8.00979L32.5617 11.5227C33.123 11.7204 33.735 11.7204 34.2963 11.5227L44.2209 8.00951C44.2913 7.98925 44.3535 7.94721 44.3986 7.88941C44.4436 7.83161 44.4692 7.76104 44.4717 7.6878C44.4741 7.61456 44.4533 7.54243 44.4122 7.48176C44.3711 7.42108 44.3119 7.37498 44.243 7.35007Z" fill="url(#paint1_linear_906_14)"/>
<path d="M11.1543 13.6907C10.3291 13.6907 9.52256 13.9353 8.83651 14.3938C8.15045 14.8522 7.61574 15.5037 7.29998 16.266C6.98423 17.0283 6.90161 17.8671 7.06258 18.6764C7.22356 19.4856 7.62088 20.229 8.20432 20.8124C8.78776 21.3959 9.53111 21.7932 10.3404 21.9542C11.1496 22.1151 11.9884 22.0325 12.7507 21.7168C13.513 21.401 14.1646 20.8663 14.623 20.1802C15.0814 19.4942 15.3261 18.6876 15.3261 17.8625C15.3263 17.3146 15.2186 16.772 15.009 16.2657C14.7995 15.7594 14.4922 15.2994 14.1048 14.912C13.7173 14.5246 13.2573 14.2173 12.751 14.0077C12.2448 13.7981 11.7022 13.6904 11.1543 13.6907ZM11.1543 19.8386C10.7591 19.8386 10.3728 19.7214 10.0442 19.5018C9.71559 19.2823 9.45949 18.9702 9.30826 18.6051C9.15703 18.24 9.11747 17.8383 9.19456 17.4507C9.27166 17.0631 9.46196 16.7071 9.74139 16.4276C10.0208 16.1482 10.3769 15.9579 10.7644 15.8808C11.152 15.8037 11.5538 15.8433 11.9189 15.9945C12.284 16.1457 12.596 16.4018 12.8156 16.7304C13.0351 17.059 13.1523 17.4453 13.1523 17.8405C13.1505 18.3698 12.9394 18.877 12.5651 19.2513C12.1907 19.6256 11.6836 19.8367 11.1543 19.8386Z" fill="#333840"/>
<path d="M3.29352 20.5851V13.8452H0V11.6707H8.76078V13.8452L5.46726 13.8232V22.0132H4.72056C4.53296 22.0136 4.34713 21.9769 4.17375 21.9053C4.00037 21.8336 3.84286 21.7284 3.71026 21.5957C3.57766 21.463 3.47258 21.3054 3.40106 21.132C3.32954 20.9585 3.293 20.7727 3.29352 20.5851Z" fill="#333840"/>
<path d="M29.0483 13.6907C28.2232 13.6907 27.4166 13.9353 26.7306 14.3938C26.0445 14.8522 25.5098 15.5037 25.194 16.266C24.8783 17.0283 24.7957 17.8671 24.9566 18.6764C25.1176 19.4856 25.5149 20.229 26.0984 20.8124C26.6818 21.3959 27.4252 21.7932 28.2344 21.9542C29.0437 22.1151 29.8825 22.0325 30.6448 21.7168C31.4071 21.401 32.0586 20.8663 32.517 20.1802C32.9754 19.4942 33.2201 18.6876 33.2201 17.8625C33.2204 17.3146 33.1127 16.772 32.9031 16.2657C32.6935 15.7594 32.3862 15.2994 31.9988 14.912C31.6114 14.5246 31.1514 14.2173 30.6451 14.0077C30.1388 13.7981 29.5962 13.6904 29.0483 13.6907ZM29.0483 19.8386C28.6531 19.8386 28.2668 19.7214 27.9382 19.5018C27.6096 19.2823 27.3535 18.9702 27.2023 18.6051C27.0511 18.24 27.0115 17.8383 27.0886 17.4507C27.1657 17.0631 27.356 16.7071 27.6354 16.4276C27.9149 16.1482 28.2709 15.9579 28.6585 15.8808C29.0461 15.8037 29.4478 15.8433 29.8129 15.9945C30.178 16.1457 30.4901 16.4018 30.7096 16.7304C30.9292 17.059 31.0464 17.4453 31.0464 17.8405C31.0445 18.3698 30.8334 18.877 30.4591 19.2513C30.0848 19.6256 29.5776 19.8367 29.0483 19.8386Z" fill="#333840"/>
<path d="M20.2001 13.6907C19.4232 13.693 18.6627 13.9137 18.0052 14.3275V13.8446H15.8306V25H18.0052V21.3975C18.5531 21.738 19.1726 21.9467 19.8149 22.007C20.4572 22.0674 21.1047 21.9778 21.7065 21.7453C22.3083 21.5128 22.8479 21.1438 23.2828 20.6673C23.7177 20.1909 24.036 19.6199 24.2127 18.9995C24.3894 18.379 24.4197 17.726 24.3011 17.0919C24.1825 16.4578 23.9183 15.8598 23.5293 15.3452C23.1403 14.8305 22.6371 14.4132 22.0594 14.1261C21.4817 13.839 20.8452 13.6899 20.2001 13.6907ZM20.2001 19.8386C19.8049 19.8386 19.4186 19.7214 19.09 19.5018C18.7614 19.2823 18.5053 18.9702 18.3541 18.6051C18.2029 18.24 18.1633 17.8383 18.2404 17.4507C18.3175 17.0631 18.5078 16.7071 18.7872 16.4276C19.0667 16.1482 19.4227 15.9579 19.8103 15.8808C20.1979 15.8037 20.5996 15.8433 20.9647 15.9945C21.3298 16.1457 21.6419 16.4018 21.8614 16.7304C22.081 17.059 22.1982 17.4453 22.1982 17.8405C22.1963 18.3698 21.9852 18.877 21.6109 19.2513C21.2366 19.6256 20.7294 19.8367 20.2001 19.8386Z" fill="#333840"/>
<path d="M41.4324 17.8408C41.4297 18.5848 41.6268 19.3159 42.003 19.9578C42.3792 20.5997 42.9209 21.1288 43.5714 21.49C44.2219 21.8511 44.9574 22.031 45.7012 22.011C46.4449 21.9909 47.1697 21.7715 47.7997 21.3758V22.0126H49.9743V13.8446H47.7997V14.3276C47.1407 13.9165 46.3807 13.696 45.6039 13.6907C45.0572 13.6881 44.5153 13.7935 44.0094 14.0008C43.5035 14.2082 43.0435 14.5134 42.6559 14.8991C42.2683 15.2847 41.9607 15.7431 41.7507 16.2479C41.5408 16.7527 41.4326 17.294 41.4324 17.8408ZM43.5841 17.8408C43.5841 17.4456 43.7013 17.0593 43.9209 16.7307C44.1404 16.4021 44.4525 16.146 44.8176 15.9948C45.1827 15.8436 45.5844 15.804 45.972 15.8811C46.3596 15.9582 46.7156 16.1485 46.9951 16.4279C47.2745 16.7074 47.4648 17.0634 47.5419 17.451C47.619 17.8386 47.5794 18.2403 47.4282 18.6054C47.277 18.9705 47.0209 19.2826 46.6923 19.5022C46.3637 19.7217 45.9774 19.8389 45.5822 19.8389C45.0528 19.837 44.5457 19.6259 44.1714 19.2516C43.7971 18.8773 43.586 18.3702 43.5841 17.8408Z" fill="#333840"/>
<path d="M39.6317 18.8066C39.4644 19.1175 39.2177 19.3785 38.9167 19.5629C38.6156 19.7474 38.2711 19.8488 37.9181 19.8566C37.5652 19.8645 37.2164 19.7787 36.9075 19.6078C36.5985 19.437 36.3404 19.1873 36.1594 18.8842C35.9784 18.581 35.8811 18.2353 35.8773 17.8823C35.8734 17.5293 35.9633 17.1816 36.1377 16.8746C36.3121 16.5676 36.5648 16.3124 36.87 16.1349C37.1752 15.9575 37.522 15.8641 37.875 15.8644C38.2366 15.8605 38.5922 15.957 38.9023 16.143C39.2124 16.3291 39.4649 16.5975 39.6317 16.9183L41.432 15.7107C40.9581 14.9343 40.2434 14.3341 39.3967 14.0015C38.5501 13.6689 37.618 13.6222 36.7423 13.8683C35.8666 14.1145 35.0954 14.6401 34.5461 15.3651C33.9968 16.0902 33.6995 16.9749 33.6995 17.8845C33.6995 18.7941 33.9968 19.6788 34.5461 20.4038C35.0954 21.1288 35.8666 21.6545 36.7423 21.9006C37.618 22.1468 38.5501 22.1 39.3967 21.7674C40.2434 21.4348 40.9581 20.8346 41.432 20.0582L39.6317 18.8066Z" fill="#333840"/>
<path d="M50.4563 22.0125V13.8445H52.6309V14.7448C53.2016 14.1958 53.597 13.8445 54.9583 13.8445V16.0403C54.1675 16.0403 53.5744 16.2379 53.2016 16.6333C52.8065 17.097 52.6025 17.6936 52.6309 18.3021V22.0345H50.4563V22.0125Z" fill="#333840"/>
<path d="M60.7325 19.9923H59.7441C59.4588 19.9918 59.1854 19.8783 58.9837 19.6766C58.782 19.4749 58.6685 19.2015 58.6681 18.9163V16.0402H60.7319V13.8452H58.6681V11.6707H56.6042V13.8452H55.4409V16.041H56.6047V19.3117C56.6045 19.6664 56.6742 20.0177 56.8098 20.3455C56.9454 20.6733 57.1444 20.9711 57.3952 21.2219C57.646 21.4728 57.9439 21.6717 58.2716 21.8073C58.5994 21.943 58.9507 22.0126 59.3055 22.0124H60.7328L60.7325 19.9923Z" fill="#333840"/>
<defs>
<linearGradient id="paint0_linear_906_14" x1="29.8524" y1="4.906" x2="34.0581" y2="-3.1631" gradientUnits="userSpaceOnUse">
<stop stop-color="#78D23D"/>
<stop offset="1" stop-color="#D7DF23"/>
</linearGradient>
<linearGradient id="paint1_linear_906_14" x1="29.4342" y1="9.05393" x2="31.2445" y2="2.45534" gradientUnits="userSpaceOnUse">
<stop stop-color="#009C66"/>
<stop offset="1" stop-color="#78D23D"/>
</linearGradient>
</defs>
</svg>
