<svg width="227" height="85" viewBox="0 0 227 85" fill="none" xmlns="http://www.w3.org/2000/svg">
<path d="M35.2022 20.28L17.5986 10.14L0 20.28V10.14L17.6011 0L35.2047 10.14L35.2022 20.28Z" fill="#A435F0"/>
<path d="M0 28.795H9.22022V51.1475C9.22022 56.9225 13.5422 59.7375 17.6011 59.7375C21.6951 59.7375 25.9845 56.8475 25.9845 51.07V28.795H35.2047V51.68C35.2047 57 33.5285 61.105 30.1762 63.92C26.8213 66.7325 22.6321 68.1025 17.5234 68.1025C12.4197 68.1025 8.22804 66.735 4.95336 63.92C1.67618 61.1075 0 57.155 0 51.9075V28.795ZM114.917 56.575C112.126 59.055 108.946 60.27 105.321 60.27C98.7065 60.27 94.2717 56.51 93.7706 50.6875H123.561C123.561 50.6875 123.761 48.8075 123.761 47.0425C123.761 41.5675 122.008 37.005 118.425 33.28C114.922 29.555 110.352 27.73 104.787 27.73C98.9219 27.73 94.1189 29.555 90.308 33.28C86.5748 37.005 84.6707 41.87 84.6707 47.955V48.255C84.6707 54.2625 86.5748 59.0525 90.308 62.6275C94.0412 66.2 98.9946 68.025 105.015 68.025C112.016 68.025 117.585 65.27 121.765 60.52L114.917 56.575ZM97.3936 37.9175C99.4481 36.32 101.966 35.485 104.785 35.485C107.451 35.485 109.66 36.32 111.567 37.995C113.386 39.52 114.368 41.3925 114.453 43.545H94.0061C94.3018 41.32 95.4293 39.445 97.3961 37.92L97.3936 37.9175ZM207.731 73.19C203.99 82.0025 200.076 85 194.076 85H189.916V76.845H193.279C195.343 76.845 197.263 76.07 199.092 71.86L200.921 67.645L185.146 28.795H194.519L205.721 56.775L217.229 28.795H226.599L207.731 73.19ZM71.0984 14.1225V32.265C68.0768 29.565 63.3765 27.9575 58.8315 27.9575C53.4196 27.9575 48.8496 29.8575 45.1164 33.7325C41.4584 37.535 39.6294 42.2475 39.6294 47.95C39.6294 53.655 41.4584 58.3675 45.1164 62.245C48.8496 66.0475 53.4222 67.95 58.8315 67.95C65.0702 67.95 69.0138 65.5025 71.0984 63.585V67.1125H80.2435V14.125L71.0984 14.1225ZM68.3549 56.3175C66.145 58.5225 63.3264 59.665 60.0492 59.665C56.772 59.665 54.1061 58.5225 51.8963 56.3175C49.7666 54.1125 48.6968 51.3 48.6968 47.955C48.6968 44.6075 49.7641 41.795 51.8963 39.59C54.1061 37.385 56.772 36.245 60.0492 36.245C63.3264 36.245 66.145 37.385 68.3549 39.59C70.6399 41.795 71.7874 44.6075 71.7874 47.955C71.7874 51.3 70.6399 54.1125 68.3549 56.3175ZM170.93 28.035C163.985 28.035 160.374 30.91 157.901 33.68C156.912 31.7975 154.125 28.035 147.616 28.035C142.114 28.035 138.872 30.81 137.253 32.785V28.8H128.189V67.1175H137.253V45.0675C137.253 39.8975 140.456 36.1725 144.72 36.1725C149.067 36.1725 151.58 39.4425 151.58 44.6875V67.115H160.647V45.065C160.647 39.82 163.769 36.17 168.264 36.17C172.609 36.17 175.122 39.44 175.122 44.6825V67.1125H184.267V43.3925C184.267 33.4025 178.885 28.0375 170.93 28.0375V28.035Z" fill="black"/>
</svg>
